<?xml version="1.0" encoding="utf-8"?>
<!-- Generator: Adobe Illustrator 21.0.1, SVG Export Plug-In . SVG Version: 6.00 Build 0)  -->
<svg version="1.1" id="Layer_1" xmlns="http://www.w3.org/2000/svg" xmlns:xlink="http://www.w3.org/1999/xlink" x="0px" y="0px"
	 viewBox="0 0 165 48" style="enable-background:new 0 0 165 48;" xml:space="preserve">
<style type="text/css">
	.st0{fill:#00AEEF;}
</style>
<g>
	<g>
		<path class="st0" d="M15,35.5c-0.1-0.1-0.2-0.2-0.3-0.4c-0.8-1-1.5-2.1-2-3.2c-0.6-1.2-1.1-2.5-1.3-3.9c-0.3-1.3-0.3-2.6-0.1-3.9
			c0.2-1.4,0.9-2.8,2-4.2c1.1-1.4,2.3-2.7,3.8-3.8c1-0.8,2-1.4,3-2c0.5-0.3,1-0.6,1.6-0.8c1.6-0.8,3-1.3,4.1-1.5
			c0.1,0.2,0.2,0.2,0.4,0.4c-1.4,1-2.1,1.6-3.4,2.7c1.4-0.2,2.1-0.3,3.5-0.4c-0.3,0.6-0.4,0.9-0.7,1.5c0.1,0.1,0.2,0.2,0.3,0.3
			c0.1,0.1,0.2,0.2,0.3,0.3c-0.2,0.1-0.4,0.2-0.7,0.3c-0.2,0.1-0.4,0.2-0.7,0.4c-0.7,0.4-1.4,0.8-2.1,1.3c-0.7,0.5-1.4,1-2,1.6
			C20,20.7,19.5,21.4,19,22c-0.5,0.6-0.8,1.3-1.1,2.1c-0.3,1-0.3,2.1,0.1,3.3c0.3,1.1,0.8,2.1,1.5,3.1c0.1,0.1,0.1,0.2,0.2,0.2
			c0.8,0.9,1.6,2,2.6,2.7c1,0.8,1.9,1.3,2.9,1.5c0.7,0.2,1.3,0.1,2-0.2c0.5-0.2,1-0.5,1.5-0.8c0.2-0.1,0.4-0.2,0.6-0.4
			c0.7-0.5,1.5-1.1,2.2-1.8c-1.5-2.4-2.3-3.6-3.8-6c0.1-0.2,0.2-0.2,0.4-0.4c0.9,0.4,1.4,0.6,2.3,1c0-1.3,0-1.9,0.1-3.2
			c0.5,0,0.7-0.1,1.2-0.1c0.2-0.3,0.4-0.4,0.6-0.6c2.4,4.5,4.8,9,7.2,13.4c-0.3,0-0.5,0-0.8,0c-0.1,0.4-0.2,0.6-0.3,1.1
			c-0.8-0.6-1.3-0.8-2.1-1.4c-0.1,0.9-0.1,1.3-0.2,2.2c-0.2,0.1-0.3,0.1-0.5,0.2c-0.5-0.7-0.7-1.1-1.2-1.9c-0.7,0.7-1.5,1.3-2.2,1.9
			c-0.7,0.6-1.4,1.1-2.2,1.6c-0.1,0-0.1,0.1-0.2,0.1c-0.8,0.5-1.5,0.9-2.3,1.2c-0.8,0.3-1.6,0.4-2.4,0.4c-1.2,0-2.3-0.3-3.5-0.8
			c-1.2-0.5-2.3-1.2-3.4-2C17,37.6,15.9,36.6,15,35.5z"/>
		<path class="st0" d="M35.8,21.3c-0.4-1-0.8-2-1.1-2.9c-0.3-0.9-0.5-1.7-0.5-2.2c-0.2-1.5-0.2-2.9,0-4.2c0.2-1.2,0.7-2.4,1.3-3.4
			c0.6-1,1.5-1.9,2.5-2.6c1-0.8,2.2-1.4,3.5-2c0.2-0.1,0.4-0.2,0.6-0.3c0.1,0,0.3-0.1,0.4-0.1c0.4-0.1,0.8-0.2,1.1-0.3
			c0.5,0.9,0.8,1.3,1.3,2.2c1-0.7,1.5-1,2.5-1.7C48,4.6,48.3,5,48.8,5.9C50,5.3,50.5,5,51.6,4.5c0.8,0.4,1.5,0.9,2,1.4
			c0.6,0.5,1,1.2,1.4,1.9c0.7,1.7,1.3,3.4,1.8,5.1c0.1,0.3,0.1,0.5,0.2,0.7c0.4,1.4,0.6,3,0.7,4.4c0.2,1.6,0.1,3.2-0.1,4.6
			c-0.2,1.4-0.7,2.7-1.4,3.7c-0.7,1.1-1.7,2-2.8,2.7c-1,0.7-2.1,1.2-3.1,1.6c-0.1,0-0.2,0.1-0.3,0.1c-1.2,0.4-2.3,0.6-3.4,0.7
			c-1.1,0.1-2,0-2.6-0.2c-0.8-0.3-1.7-0.8-2.5-1.5c-0.8-0.7-1.5-1.5-2.2-2.4c-0.7-0.9-1.4-1.9-2-3c-0.4-0.8-0.8-1.6-1.2-2.4
			C36.1,21.8,35.9,21.6,35.8,21.3z M41.4,19.1c0.1,0.2,0.1,0.4,0.2,0.5c0.5,1.1,1,2.2,1.7,3.3c0.8,1.2,1.7,2.1,2.7,2.7
			c0.3,0.2,0.7,0.3,1.3,0.3c0.6,0,1.1-0.1,1.7-0.3c0,0,0.1,0,0.1-0.1c0.5-0.2,1-0.5,1.4-0.8c0.5-0.4,0.8-0.9,0.9-1.6
			c0.3-1.3,0.4-2.6,0.3-4c-0.1-1.2-0.3-2.3-0.7-3.4c-0.1-0.2-0.1-0.3-0.2-0.5c-0.4-1.2-0.9-2.3-1.5-3.3c-0.6-1-1.2-1.7-1.7-2.2
			C47,9.3,46.3,9,45.5,9c-0.6,0-1.3,0.1-1.9,0.3c-0.1,0.1-0.3,0.1-0.4,0.2c-0.7,0.3-1.4,0.8-1.9,1.4c-0.5,0.6-0.8,1.2-1,1.7
			c-0.2,0.6-0.2,1.6,0,2.8C40.5,16.5,40.9,17.8,41.4,19.1z"/>
		<path class="st0" d="M58.2,10.8c0-0.3,0-0.4,0-0.7c0.9-0.5,1.9-0.9,3-1.4c1.2-0.4,2.4-0.8,3.6-1.1c0.3-0.1,0.6-0.1,0.9-0.2
			c0.9-0.1,1.7-0.2,2.5-0.2c1.1,0,1.9,0.2,2.5,0.6c1,0.6,1.7,1.3,2.1,2.2c0.3,0.6,0.4,1.2,0.5,1.8c0,0.3,0,0.6,0,0.9
			c0,0.9-0.3,1.9-0.7,2.8c-0.4,0.9-1,1.8-1.7,2.5c-0.2,0.2-0.5,0.5-0.9,0.8c-0.4,0.3-0.8,0.5-1.3,0.8c-0.5,0.3-1,0.5-1.5,0.8
			c-0.5,0.3-1.1,0.5-1.7,0.7c0.3,1.9,0.5,2.8,0.8,4.7c-0.2,0.1-0.3,0.2-0.5,0.3c-0.3-0.6-0.5-0.8-0.8-1.4c-0.3,0.7-0.5,1-0.8,1.7
			c-0.4-0.3-0.5-0.4-0.9-0.7c-0.2,0.2-0.3,0.3-0.5,0.4c-1-4.4-2-8.9-3.1-13.3c-0.3-0.1-0.5-0.2-0.8-0.3c0.6-0.8,0.9-1.3,1.6-2.1
			C59.7,10.6,59.2,10.7,58.2,10.8z M63.8,11.7c0.5,2.5,0.8,3.8,1.3,6.3c0.5-0.3,0.9-0.5,1.3-0.8c0.3-0.2,0.7-0.4,1-0.6
			c0.3-0.2,0.6-0.4,0.7-0.5c0.4-0.4,0.7-0.9,1-1.4c0.3-0.5,0.4-1,0.4-1.5c0-0.2,0-0.4,0-0.5c0-0.3-0.1-0.6-0.3-0.8
			c-0.2-0.4-0.7-0.7-1.3-0.9c-0.3-0.1-0.7-0.1-1.1-0.1c0,0-0.1,0-0.1,0c-0.5,0.1-1,0.2-1.4,0.3C64.9,11.3,64.4,11.5,63.8,11.7z"/>
		<path class="st0" d="M77,24.4c-0.4-5.7-0.9-11.3-1.3-17c0.3-0.1,0.4-0.2,0.7-0.3c0.5,0.8,0.7,1.2,1.2,2.1c0.5-0.9,0.7-1.3,1.2-2.1
			c0.4,0.2,0.6,0.2,1,0.4c0.4-0.1,0.5-0.2,0.9-0.3c0,5.8,0.1,11.5,0.1,17.3c-0.1,0-0.2,0.1-0.3,0.1c-0.5-0.6-0.7-1-1.2-1.6
			c-0.3,0.6-0.4,0.9-0.7,1.5c-0.3-0.1-0.4-0.1-0.7-0.2C77.4,24.3,77.3,24.3,77,24.4z"/>
		<path class="st0" d="M83.7,8.9c0.5-0.4,0.8-0.6,1.4-1c-0.5-0.3-0.8-0.4-1.3-0.7c0.1-0.2,0.1-0.2,0.2-0.4c3.9-0.1,7.7-0.1,11.6,0
			c0.1,0.3,0.2,0.4,0.3,0.7c-0.4,0.3-0.6,0.4-1,0.7c0.4,0.3,0.6,0.5,1,0.9c-2.4,3.9-4.7,7.9-6.8,12c2.2,0.1,3.2,0.2,5.4,0.5
			c0,0.2,0,0.3,0,0.5c-0.6,0.4-0.9,0.6-1.6,1c0.5,0.2,0.7,0.3,1.2,0.5c-0.2,0.2-0.3,0.2-0.6,0.4c0,0.2,0.1,0.2,0.1,0.4
			c-2.7-0.1-5.3-0.1-8,0c0-0.4,0-0.6,0-1c-0.6-0.1-0.9-0.2-1.4-0.3c1.9-4.5,4-8.9,6.2-13.3c-2.5-0.1-3.8-0.1-6.2,0
			C83.9,9.3,83.8,9.2,83.7,8.9z"/>
		<path class="st0" d="M97.5,9.6c0.6-0.3,0.9-0.5,1.5-0.8c-0.5-0.4-0.7-0.5-1.2-0.9c0.1-0.1,0.1-0.2,0.2-0.4
			c3.9,0.3,7.7,0.8,11.5,1.4c0.1,0.3,0.1,0.4,0.2,0.7c-0.4,0.2-0.7,0.3-1.1,0.5c0.3,0.4,0.5,0.6,0.9,1c-2.9,3.6-5.6,7.3-8.2,11.1
			c2.1,0.4,3.2,0.6,5.3,1.1c0,0.2-0.1,0.3-0.1,0.5c-0.7,0.3-1,0.5-1.7,0.9c0.5,0.2,0.7,0.4,1.2,0.6c-0.2,0.1-0.4,0.2-0.6,0.3
			c0,0.2,0,0.2,0.1,0.4c-2.6-0.4-5.3-0.8-7.9-1c0.1-0.4,0.1-0.6,0.2-1c-0.6-0.2-0.8-0.3-1.4-0.5c2.4-4.3,5-8.4,7.8-12.5
			c-2.5-0.4-3.7-0.5-6.2-0.8C97.6,10.1,97.6,9.9,97.5,9.6z"/>
		<path class="st0" d="M107.1,26.4c2.5-5.2,5.2-10.3,8.1-15.4c0.5,0.3,0.8,0.4,1.2,0.7c0.6-0.2,0.9-0.3,1.5-0.5
			c0.5,0.9,0.8,1.4,1.3,2.3c0.6-0.5,0.9-0.8,1.5-1.3c0.4,0.4,0.6,0.5,1,0.9c0.5-0.1,0.7-0.1,1.2-0.1c-0.6,5.9-1.4,11.7-2.3,17.5
			c-0.2-0.2-0.3-0.4-0.5-0.6c-0.5,0.1-0.7,0.1-1.2,0.2c-0.2-0.5-0.3-0.7-0.5-1.2c-0.4,0.2-0.6,0.3-1,0.4c0.1-1.5,0.1-2.3,0.1-3.9
			c-2.2-0.6-3.4-0.8-5.6-1.2c-0.8,1.3-1.2,2-2,3.3c-0.1,0-0.2,0-0.3,0c-0.3-0.5-0.4-0.8-0.6-1.3c-0.5,0.2-0.8,0.3-1.4,0.6
			C107.4,26.7,107.3,26.6,107.1,26.4z M113.5,21.4c1.8,0.3,2.7,0.5,4.4,1c0.2-2.5,0.2-3.8,0.3-6.3c-0.5-0.1-0.8-0.2-1.4-0.3
			C115.5,18,114.8,19.1,113.5,21.4z"/>
		<path class="st0" d="M121.2,30.7c3.3-4.8,6.7-9.5,10.2-14c0.5,0.3,0.7,0.5,1.1,0.9c0.6-0.1,0.9-0.2,1.5-0.3c0.4,1,0.6,1.5,1,2.5
			c0.7-0.4,1-0.6,1.7-1c0.3,0.4,0.5,0.6,0.8,1.1c0.5,0,0.7,0,1.2,0.1c-1.4,5.7-3,11.4-4.8,17c-0.2-0.3-0.2-0.4-0.4-0.7
			c-0.5,0-0.8,0-1.2,0c-0.1-0.5-0.2-0.8-0.3-1.3c-0.4,0.1-0.6,0.2-1.1,0.3c0.3-1.5,0.4-2.3,0.7-3.8c-2.2-0.9-3.2-1.3-5.4-2.1
			c-1,1.2-1.5,1.8-2.5,3c-0.1,0-0.2,0-0.3,0c-0.2-0.5-0.3-0.8-0.5-1.4c-0.6,0.1-0.9,0.2-1.4,0.4C121.5,31,121.4,30.9,121.2,30.7z
			 M128.3,26.7c1.7,0.6,2.6,0.9,4.3,1.6c0.5-2.5,0.8-3.7,1.2-6.2c-0.5-0.2-0.8-0.3-1.3-0.5C130.8,23.6,130,24.6,128.3,26.7z"/>
		<path class="st0" d="M134.7,37.1c4-4.2,8-8.4,12.3-12.3c0.4,0.4,0.6,0.6,1,1c0.6,0,0.9,0,1.6,0c0.3,1.1,0.4,1.6,0.6,2.6
			c0.7-0.3,1.1-0.5,1.9-0.7c0.3,0.5,0.4,0.7,0.7,1.2c0.5,0.1,0.7,0.2,1.2,0.3c-2.3,5.5-4.7,10.9-7.2,16.2c-0.1-0.3-0.2-0.4-0.3-0.7
			c-0.5-0.1-0.8-0.1-1.3-0.2c0-0.5-0.1-0.8-0.1-1.3c-0.4,0-0.7,0.1-1.1,0.1c0.5-1.5,0.7-2.2,1.2-3.7c-2-1.2-3.1-1.8-5.1-2.9
			c-1.2,1-1.7,1.5-2.9,2.6c-0.1,0-0.2,0-0.3-0.1c-0.1-0.6-0.2-0.9-0.3-1.4c-0.6,0-0.9,0.1-1.5,0.1C135,37.4,134.9,37.3,134.7,37.1z
			 M142.4,34.2c1.6,0.9,2.5,1.3,4.1,2.3c0.9-2.4,1.3-3.6,2.1-6c-0.5-0.3-0.8-0.4-1.3-0.7C145.3,31.5,144.3,32.4,142.4,34.2z"/>
	</g>
</g>
</svg>
