<?xml version="1.0" encoding="utf-8"?>
<!-- Generator: Adobe Illustrator 21.0.1, SVG Export Plug-In . SVG Version: 6.00 Build 0)  -->
<svg version="1.1" id="Layer_1" xmlns="http://www.w3.org/2000/svg" xmlns:xlink="http://www.w3.org/1999/xlink" x="0px" y="0px"
	 viewBox="0 0 100 50" style="enable-background:new 0 0 100 50;" xml:space="preserve">
<style type="text/css">
	.st0{fill-rule:evenodd;clip-rule:evenodd;fill:#37B34A;}
	.st1{fill-rule:evenodd;clip-rule:evenodd;fill:#906026;}
	.st2{fill-rule:evenodd;clip-rule:evenodd;fill:#EEC9B7;}
	.st3{fill-rule:evenodd;clip-rule:evenodd;fill:#EDBFAC;}
	.st4{fill-rule:evenodd;clip-rule:evenodd;fill:#43525A;}
	.st5{fill-rule:evenodd;clip-rule:evenodd;fill:#3F4C55;}
	.st6{fill-rule:evenodd;clip-rule:evenodd;fill:#A15641;}
	.st7{fill-rule:evenodd;clip-rule:evenodd;fill:#FCD1BD;}
	.st8{fill-rule:evenodd;clip-rule:evenodd;fill:#C89885;}
	.st9{fill-rule:evenodd;clip-rule:evenodd;fill:#D5A38D;}
	.st10{fill-rule:evenodd;clip-rule:evenodd;fill:#A9763C;}
	.st11{fill-rule:evenodd;clip-rule:evenodd;fill:#EF506B;}
	.st12{fill-rule:evenodd;clip-rule:evenodd;fill:#D8425B;}
	.st13{fill-rule:evenodd;clip-rule:evenodd;fill:#996B36;}
	.st14{fill-rule:evenodd;clip-rule:evenodd;fill:#2F3031;}
	.st15{fill-rule:evenodd;clip-rule:evenodd;fill:#41260E;}
	.st16{fill-rule:evenodd;clip-rule:evenodd;fill:#EDBFA7;}
	.st17{fill-rule:evenodd;clip-rule:evenodd;fill:#7C6444;}
	.st18{fill-rule:evenodd;clip-rule:evenodd;fill:#404041;}
	.st19{fill-rule:evenodd;clip-rule:evenodd;fill:#7D253E;}
	.st20{fill-rule:evenodd;clip-rule:evenodd;fill:#E4E5E6;}
	.st21{fill-rule:evenodd;clip-rule:evenodd;fill:#FFFFFF;}
	.st22{fill-rule:evenodd;clip-rule:evenodd;fill:#5E3B15;}
	.st23{fill-rule:evenodd;clip-rule:evenodd;fill:#9A503B;}
	.st24{fill:#FFFFFF;}
	.st25{fill-rule:evenodd;clip-rule:evenodd;fill:#E6E6E6;}
</style>
<g>
	<rect x="-193.1" y="-198.6" class="st0" width="507.7" height="481.3"/>
	<g>
		<path class="st1" d="M292.3,133.2c-8.8,2.9-35.4,20.3-52.1,12.8c-16.8-7.6-58.5-30.2-60.6-31.8c-2-1.6-11.3-3.7-10.9-9.6
			c0.4-5.9-3.2-6.8,3.9-12c7.2-5.2,12-1.3,15.8-3.3c3.8-1.9,3.4,7.2,11.1,11.9c7.6,4.8,25.7,17.1,35.3,17.8
			c9.6,0.8,35.2-17.8,48-20.7C295.7,95.6,292.3,133.2,292.3,133.2z"/>
		<path class="st2" d="M44.3,114.8c30.5-13.4,183.3-68.1,188.1-94.9c2.3-12.8,6.2-38.5,11-34.5c4.8,4,9,28.8,9,28.8s24-2.5,33.6-9.8
			C295.6-2.9,301.2-7,304.5,9c3.3,16,3.4,31.2-18.2,41c-21.6,9.7-38.8,4.2-43.6,7.4C197.4,88,99.8,132.1,44.8,141.8L44.3,114.8z"/>
		<path class="st3" d="M269.5,61.7c-16.7,4.5-29.5,1.1-33.5,3.8c-27.3,18.4-73.8,41.8-118.4,59.6c-4.9-2.7-5.1-7.2-5.1-7.2
			c2.4-0.8,52.3-25.9,81.9-39.3c29.6-13.4,80.7-44.5,80.3-42.1C274.6,38.2,274.9,49.9,269.5,61.7z"/>
		<path class="st4" d="M24.2,123.3c-5.1,18.8,2.8,32.8,26,37.5c23.2,4.8,94.2-23.2,91.6-29.7c-2.6-6.5-14.2-50.2-14.2-50.2
			C107.5,87.6,29.3,104.5,24.2,123.3z"/>
		<path class="st5" d="M23.7,125.1c-4,17.9,4,31,26.4,35.7c23.2,4.8,94.2-23.2,91.6-29.7c-0.5-1.4-1.5-4.4-2.6-8.3
			c-13,8.8-35.5,22.1-58.4,25.2C56.2,151.2,33.6,134.1,23.7,125.1z"/>
		<path class="st6" d="M-145-32c0.9,2.2-37.2,64.3,23.2,87.1c3.2,5,38.2,11.1,55.5,18.9c17.3,7.8,23.8,12.5,22.4,11.7
			c-1.3-0.7-8.1-6.3-7.2-6c0.9,0.4,5.5,1.4,13.3,2.6c7.9,1.2,15,1.6,13.5,0.5C-25.7,81.6-37.4,29-40,27.1
			C-42.7,25.3-145.5-32.1-145-32z"/>
		<path class="st7" d="M-37.2,67.7c5.3,5.2,12.5,32.4,12.5,32.4L9.2,88.2L-9.4,65.8L-37.2,67.7z"/>
		<path class="st6" d="M-29.2-115.8c2,0,43,20.3,44.2,23.1c1.2,2.8,14.4,43.5,14.4,43.5S-6.9-73.5-24.3-93.2
			C-32.4-102.5-29.2-115.8-29.2-115.8z"/>
		<path class="st7" d="M14.3-84.4c1.5,1.2,6.8,18.5,15.4,27.2C64.7-35.1,85-2.8,47.9,47.3c-20,27-56.4,38.4-87.5,29.2
			C-70.6,67.3-80,58.6-80,58.6c3.4,7.5-45.2,21.9-49.9-17.3c-2.1-17.4,12.7-29.3,11-29.3c-1.8,0-9.5-15.2-9.5-19.3
			c0-4.1,50.1-55.9,77.4-83c27.4-27.1,18.7-10.8,18.7-10.8L14.3-84.4z"/>
		<path class="st6" d="M23.4-73.5c-23.3,5-31.2,23.9-35,30.4c-2,3.4-6.1,2.7-3.7-2.1c2.4-4.9,7.6-16.1,14.9-22.5
			c7.3-6.4,14.7-9.6,20.8-9.5C26.6-77,23.4-73.5,23.4-73.5z"/>
		<path class="st6" d="M-32-33.7c-23.3,5-31.2,23.9-35,30.4c-2,3.4-6.1,2.7-3.7-2.1c2.4-4.9,7.6-16.1,14.9-22.5
			c7.3-6.4,14.7-9.6,20.8-9.5C-28.9-37.2-32-33.7-32-33.7z"/>
		<path class="st8" d="M-122.3,34.2c-1.1,9.5,1.3,20.8,14.8,23c13.6,2.2,24.5-1.3,20.7-9.1c-3.8-7.8-7.8,0-10.7-6.3
			c-2.9-6.3-3.2-4-0.3-7.8c2.9-3.8,4.9-3.8-2.1-8.9C-106.6,20.1-121.1,23.4-122.3,34.2z"/>
		<path class="st9" d="M-86.7,48.1c-3.8-7.8-7.8,0-10.7-6.3c-2.9-6.3-3.2-4-0.3-7.8c2.9-3.8,4.9-3.8-2.1-8.9
			c-2.3-1.7-5.5-2.4-8.8-2.3c-4,1.8-7.2,5.1-7.7,9.9c-1.1,9.5,1.3,20.8,14.8,23c4.1,0.7,8,0.8,11.3,0.5
			C-86.5,54.7-84.9,51.9-86.7,48.1z"/>
		<path class="st4" d="M19.5,85.9c-5.4-1.9-4.3-4.6-30.5,3.2c-26.3,7.8-38.5,20.4-39.6,25.8c-1.1,5.4,44.1,40.6,70.5,109.3
			c8.7,22.8,12.3,42.9,12.9,59.9h124.5C130.9,191.8,101.9,111.9,19.5,85.9z"/>
		<path class="st5" d="M-48.7,111c-1.1,1.5-1.7,2.8-2,3.9c-1.1,5.4,44.1,40.6,70.5,109.3c8.7,22.8,12.3,42.9,12.9,59.9h15.3
			c3.3-17,10-35.7,10-47.2c-0.1-16.3-17.2-17.9-35.4-51.2c-18.2-33.3-48.8-76-57.9-80.7C-38.4,103.2-43.4,106.1-48.7,111z"/>
		<path class="st10" d="M247.6-206.7c-4.2-9.7-8.6-23.5-26-33.5c-17.4-10.1-39.6-18.3-37.3-15.4c2.3,2.9,18.8,49,25.9,53.6
			c7.1,4.6,37.7,13,38.2,8.6C248.9-197.9,247.6-206.7,247.6-206.7z"/>
		<path class="st1" d="M307.2-46.5c-15.9,12.3-62,45.1-79.9,39.8c-17.9-5.4-69.3-30.8-79.8-31.1c-10.5-0.3-19.1,15-24.4,4.3
			c-5.3-10.8,3.2-17.2,14.3-24.1C158.1-70.6,210-34.8,226.5-44c15.6-10.1,11.2-13.8,27.8-28.6C270.9-87.4,307.2-46.5,307.2-46.5z"/>
		<path class="st11" d="M148.2-98c-7.3,9.8-16,17.9-29,18.8c-13,0.9-13.8,6.4-17.5,4.9c-3.7-1.5,0.2-9,5.3-12.7
			c5.1-3.7,6.6-3.5,14.2-6c7.6-2.5,15.1-11.1,15.1-11.1L148.2-98z"/>
		<path class="st12" d="M140.5-89.1c-5.7,5.4-12.5,9.3-21.2,9.9c-13,0.9-13.8,6.4-17.5,4.9c-1.1-0.5-1.5-1.5-1.4-2.8
			c1,0.4,2.6,0.6,4.9-0.4c4.1-1.8,15.7-5.2,19.4-6.1c3.7-0.9,12.5-6.8,14.3-9.4C139-93,140-92.1,140.5-89.1z"/>
		<path class="st10" d="M217.4-66.8c2.9,16.9-9.7,27.9-13.6,67.8c-3.9,39.9,53.8,121.7,53.8,121.7l-14.9,28.5
			c-11.5,6.6-46.4-8.7-56-10.7c-4.9-8.5-15.2-16.5-21-17.7c-5.8-1.2-10.4,0.9-9.9,5.9c0.6,6.9,3.3,20.3,8.1,25.4
			c0.7,2.5,6.3,6.6,14.7,8.5c7.9,1.6,82.2,31.5,94.1,21.7c19.1-40.8,77.1-10.8,120.2-70.3c3-7.9,47.5,18.1,71.6-24.7
			c10.4-22.5-2.7-51.6-2.2-47.9c-4.1,57-25.2,53.6-64.5,33.3c-14.4-7.4-19.2-25.6-35.4-40.8c-39.5-37.1-53.5-110.7-56.7-143.4
			c-4.8-49.7,1.2-115.5-77.8-112.5c-24.9,1-33.3,4.3-65.7,42.9c-40.5,33.4-67.9,49.7-64.2,61.4c-1,4.3,6.2,9,8.2,12.2
			c9.7,15.9,22.8,22.8,44.7,14.1C170.8-99.2,214-86.1,217.4-66.8z"/>
		<path class="st13" d="M204.5-6.2L203.8,1c-3.9,39.9,53.8,121.7,53.8,121.7s6.6-13.4,14.6-24.2c8-10.9,16.7-16.1,16.7-16.1
			s-23.8,18-33.4,10c-9.7-8-24.1-49.7-29.7-65.3c-5.7-15.6,3.2-93.4-0.2-94C218.4-69.2,205-50.6,204.5-6.2z"/>
		<path class="st14" d="M106.8-135.1c-1.4-0.4-6.5,3.7-9.6,6.6c-0.2,0.2-0.4,0.3-0.5,0.5c-3.1,2.9-5,7.1-1.9,12.8
			c3.1,5.7,9.7,9.7,13.2,6.8C111.5-111.5,106.8-135.1,106.8-135.1z"/>
		<path class="st15" d="M176.1-163.6c11.3-14.5,31.1-1.5,25.7,5.2C199.1-168.9,185.4-170.3,176.1-163.6z"/>
		<path class="st10" d="M275.2-191.9c-1.1-10.5-1.3-25-14.9-39.7c-13.6-14.8-32.4-29.2-31-25.7c1.4,3.4,3.4,52.3,8.8,58.8
			c5.4,6.5,32.2,23.6,34,19.6C273.9-183.1,275.2-191.9,275.2-191.9z"/>
		<path class="st7" d="M19.5,85.9C52.2,71.5,215.5,13,220.8-15.7c2.5-13.7,6.6-41.2,11.8-36.9c5.2,4.3,9.6,30.8,9.6,30.8
			s14.8-1.6,26.4-5.7c5.1-5.1,12.8-12.2,17.9-15c7.6-4.2,21.1-14.8,23.5-12.9c2.4,1.9,2.9,4,1,7c-1.9,3-23.5,23.7-22.6,22.7
			c0.9-1,24.7-15,28.8-16.6c4.1-1.6,7.2,0.7,6.4,3.2c-0.8,2.5-27.1,21.6-27.1,21.6s11.6-5.8,20-5.9c8.4-0.2,12.8-0.2,12.8,2.2
			s-0.8,4.8-3.7,5.3c-2.9,0.5-12.3,3.6-18.7,6.6c-6.4,3-11.5,4-11.1,5.6c0.4,1.7,22.3-3.8,25.8-2.2c3.4,1.6,5,4.8,0.6,7.6
			c-4.4,2.8-9.3,2.7-18.2,4.7c-5.1,1.1-11.9,3.4-17.1,5.2c-2.1,1.6-4.9,3.2-8.4,4.9c-23.1,10.4-41.5,4.5-46.7,8
			c-48.4,32.7-152.7,79.8-211.6,90.3L19.5,85.9z"/>
		<path class="st16" d="M324.6-3c0.7,1.5,0.1,3.3-2.4,4.9c-4.4,2.8-9.3,2.7-18.2,4.7c-5.1,1.1-11.9,3.4-17.1,5.2
			c-2.1,1.6-4.9,3.2-8.4,4.9c-23.1,10.4-41.5,4.5-46.7,8c-43.1,29.1-130.6,69.7-190.9,85.6c0.3-3.5,0.6-6.4,0.4-6.5
			c2,4.3,130.4-51.5,157.4-64c27-12.5,33.8-19.8,33.8-19.8s26-0.6,37.8-4.1c11.8-3.5,16.4-7.4,16.4-7.4s26-2.9,32.1-6.7
			C321.4,0,323.3-1.7,324.6-3z"/>
		<path class="st4" d="M-50.6,114.9c-5.1,18.8,3.7,39.6,26.8,44.4c23.1,4.8,92.9-33.2,92.9-33.2L52.7,72.5
			C32.7,79.2-45.6,96.1-50.6,114.9z"/>
		<path class="st5" d="M-50.6,114.9c-5.1,18.8,3.7,39.6,26.8,44.4c23.1,4.8,92.9-33.2,92.9-33.2l-2.9-9.5
			c-5.9,1.9-13.4,4.4-21.7,6.9c-27.3,8.3-62.9,17.4-74.8,9.2c-9.9-6.7-14.7-15.7-17-23.1C-49,111.4-50.1,113.1-50.6,114.9z"/>
		<path class="st10" d="M282.4-41.1C269-26,225.8,14.3,207.2,12.4c-18.6-1.9-69.6-16.7-80.1-15C116.7-1,116.8,15,109.6,5.4
			c-7.3-9.6-5.7-16.8,3.9-25.7c17.9-16.6,84.8,10.1,94.8,0.8c13.4-12.8,3.6-19.8,17.2-37.5C238.9-74.6,282.4-41.1,282.4-41.1z"/>
		<path class="st17" d="M-22.2-20c-20.6-3.4-30.3,6.7-28.2,27.2C-59.6-13.5-39.5-29.6-22.2-20z"/>
		<path class="st17" d="M29.4-49.2C15.9-56.3,5.2-44.2,0.9-32C-0.9-47.1,20.7-61.8,29.4-49.2z"/>
		<polygon class="st18" points="312.5,-90.2 215.5,-59.2 207.3,-77.6 307.7,-110.9 		"/>
		<path class="st19" d="M-12.1,27.3C1.7,50.2,58.1,40.4,44.5-5.2C31.1,6.9-7.4,22.9-12.1,27.3z"/>
		<path class="st11" d="M-3.7,35.3c4.8,2.5,8.1,3.1,10.3,3.8c15.4-8.6,11.2-7.2,19.2-11.6c-1.7,0-7.8-0.6-9.7-0.4
			C8.7,27.9,1.5,31.9-3.7,35.3z"/>
		<path class="st20" d="M6.7,39.1c21.3,2,35.8-8.7,39.1-23.3c-0.9-1.2-0.9-1.3-1.5-1C43.2,15.3,14.5,33.6,6.7,39.1z"/>
		<path class="st21" d="M44.5,16.4c-1,0.5-25.5,16.2-35.4,22.9c19.5,0.9,32.8-9,36.4-22.5C45,16.2,44.9,16.2,44.5,16.4z"/>
		<path class="st20" d="M-2,32.5c1.7-1.1,45.1-26.4,45.9-28.1c0.5-1.1-1.3-4.4-2.8-6.9C25.5,9.2-7.8,23.2-12.1,27.3
			c1.6,2.6,3.8,4.9,6.4,6.7C-4.2,33.6-2.8,33-2,32.5z"/>
		<path class="st21" d="M-12.1,27.3c1.3,2.1,3,4,5,5.6c1.2-0.4,2.3-0.8,2.9-1.2c1.8-1.1,46-27,46.8-28.7C43,2.2,42-0.1,40.8-2.2
			C25.1,9.4-7.8,23.3-12.1,27.3z"/>
		<path class="st9" d="M-0.4-23.5c0,0,26.8,3.8,26.3,7.2c-0.5,3.4-9.3,13.9-12.7,15.8C9.9,1.4,6.7,2.2,8.2,1
			C9.7-0.1,22.5-14.2,21-14.2C19.5-14.2-0.4-23.5-0.4-23.5z"/>
		<path class="st3" d="M-80,58.6c0,0,17.2,12.9,40.5,17.9c23.3,5.1,5.2,1.4,7.9,1.9c2.1,0.4,4.1,0.7,6.2,0.9
			c8.6,0.9,17.3,0.3,25.8-1.6C19,73.5,36.3,63,47.9,47.3c8.4-11.4,13.6-21.4,16.3-30.5c-6.2,10.2-15.7,25-26,33.9
			c-13.1,11.2-26.7,18.3-43.6,20c-5.9,0.6-12.2,0.6-18.9-0.2c-1.2-0.1-2.4-0.3-3.6-0.5c-3-0.4-5.9-1-8.7-1.7
			c-20.7-4.8-41.8-16.4-41.8-16.4L-80,58.6z"/>
		<path class="st22" d="M255.1-210.7c-0.8-4.4-19.2-40.1-21.8-41l3.9,39c2.6-2.3,19.9,10.5,21.2,13.1L255.1-210.7z"/>
		<path class="st6" d="M-122.8,17.5c0,0,6.6-2,23.5,4.5c16.9,6.5,37.7,22.4,37.7,22.4c-0.2-0.6-0.4-3.8-7.5-17.5
			c-5.2-10.1-30-21.1-31.4-28.1C-102.1-10.4-77-45.4-77-45.4l6.5-6.5c0,0,11.3-9.1,32-17.7C-17.7-78.3,0-98.2-2.2-97.4
			c-2.2,0.9-15.1,1.7-15.1,1.7s10.8-4.3,16.9-16c6.1-11.7,6.1-21.2,6.1-21.2l-10.8,5.2c0,0-0.9-15.6-9.5-33.3
			c-8.7-17.7-10.8-20.8-10.8-18.6c0,2.2-3.5,21.2-3.9,19c-0.4-2.2-22.9-18.2-22.9-18.2s2.6,14.7-13,35.1
			c-15.6,20.3-54.1,42.9-69.3,60.2C-149.7-66.2-145-32-145-32s-2.6,12.6-1.3,23.2C-145,1.7-121.7,16.8-122.8,17.5z"/>
		<path class="st23" d="M-129.8,14.3c7.7,11.6-5.6,9.8-6.3,9.4c-0.7-0.4,7.1,16.9,2.1,11.7c-5-5.2-5.5-7.2-5.5-7.2
			s6.7,14.4,8.8,17.4c2.1,3-10.8-1.2-15.1-14.9c-4.3-13.7,3.7-38.7,3.2-37.6c-0.5,1.1-0.2,1.2,1.1,11.1c1.3,9.9,4.3,14.6,3.9,12.2
			c-0.4-2.4-1.3-11.7,0.8-17.6c2.1-5.9,3.2-6.9,3.2-6.9C-134.2,7.9-137.6,2.7-129.8,14.3z"/>
		<path class="st23" d="M-133.3-51.2c-0.4-4.8,7.2-21.7,24.3-35.2c17.1-13.5,23.3-14.1,38.6-25.2c15.3-11.1,19.3-20.5,18.5-18.1
			c-0.8,2.4-0.2,9.7-15.1,26.4C-81.7-86.6-93-79.4-93-79.4s15.7-4.8,27-9.9c11.3-5,22.5-19.1,21.3-17.3c-1.2,1.8,2.9,9-12.9,22.9
			c-15.9,13.9-28.9,13.5-46,25.8c-17.1,12.3-14.9,51.1-15.5,49.3c-0.6-1.8-6-11.7-5-24.8c1-13.1,3.6-17.7,3.6-17.7
			s-6.2,12.5-9.5,20.9c-3.2,8.5-3.8,13.5-3.8,11.7C-133.9-20.2-133.3-51.2-133.3-51.2z"/>
		<path class="st23" d="M-61.5,44.3c-0.2-0.6-0.4-3.8-7.5-17.5c-5.2-10.1-30-21.1-31.4-28.1C-102.1-10.4-77-45.4-77-45.4l6.5-6.5
			c0,0,11.3-9.1,32-17.8C-17.7-78.3,0-98.2-2.2-97.4c-2.2,0.9-15.1,1.7-15.1,1.7s10.8-4.3,16.9-16c6.1-11.7,6.1-21.2,6.1-21.2
			l-10.8,5.2c0,0-0.9-15.6-9.5-33.3c-8.7-17.7-10.8-20.8-10.8-18.6c0,2.2-3.5,21.2-3.9,19c-0.4-2.2-22.9-18.2-22.9-18.2
			s2.6,14.7-13,35.1c-15.6,20.3-54.1,42.8-69.3,60.2c-5,5.8-7.9,13.4-9.4,21c4.2-8,9.6-16.5,15.6-21.3c14.5-11.7,56.7-34.4,69-47.5
			c12.3-13.1,12.1-36,11.9-37c-0.2-1,3.8,3.4,5.4,15.1c1.6,11.7,0.8,22.7,0.2,23.6c-0.6,0.9,3.2-2.8,8.8-9.8
			c5.5-6.9,8.5-19.4,8.5-19.4s0,1.6-1.5,12.8c-1.5,11.2-15.3,30.9-15.8,31.2c-0.5,0.3,6.4-2.9,12.8-10.6
			c6.3-7.6,12.5-24.9,12.5-24.9s0.6,8.7-4.2,23.7c-4.8,15.1-14.1,22.9-17.2,24c-3.1,1.1,2.3-0.7,15.6-5.9
			c13.2-5.2,16.3-10.7,17.5-11.5c1.2-0.8-1.2,2.6-9.3,12.1c-8,9.5-28,23.3-30,24.1c-2,0.8,20.1-4.2,21.7-4.6
			c1.6-0.4-9.3,7.2-22.5,14.9c-13.3,7.6-31.6,13.3-39.6,24.5c-8,11.3-8.5,12.1-13.7,20.5c-5.2,8.5-8,18-9.7,20.9
			c-1.7,3-2.4,9.7-0.8,12.7c1.6,3,24.1,13.3,29.6,17.9C-73.9,27.9-61.5,44.3-61.5,44.3z"/>
		
			<ellipse transform="matrix(0.8929 -0.4503 0.4503 0.8929 -33.7675 192.5308)" class="st24" cx="387.7" cy="167.2" rx="13.5" ry="13.5"/>
		
			<ellipse transform="matrix(0.8929 -0.4503 0.4503 0.8929 -23.8841 177.2224)" class="st24" cx="360.5" cy="138.8" rx="33.6" ry="33.6"/>
		
			<ellipse transform="matrix(0.8929 -0.4503 0.4503 0.8929 -42.5997 170.8944)" class="st24" cx="337.8" cy="175" rx="20.9" ry="20.9"/>
		
			<ellipse transform="matrix(0.8929 -0.4503 0.4503 0.8929 -26.5798 157.131)" class="st24" cx="316.9" cy="134.4" rx="18.9" ry="18.9"/>
		
			<ellipse transform="matrix(0.8929 -0.4503 0.4503 0.8929 -7.2297 191.3665)" class="st24" cx="398.6" cy="110.9" rx="29.9" ry="29.9"/>
		
			<ellipse transform="matrix(0.8929 -0.4503 0.4503 0.8929 -13.2662 207.5052)" class="st24" cx="429.5" cy="131.6" rx="16.6" ry="16.6"/>
		
			<ellipse transform="matrix(0.8929 -0.4503 0.4503 0.8929 8.8519 199.8229)" class="st24" cx="424.4" cy="81.3" rx="16.6" ry="16.6"/>
		<circle class="st24" cx="307.2" cy="-131.3" r="16.8"/>
		<circle class="st24" cx="253.7" cy="-227.7" r="14.8"/>
		<circle class="st24" cx="268.5" cy="-146.5" r="10.5"/>
		<circle class="st24" cx="268.5" cy="-212.9" r="10.5"/>
		<circle class="st24" cx="222.7" cy="-233.9" r="10.5"/>
		<circle class="st24" cx="202.1" cy="-248.3" r="20.6"/>
		<circle class="st24" cx="115.8" cy="-144.5" r="14.6"/>
		<circle class="st24" cx="141.7" cy="-164.5" r="20.5"/>
		<path class="st25" d="M141.9-182.7l1.7,3.9c0,0-12.9,1.5-19.4,12.4C124.3-166.4,123.2-175.9,141.9-182.7z"/>
		<path class="st25" d="M124.3-141.5l3.4,2.8c0,0-4.9,6.9-15,6.3C112.6-132.3,123.5-136.1,124.3-141.5z"/>
		<g>
			<circle class="st24" cx="290.5" cy="-161.6" r="22"/>
			<path class="st25" d="M301.6-178.4l-3.4,3.8c0,0-7.4-4.5-19.2,0C279-174.6,287-184.1,301.6-178.4z"/>
		</g>
		<path class="st25" d="M293.3-125.4l5.7-2.2c0,0,2.4,8.7,13.5,8.5C312.5-119,300.1-113.4,293.3-125.4z"/>
		<path class="st25" d="M364.7,108.2l4,6.6c0,0-21.4,0.1-31.7,21.3C336.9,136.1,336.3,116.7,364.7,108.2z"/>
		<path class="st25" d="M421,108.2l6.1,4.6c0,0-2,19-21.4,23.4C405.7,136.1,421.8,129.1,421,108.2z"/>
		<path class="st25" d="M324.9,161.4l4.4,2.2c0,0-7.4,7.2-6.3,24.2C323,187.8,316.3,171.8,324.9,161.4z"/>
	</g>
</g>
</svg>
