<?xml version="1.0" encoding="utf-8"?>
<!-- Generator: Adobe Illustrator 21.0.1, SVG Export Plug-In . SVG Version: 6.00 Build 0)  -->
<svg version="1.1" id="Layer_1" xmlns="http://www.w3.org/2000/svg" xmlns:xlink="http://www.w3.org/1999/xlink" x="0px" y="0px"
	 viewBox="0 0 165 48" style="enable-background:new 0 0 165 48;" xml:space="preserve">
<style type="text/css">
	.st0{fill:#FFFFFF;}
	.st1{fill:#F6D376;}
	.st2{fill:url(#SVGID_1_);}
	.st3{fill:#FB1200;}
	.st4{fill:url(#SVGID_2_);}
	.st5{fill:url(#SVGID_3_);}
	.st6{fill:url(#SVGID_4_);}
	.st7{fill:#FF5337;}
	.st8{fill:url(#SVGID_5_);}
	.st9{fill:url(#SVGID_6_);}
	.st10{fill:url(#SVGID_7_);}
	.st11{fill:url(#SVGID_8_);}
	.st12{fill:url(#SVGID_9_);}
	.st13{fill:url(#SVGID_10_);}
	.st14{fill:url(#SVGID_11_);}
	.st15{fill:url(#SVGID_12_);}
	.st16{fill:#F04B45;}
	.st17{font-family:'NexaBold';}
	.st18{font-size:8.0693px;}
</style>
<path class="st0" d="M119.3,7.7H48.7C38.4,7.7,30,16,30,26.3v0C30,36.6,38.4,45,48.7,45h70.7c10.3,0,18.7-8.4,18.7-18.7v0
	C138,16,129.6,7.7,119.3,7.7z"/>
<path class="st1" d="M101,7.5c13.1,1.2,15.6-1.3,22-0.8c6.5,0.5,17,2.9,11.1,4.4s-11.3,0.3-13.9,1.5s-1.8,10.8,0.2,14.1
	c1.9,3.2-9.6,7.3-8,0.8s6.4-9.6,3.3-13.9s-6.8,0.6-11.8,0.6c-5,0-7.6-3.2-13.4-2.1s-7.6-1.1-14.1-0.8s-7-1-14.9,0S45,9.3,37.2,12.1
	s-5.8-0.5-1.1-1.9s5.6-6.8,14-4.7s14.5,2.9,21.8,1c7.3-1.9,11.2,1.9,18,1.3C96.6,7.1,101,7.5,101,7.5z"/>
<g>
	
		<linearGradient id="SVGID_1_" gradientUnits="userSpaceOnUse" x1="431.987" y1="-1333.3145" x2="437.4195" y2="-1333.3145" gradientTransform="matrix(-0.6094 -0.7929 0.7929 -0.6094 1368.0034 -462.9705)">
		<stop  offset="0" style="stop-color:#FFAE30"/>
		<stop  offset="1" style="stop-color:#FF7233"/>
	</linearGradient>
	<path class="st2" d="M44.2,2.7c1.1-0.8,2.7-0.6,3.7,0.6c0.9,1.2,0.8,2.8-0.3,3.7c-1.1,0.8-2.7,0.6-3.7-0.6
		C43,5.2,43.1,3.5,44.2,2.7z"/>
	<g>
		<ellipse transform="matrix(0.7929 -0.6093 0.6093 0.7929 6.4321 29.0438)" class="st3" cx="45.9" cy="5.1" rx="2.5" ry="2.7"/>
		<g>
			
				<linearGradient id="SVGID_2_" gradientUnits="userSpaceOnUse" x1="431.7442" y1="-1334.6365" x2="437.1768" y2="-1334.6365" gradientTransform="matrix(-0.6094 -0.7929 0.7929 -0.6094 1368.0034 -462.9705)">
				<stop  offset="0" style="stop-color:#FB1200;stop-opacity:0"/>
				<stop  offset="9.790792e-02" style="stop-color:#FC2010;stop-opacity:9.810442e-02"/>
				<stop  offset="0.2783" style="stop-color:#FC3526;stop-opacity:0.2788"/>
				<stop  offset="0.4745" style="stop-color:#FC4436;stop-opacity:0.4754"/>
				<stop  offset="0.6962" style="stop-color:#FC4D3F;stop-opacity:0.6976"/>
				<stop  offset="0.998" style="stop-color:#FC5042"/>
			</linearGradient>
			<path class="st4" d="M44.1,6.5c-0.9-1.2-0.8-2.8,0.3-3.6c0,0,0,0-0.1,0c-1.1,0.8-1.3,2.5-0.3,3.7s2.6,1.5,3.7,0.6c0,0,0,0,0.1,0
				C46.6,8,45,7.7,44.1,6.5z"/>
		</g>
		
			<linearGradient id="SVGID_3_" gradientUnits="userSpaceOnUse" x1="434.4605" y1="-1331.248" x2="434.4605" y2="-1335.575" gradientTransform="matrix(-0.6094 -0.7929 0.7929 -0.6094 1368.0034 -462.9705)">
			<stop  offset="0" style="stop-color:#FB1200;stop-opacity:0"/>
			<stop  offset="0.998" style="stop-color:#FC5042"/>
		</linearGradient>
		<path class="st5" d="M44.5,3.2c0.9-0.7,2.4-0.5,3.1,0.5c0.8,1,0.7,2.4-0.3,3.2c-0.9,0.7-2.4,0.5-3.1-0.5
			C43.4,5.4,43.6,3.9,44.5,3.2z"/>
		
			<linearGradient id="SVGID_4_" gradientUnits="userSpaceOnUse" x1="435.3899" y1="-1331.2482" x2="435.3899" y2="-1335.575" gradientTransform="matrix(-0.6094 -0.7929 0.7929 -0.6094 1368.0034 -462.9705)">
			<stop  offset="0" style="stop-color:#FB1200;stop-opacity:0"/>
			<stop  offset="9.790792e-02" style="stop-color:#FC2010;stop-opacity:9.810442e-02"/>
			<stop  offset="0.2783" style="stop-color:#FC3526;stop-opacity:0.2788"/>
			<stop  offset="0.4745" style="stop-color:#FC4436;stop-opacity:0.4754"/>
			<stop  offset="0.6962" style="stop-color:#FC4D3F;stop-opacity:0.6976"/>
			<stop  offset="0.998" style="stop-color:#FC5042"/>
		</linearGradient>
		<path class="st6" d="M44.5,3.2c0.9-0.7,2.4-0.5,3.1,0.5c0.8,1-1.1,0.1-2.1,0.9c-0.9,0.7-0.6,2.8-1.4,1.8
			C43.5,5.4,43.6,3.9,44.5,3.2z"/>
		<g>
			<path class="st3" d="M44.2,3c0.1-0.1,0.3-0.2,0.4-0.3C45.8,2.1,47.4,2.7,48,4c0.6,1.2,0.3,2.5-0.6,3.3c0,0,0.1-0.1,0.1-0.1
				c1.1-0.8,1.3-2.5,0.3-3.7s-2.6-1.5-3.7-0.6C44.2,2.9,44.2,3,44.2,3z"/>
		</g>
		<ellipse transform="matrix(0.793 -0.6092 0.6092 0.793 5.3944 29.4225)" class="st7" cx="46" cy="6.8" rx="0.4" ry="0.4"/>
		<ellipse transform="matrix(0.7929 -0.6093 0.6093 0.7929 6.4332 28.074)" class="st7" cx="44.5" cy="4.6" rx="0.6" ry="0.6"/>
		<ellipse transform="matrix(0.7929 -0.6093 0.6093 0.7929 6.3794 29.4323)" class="st7" cx="46.5" cy="5.3" rx="0.4" ry="0.4"/>
		<ellipse transform="matrix(0.793 -0.6092 0.6092 0.793 7.2441 29.2832)" class="st7" cx="46.7" cy="4" rx="0.4" ry="0.4"/>
		<ellipse transform="matrix(0.7929 -0.6093 0.6093 0.7929 5.9214 28.8688)" class="st7" cx="45.4" cy="5.7" rx="0.2" ry="0.2"/>
		<ellipse transform="matrix(0.793 -0.6093 0.6093 0.793 5.5249 28.4908)" class="st7" cx="44.7" cy="6.1" rx="0.2" ry="0.2"/>
		<ellipse transform="matrix(0.7929 -0.6093 0.6093 0.7929 5.8524 30.1254)" class="st7" cx="47.2" cy="6.5" rx="0.2" ry="0.2"/>
		<ellipse transform="matrix(0.793 -0.6093 0.6093 0.793 6.7129 29.9515)" class="st7" cx="47.4" cy="5.1" rx="0.2" ry="0.2"/>
		<ellipse transform="matrix(0.7929 -0.6093 0.6093 0.7929 7.3889 28.5463)" class="st7" cx="45.7" cy="3.4" rx="0.2" ry="0.2"/>
		<ellipse transform="matrix(0.793 -0.6093 0.6093 0.793 6.7278 28.7058)" class="st7" cx="45.6" cy="4.5" rx="0.2" ry="0.2"/>
	</g>
</g>
<g>
	
		<linearGradient id="SVGID_5_" gradientUnits="userSpaceOnUse" x1="394.0345" y1="-1292.3585" x2="398.1085" y2="-1292.3585" gradientTransform="matrix(-0.6094 -0.7929 0.7929 -0.6094 1368.0034 -462.9705)">
		<stop  offset="0" style="stop-color:#FFAE30"/>
		<stop  offset="1" style="stop-color:#FF7233"/>
	</linearGradient>
	<path class="st8" d="M100.7,8.9c0.8-0.6,2.1-0.4,2.7,0.5c0.7,0.9,0.6,2.1-0.3,2.8c-0.8,0.6-2.1,0.4-2.7-0.5
		C99.7,10.7,99.8,9.5,100.7,8.9z"/>
	<g>
		<ellipse transform="matrix(0.7929 -0.6093 0.6093 0.7929 14.6076 64.3262)" class="st3" cx="101.9" cy="10.7" rx="1.9" ry="2"/>
		<g>
			
				<linearGradient id="SVGID_6_" gradientUnits="userSpaceOnUse" x1="393.8524" y1="-1293.35" x2="397.9265" y2="-1293.35" gradientTransform="matrix(-0.6094 -0.7929 0.7929 -0.6094 1368.0034 -462.9705)">
				<stop  offset="0" style="stop-color:#FB1200;stop-opacity:0"/>
				<stop  offset="9.790792e-02" style="stop-color:#FC2010;stop-opacity:9.810442e-02"/>
				<stop  offset="0.2783" style="stop-color:#FC3526;stop-opacity:0.2788"/>
				<stop  offset="0.4745" style="stop-color:#FC4436;stop-opacity:0.4754"/>
				<stop  offset="0.6962" style="stop-color:#FC4D3F;stop-opacity:0.6976"/>
				<stop  offset="0.998" style="stop-color:#FC5042"/>
			</linearGradient>
			<path class="st9" d="M100.5,11.8c-0.7-0.9-0.6-2.1,0.2-2.7c0,0,0,0,0,0C99.9,9.7,99.8,10.9,100.5,11.8c0.6,1,1.8,1.2,2.7,0.5
				c0,0,0,0,0,0C102.4,12.8,101.2,12.6,100.5,11.8z"/>
		</g>
		
			<linearGradient id="SVGID_7_" gradientUnits="userSpaceOnUse" x1="395.8894" y1="-1290.809" x2="395.8894" y2="-1294.0537" gradientTransform="matrix(-0.6094 -0.7929 0.7929 -0.6094 1368.0034 -462.9705)">
			<stop  offset="0" style="stop-color:#FB1200;stop-opacity:0"/>
			<stop  offset="0.998" style="stop-color:#FC5042"/>
		</linearGradient>
		<path class="st10" d="M100.9,9.3c0.7-0.5,1.8-0.4,2.4,0.4c0.6,0.8,0.5,1.8-0.2,2.4c-0.7,0.5-1.8,0.4-2.4-0.4
			C100.1,10.9,100.2,9.8,100.9,9.3z"/>
		
			<linearGradient id="SVGID_8_" gradientUnits="userSpaceOnUse" x1="396.5864" y1="-1290.809" x2="396.5864" y2="-1294.0538" gradientTransform="matrix(-0.6094 -0.7929 0.7929 -0.6094 1368.0034 -462.9705)">
			<stop  offset="0" style="stop-color:#FB1200;stop-opacity:0"/>
			<stop  offset="9.790792e-02" style="stop-color:#FC2010;stop-opacity:9.810442e-02"/>
			<stop  offset="0.2783" style="stop-color:#FC3526;stop-opacity:0.2788"/>
			<stop  offset="0.4745" style="stop-color:#FC4436;stop-opacity:0.4754"/>
			<stop  offset="0.6962" style="stop-color:#FC4D3F;stop-opacity:0.6976"/>
			<stop  offset="0.998" style="stop-color:#FC5042"/>
		</linearGradient>
		<path class="st11" d="M100.9,9.3c0.7-0.5,1.8-0.4,2.4,0.4c0.6,0.8-0.8,0.1-1.5,0.6c-0.7,0.5-0.4,2.1-1,1.3
			C100.1,10.9,100.2,9.8,100.9,9.3z"/>
		<g>
			<path class="st3" d="M100.6,9.1c0.1-0.1,0.2-0.1,0.3-0.2c0.9-0.5,2.1-0.1,2.6,1c0.4,0.9,0.2,1.9-0.4,2.5c0,0,0.1,0,0.1-0.1
				c0.8-0.6,0.9-1.9,0.3-2.8S101.5,8.4,100.6,9.1C100.7,9.1,100.6,9.1,100.6,9.1z"/>
		</g>
		<ellipse transform="matrix(0.793 -0.6092 0.6092 0.793 13.8266 64.6057)" class="st7" cx="102" cy="12" rx="0.3" ry="0.3"/>
		<ellipse transform="matrix(0.7929 -0.6093 0.6093 0.7929 14.6083 63.5988)" class="st7" cx="100.9" cy="10.3" rx="0.4" ry="0.5"/>
		<ellipse transform="matrix(0.7929 -0.6093 0.6093 0.7929 14.5684 64.6181)" class="st7" cx="102.4" cy="10.9" rx="0.3" ry="0.3"/>
		<ellipse transform="matrix(0.793 -0.6092 0.6092 0.793 15.2136 64.501)" class="st7" cx="102.5" cy="9.9" rx="0.3" ry="0.3"/>
		<ellipse transform="matrix(0.7929 -0.6093 0.6093 0.7929 14.225 64.1955)" class="st7" cx="101.6" cy="11.2" rx="0.1" ry="0.2"/>
		<ellipse transform="matrix(0.793 -0.6093 0.6093 0.793 13.9262 63.9099)" class="st7" cx="101" cy="11.5" rx="0.1" ry="0.2"/>
		<ellipse transform="matrix(0.7929 -0.6093 0.6093 0.7929 14.1732 65.1379)" class="st7" cx="102.9" cy="11.7" rx="0.1" ry="0.2"/>
		<ellipse transform="matrix(0.793 -0.6093 0.6093 0.793 14.8171 65.0053)" class="st7" cx="103.1" cy="10.7" rx="0.1" ry="0.2"/>
		<ellipse transform="matrix(0.7929 -0.6093 0.6093 0.7929 15.3255 63.9537)" class="st7" cx="101.8" cy="9.4" rx="0.1" ry="0.2"/>
		<ellipse transform="matrix(0.793 -0.6093 0.6093 0.793 14.8284 64.0711)" class="st7" cx="101.7" cy="10.2" rx="0.1" ry="0.2"/>
	</g>
</g>
<g>
	
		<linearGradient id="SVGID_9_" gradientUnits="userSpaceOnUse" x1="371.0129" y1="-1291.4487" x2="376.4453" y2="-1291.4487" gradientTransform="matrix(-0.6094 -0.7929 0.7929 -0.6094 1368.0034 -462.9705)">
		<stop  offset="0" style="stop-color:#FFAE30"/>
		<stop  offset="1" style="stop-color:#FF7233"/>
	</linearGradient>
	<path class="st12" d="M114.6,25.5c1.1-0.8,2.7-0.6,3.7,0.6c0.9,1.2,0.8,2.8-0.3,3.7c-1.1,0.8-2.7,0.6-3.7-0.6
		C113.3,28,113.5,26.3,114.6,25.5z"/>
	<g>
		<ellipse transform="matrix(0.7929 -0.6093 0.6093 0.7929 7.0847 76.6386)" class="st3" cx="116.3" cy="27.9" rx="2.5" ry="2.7"/>
		<g>
			
				<linearGradient id="SVGID_10_" gradientUnits="userSpaceOnUse" x1="370.7701" y1="-1292.7708" x2="376.2026" y2="-1292.7708" gradientTransform="matrix(-0.6094 -0.7929 0.7929 -0.6094 1368.0034 -462.9705)">
				<stop  offset="0" style="stop-color:#FB1200;stop-opacity:0"/>
				<stop  offset="9.790792e-02" style="stop-color:#FC2010;stop-opacity:9.810442e-02"/>
				<stop  offset="0.2783" style="stop-color:#FC3526;stop-opacity:0.2788"/>
				<stop  offset="0.4745" style="stop-color:#FC4436;stop-opacity:0.4754"/>
				<stop  offset="0.6962" style="stop-color:#FC4D3F;stop-opacity:0.6976"/>
				<stop  offset="0.998" style="stop-color:#FC5042"/>
			</linearGradient>
			<path class="st13" d="M114.4,29.3c-0.9-1.2-0.8-2.8,0.3-3.6c0,0,0,0-0.1,0c-1.1,0.8-1.3,2.5-0.3,3.7c0.9,1.2,2.6,1.5,3.7,0.6
				c0,0,0,0,0.1,0C116.9,30.8,115.3,30.5,114.4,29.3z"/>
		</g>
		
			<linearGradient id="SVGID_11_" gradientUnits="userSpaceOnUse" x1="373.4864" y1="-1289.3823" x2="373.4864" y2="-1293.7092" gradientTransform="matrix(-0.6094 -0.7929 0.7929 -0.6094 1368.0034 -462.9705)">
			<stop  offset="0" style="stop-color:#FB1200;stop-opacity:0"/>
			<stop  offset="0.998" style="stop-color:#FC5042"/>
		</linearGradient>
		<path class="st14" d="M114.9,26c0.9-0.7,2.4-0.5,3.1,0.5c0.8,1,0.7,2.4-0.3,3.2c-0.9,0.7-2.4,0.5-3.1-0.5
			C113.8,28.2,113.9,26.8,114.9,26z"/>
		
			<linearGradient id="SVGID_12_" gradientUnits="userSpaceOnUse" x1="374.4158" y1="-1289.3823" x2="374.4158" y2="-1293.7092" gradientTransform="matrix(-0.6094 -0.7929 0.7929 -0.6094 1368.0034 -462.9705)">
			<stop  offset="0" style="stop-color:#FB1200;stop-opacity:0"/>
			<stop  offset="9.790792e-02" style="stop-color:#FC2010;stop-opacity:9.810442e-02"/>
			<stop  offset="0.2783" style="stop-color:#FC3526;stop-opacity:0.2788"/>
			<stop  offset="0.4745" style="stop-color:#FC4436;stop-opacity:0.4754"/>
			<stop  offset="0.6962" style="stop-color:#FC4D3F;stop-opacity:0.6976"/>
			<stop  offset="0.998" style="stop-color:#FC5042"/>
		</linearGradient>
		<path class="st15" d="M114.9,26.1c0.9-0.7,2.4-0.5,3.1,0.5c0.8,1-1.1,0.1-2.1,0.9c-0.9,0.7-0.6,2.8-1.4,1.8
			C113.8,28.2,113.9,26.8,114.9,26.1z"/>
		<g>
			<path class="st3" d="M114.5,25.9c0.1-0.1,0.3-0.2,0.4-0.3c1.2-0.6,2.8-0.1,3.5,1.3c0.6,1.2,0.3,2.5-0.6,3.3c0,0,0.1-0.1,0.1-0.1
				c1.1-0.8,1.3-2.5,0.3-3.7s-2.6-1.5-3.7-0.6C114.6,25.8,114.6,25.8,114.5,25.9z"/>
		</g>
		<ellipse transform="matrix(0.793 -0.6092 0.6092 0.793 6.0451 77.012)" class="st7" cx="116.3" cy="29.6" rx="0.4" ry="0.4"/>
		<ellipse transform="matrix(0.7929 -0.6093 0.6093 0.7929 7.0857 75.6687)" class="st7" cx="114.9" cy="27.4" rx="0.6" ry="0.6"/>
		<ellipse transform="matrix(0.7929 -0.6093 0.6093 0.7929 7.0322 77.0279)" class="st7" cx="116.8" cy="28.2" rx="0.4" ry="0.4"/>
		<ellipse transform="matrix(0.793 -0.6092 0.6092 0.793 7.8946 76.8723)" class="st7" cx="117.1" cy="26.8" rx="0.4" ry="0.4"/>
		<ellipse transform="matrix(0.7929 -0.6093 0.6093 0.7929 6.5743 76.4643)" class="st7" cx="115.8" cy="28.6" rx="0.2" ry="0.2"/>
		<ellipse transform="matrix(0.793 -0.6093 0.6093 0.793 6.1768 76.0837)" class="st7" cx="115" cy="29" rx="0.2" ry="0.2"/>
		<ellipse transform="matrix(0.7929 -0.6093 0.6093 0.7929 6.5052 77.721)" class="st7" cx="117.6" cy="29.3" rx="0.2" ry="0.2"/>
		<ellipse transform="matrix(0.793 -0.6093 0.6093 0.793 7.3647 77.5444)" class="st7" cx="117.8" cy="27.9" rx="0.2" ry="0.2"/>
		<ellipse transform="matrix(0.7929 -0.6093 0.6093 0.7929 8.0417 76.1419)" class="st7" cx="116" cy="26.2" rx="0.2" ry="0.2"/>
		<ellipse transform="matrix(0.793 -0.6093 0.6093 0.793 7.3797 76.2987)" class="st7" cx="116" cy="27.3" rx="0.2" ry="0.2"/>
	</g>
</g>
<text transform="matrix(1 0 0 1 67.9199 31.0244)" class="st16 st17 st18">App Store</text>
<path class="st16" d="M62.2,27.8c0-1.3,0.6-2.3,1.8-3c-0.7-0.9-1.7-1.5-3-1.6c-1.3-0.1-2.6,0.7-3.1,0.7c-0.5,0-1.7-0.7-2.7-0.7
	c-2,0-4.1,1.6-4.1,4.7c0,0.9,0.2,1.9,0.5,2.9c0.5,1.3,2.1,4.5,3.8,4.4c0.9,0,1.5-0.6,2.7-0.6c1.1,0,1.7,0.6,2.7,0.6
	c1.7,0,3.2-2.9,3.6-4.2C62.1,30,62.2,27.9,62.2,27.8L62.2,27.8z M60.2,22.1c1-1.1,0.9-2.2,0.8-2.6c-0.8,0-1.8,0.6-2.4,1.2
	c-0.6,0.7-1,1.6-0.9,2.5C58.7,23.3,59.5,22.9,60.2,22.1z"/>
</svg>
