<?xml version="1.0" encoding="utf-8"?>
<!-- Generator: Adobe Illustrator 21.0.1, SVG Export Plug-In . SVG Version: 6.00 Build 0)  -->
<svg version="1.1" id="Layer_1" xmlns="http://www.w3.org/2000/svg" xmlns:xlink="http://www.w3.org/1999/xlink" x="0px" y="0px"
	 viewBox="0 0 165 48" style="enable-background:new 0 0 165 48;" xml:space="preserve">
<style type="text/css">
	.st0{fill:#F2F2F2;}
	.st1{fill:#F04B45;}
	.st2{fill:#FFFFFF;}
	.st3{fill:#606B85;}
	.st4{clip-path:url(#SVGID_2_);fill:#FB1200;}
	.st5{clip-path:url(#SVGID_2_);fill:#FB1403;}
	.st6{clip-path:url(#SVGID_2_);fill:#FB1705;}
	.st7{clip-path:url(#SVGID_2_);fill:#FB1908;}
	.st8{clip-path:url(#SVGID_2_);fill:#FB1B0A;}
	.st9{clip-path:url(#SVGID_2_);fill:#FB1E0C;}
	.st10{clip-path:url(#SVGID_2_);fill:#FB200F;}
	.st11{clip-path:url(#SVGID_2_);fill:#FB2211;}
	.st12{clip-path:url(#SVGID_2_);fill:#FB2413;}
	.st13{clip-path:url(#SVGID_2_);fill:#FB2615;}
	.st14{clip-path:url(#SVGID_2_);fill:#FB2817;}
	.st15{clip-path:url(#SVGID_2_);fill:#FB2A19;}
	.st16{clip-path:url(#SVGID_2_);fill:#FB2C1B;}
	.st17{clip-path:url(#SVGID_2_);fill:#FB2D1D;}
	.st18{clip-path:url(#SVGID_2_);fill:#FB2F1F;}
	.st19{clip-path:url(#SVGID_2_);fill:#FB3121;}
	.st20{clip-path:url(#SVGID_2_);fill:#FC3222;}
	.st21{clip-path:url(#SVGID_2_);fill:#FC3424;}
	.st22{clip-path:url(#SVGID_2_);fill:#FC3526;}
	.st23{clip-path:url(#SVGID_2_);fill:#FC3727;}
	.st24{clip-path:url(#SVGID_2_);fill:#FC3829;}
	.st25{clip-path:url(#SVGID_2_);fill:#FC3A2A;}
	.st26{clip-path:url(#SVGID_2_);fill:#FC3B2B;}
	.st27{clip-path:url(#SVGID_2_);fill:#FC3C2D;}
	.st28{clip-path:url(#SVGID_2_);fill:#FC3D2E;}
	.st29{clip-path:url(#SVGID_2_);fill:#FC3E2F;}
	.st30{clip-path:url(#SVGID_2_);fill:#FC4031;}
	.st31{clip-path:url(#SVGID_2_);fill:#FC4132;}
	.st32{clip-path:url(#SVGID_2_);fill:#FC4233;}
	.st33{clip-path:url(#SVGID_2_);fill:#FC4334;}
	.st34{clip-path:url(#SVGID_2_);fill:#FC4435;}
	.st35{clip-path:url(#SVGID_2_);fill:#FC4536;}
	.st36{clip-path:url(#SVGID_2_);fill:#FC4537;}
	.st37{clip-path:url(#SVGID_2_);fill:#FC4638;}
	.st38{clip-path:url(#SVGID_2_);fill:#FC4738;}
	.st39{clip-path:url(#SVGID_2_);fill:#FC4839;}
	.st40{clip-path:url(#SVGID_2_);fill:#FC483A;}
	.st41{clip-path:url(#SVGID_2_);fill:#FC493B;}
	.st42{clip-path:url(#SVGID_2_);fill:#FC4A3B;}
	.st43{clip-path:url(#SVGID_2_);fill:#FC4A3C;}
	.st44{clip-path:url(#SVGID_2_);fill:#FC4B3D;}
	.st45{clip-path:url(#SVGID_2_);fill:#FC4C3E;}
	.st46{clip-path:url(#SVGID_2_);fill:#FC4D3F;}
	.st47{clip-path:url(#SVGID_2_);fill:#FC4E40;}
	.st48{clip-path:url(#SVGID_2_);fill:#FC4F41;}
	.st49{clip-path:url(#SVGID_2_);fill:#FC5041;}
	.st50{clip-path:url(#SVGID_2_);fill:#FC5042;}
	.st51{fill:#FB1200;}
</style>
<g>
	<g>
		<polygon class="st0" points="156,22.4 158.9,22.4 162,25.6 158.9,28.9 156,28.9 159.2,25.7 		"/>
	</g>
	<g>
		<polygon class="st0" points="8,22.4 5.1,22.4 2,25.6 5.1,28.9 8,28.9 4.8,25.7 		"/>
	</g>
	<g>
		<g>
			<circle class="st1" cx="29.3" cy="25.2" r="13.5"/>
			<path class="st2" d="M29.3,39.5c-7.8,0-14.2-6.4-14.2-14.2c0-7.8,6.4-14.2,14.2-14.2c7.8,0,14.2,6.4,14.2,14.2
				C43.5,33.1,37.2,39.5,29.3,39.5z M29.3,12.4c-7.1,0-12.8,5.7-12.8,12.8S22.2,38,29.3,38c7.1,0,12.8-5.7,12.8-12.8
				S36.4,12.4,29.3,12.4z"/>
		</g>
		<g>
			<circle class="st1" cx="65.3" cy="25.2" r="13.5"/>
			<path class="st2" d="M65.3,39.5c-7.8,0-14.2-6.4-14.2-14.2c0-7.8,6.4-14.2,14.2-14.2c7.8,0,14.2,6.4,14.2,14.2
				C79.5,33.1,73.2,39.5,65.3,39.5z M65.3,12.4c-7.1,0-12.8,5.7-12.8,12.8S58.2,38,65.3,38c7.1,0,12.8-5.7,12.8-12.8
				S72.4,12.4,65.3,12.4z"/>
		</g>
		<g>
			<circle class="st3" cx="101.3" cy="25.2" r="13.5"/>
			<path class="st2" d="M101.3,39.5c-7.8,0-14.2-6.4-14.2-14.2c0-7.8,6.4-14.2,14.2-14.2c7.8,0,14.2,6.4,14.2,14.2
				C115.5,33.1,109.2,39.5,101.3,39.5z M101.3,12.4c-7.1,0-12.8,5.7-12.8,12.8S94.3,38,101.3,38c7.1,0,12.8-5.7,12.8-12.8
				S108.4,12.4,101.3,12.4z"/>
		</g>
		<g>
			<circle class="st1" cx="137.3" cy="25.2" r="13.5"/>
			<path class="st2" d="M137.3,39.5c-7.8,0-14.2-6.4-14.2-14.2c0-7.8,6.4-14.2,14.2-14.2c7.8,0,14.2,6.4,14.2,14.2
				C151.5,33.1,145.2,39.5,137.3,39.5z M137.3,12.4c-7.1,0-12.8,5.7-12.8,12.8S130.3,38,137.3,38s12.8-5.7,12.8-12.8
				S144.4,12.4,137.3,12.4z"/>
		</g>
		<g>
			<g>
				<path class="st2" d="M39.3,27.6v-2.9c-1.3,0-2-0.2-2.7-0.4c-0.6-0.2-1.1-0.4-2.3-0.4S32.6,24,32,24.2c-0.7,0.2-1.3,0.4-2.7,0.4
					c-1.3,0-2-0.2-2.7-0.4c-0.6-0.2-1.1-0.4-2.3-0.4c-1.1,0-1.7,0.2-2.3,0.4c-0.7,0.2-1.3,0.4-2.7,0.4v2.9c1.1,0,1.7-0.2,2.3-0.4
					c0.7-0.2,1.3-0.4,2.7-0.4c1.3,0,2,0.2,2.7,0.4c0.6,0.2,1.1,0.4,2.3,0.4c1.1,0,1.7-0.2,2.3-0.4c0.7-0.2,1.3-0.4,2.7-0.4
					c1.3,0,2,0.2,2.7,0.4C37.6,27.4,38.1,27.6,39.3,27.6L39.3,27.6z M39.3,27.6"/>
			</g>
			<g>
				<path class="st2" d="M34.3,30.3c2.5,0,2.5,0.8,5,0.8v-2.2c-1.3,0-2-0.2-2.7-0.4c-0.6-0.2-1.1-0.4-2.3-0.4s-1.7,0.2-2.3,0.4
					c-0.7,0.2-1.3,0.4-2.7,0.4c-1.3,0-2-0.2-2.7-0.4c-0.6-0.2-1.1-0.4-2.3-0.4c-1.1,0-1.7,0.2-2.3,0.4c-0.7,0.2-1.3,0.4-2.7,0.4v2.2
					c2.5,0,2.5-0.8,5-0.8c2.5,0,2.5,0.8,5,0.8S31.8,30.3,34.3,30.3L34.3,30.3z M34.3,30.3"/>
			</g>
			<g>
				<path class="st2" d="M39.3,23.3v-2.2c-2.5,0-2.5-0.8-5-0.8s-2.5,0.8-5,0.8s-2.5-0.8-5-0.8c-2.5,0-2.5,0.8-5,0.8v2.2
					c1.1,0,1.7-0.2,2.3-0.4c0.7-0.2,1.3-0.4,2.7-0.4c1.3,0,2,0.2,2.7,0.4c0.6,0.2,1.1,0.4,2.3,0.4c1.1,0,1.7-0.2,2.3-0.4
					c0.7-0.2,1.3-0.4,2.7-0.4c1.3,0,2,0.2,2.7,0.4C37.6,23.2,38.1,23.3,39.3,23.3L39.3,23.3z M39.3,23.3"/>
			</g>
		</g>
		<g>
			<g>
				<g>
					<path class="st2" d="M135.2,29c0,0,0.1,0,0.1,0c2,0.5,3.1,0.8,3.6,1c0.3,0.1,0.7,0.1,0.9-0.1l1.5-1.4c0.2-0.2,0.2-0.6,0-0.8
						c-0.6-0.9-0.7-2.1-0.8-2.8c0-0.1,0-0.1,0-0.1c0.1-1.4-0.3-3-1.2-4.3c-1.9-2.7-5.3-3.6-7.6-2c-2.3,1.6-2.6,5.1-0.7,7.8
						C132,27.8,133.6,28.8,135.2,29L135.2,29z M135.3,18.9c2.5,0.8,3.5,3,4,5.4c0.2,0.8-1.1,1.1-1.3,0.3c-0.4-1.9-1.1-3.7-3.1-4.4
						C134.1,19.9,134.5,18.6,135.3,18.9L135.3,18.9z M135.3,18.9"/>
				</g>
			</g>
			<g>
				<path class="st2" d="M143.2,29.2c-0.3,0-0.6,0.1-0.9,0.3l-0.5-0.5l-1.7,1.7l0.5,0.5c-0.2,0.3-0.3,0.6-0.3,0.9
					c0,0.9,0.8,1.7,1.7,1.7c0.8,0,1.4-0.7,1.5-1.4c0.7-0.2,1.4-0.7,1.4-1.5C144.9,30,144.1,29.2,143.2,29.2L143.2,29.2z M143.2,31.7
					l-0.5-0.1l0.1,0.5c0,0.4-0.4,0.8-0.8,0.8c-0.4,0-0.8-0.4-0.8-0.8c0-0.2,0.1-0.5,0.3-0.6l0.4-0.3l-0.5-0.5l0.5-0.5l0.5,0.5
					l0.3-0.3c0.2-0.2,0.4-0.3,0.6-0.3c0.4,0,0.8,0.4,0.8,0.8C144,31.4,143.7,31.7,143.2,31.7L143.2,31.7z M143.2,31.7"/>
			</g>
		</g>
		<g>
			<g>
				<g>
					<g>
						<g>
							<defs>
								<path id="SVGID_1_" d="M58.1,23.1c1.3-4.7,5.8-7.5,10.1-6.4c-0.1,0-0.2,0-0.2-0.1c-4.4-1.2-9.1,1.6-10.4,6.4
									c-1.3,4.7,1.2,9.6,5.6,10.8c0.1,0,0.2,0,0.2,0.1C59.2,32.5,56.8,27.8,58.1,23.1z"/>
							</defs>
							<clipPath id="SVGID_2_">
								<use xlink:href="#SVGID_1_"  style="overflow:visible;"/>
							</clipPath>
							<polygon class="st4" points="56.3,31.9 63.5,33.9 56.3,33.9 							"/>
							<polygon class="st4" points="56.3,31.6 63.8,33.7 63.8,33.9 63.5,33.9 56.3,31.9 							"/>
							<polygon class="st5" points="56.3,31.3 63.9,33.4 63.8,33.7 56.3,31.6 							"/>
							<polygon class="st6" points="56.3,31 64,33.2 63.9,33.4 56.3,31.3 							"/>
							<polygon class="st7" points="56.3,30.8 64,32.9 64,33.2 56.3,31 							"/>
							<polygon class="st8" points="56.3,30.5 64.1,32.7 64,32.9 56.3,30.8 							"/>
							<polygon class="st9" points="56.3,30.2 64.2,32.4 64.1,32.7 56.3,30.5 							"/>
							<polygon class="st10" points="56.3,29.9 64.3,32.1 64.2,32.4 56.3,30.2 							"/>
							<polygon class="st11" points="56.3,29.6 64.3,31.9 64.3,32.1 56.3,29.9 							"/>
							<polygon class="st12" points="56.3,29.4 64.4,31.6 64.3,31.9 56.3,29.6 							"/>
							<polygon class="st13" points="56.3,29.1 64.5,31.4 64.4,31.6 56.3,29.4 							"/>
							<polygon class="st14" points="56.3,28.8 64.5,31.1 64.5,31.4 56.3,29.1 							"/>
							<polygon class="st15" points="56.3,28.5 64.6,30.8 64.5,31.1 56.3,28.8 							"/>
							<polygon class="st16" points="56.3,28.2 64.7,30.6 64.6,30.8 56.3,28.5 							"/>
							<polygon class="st17" points="56.3,28 64.8,30.3 64.7,30.6 56.3,28.2 							"/>
							<polygon class="st18" points="56.3,27.7 64.8,30.1 64.8,30.3 56.3,28 							"/>
							<polygon class="st19" points="56.3,27.4 64.9,29.8 64.8,30.1 56.3,27.7 							"/>
							<polygon class="st20" points="56.3,27.1 65,29.5 64.9,29.8 56.3,27.4 							"/>
							<polygon class="st21" points="56.3,26.8 65.1,29.3 65,29.5 56.3,27.1 							"/>
							<polygon class="st22" points="56.3,26.7 56.4,26.6 65.1,29 65.1,29.3 56.3,26.8 							"/>
							
								<rect x="60.6" y="23.1" transform="matrix(0.2682 -0.9634 0.9634 0.2682 17.8307 78.7988)" class="st23" width="0.3" height="9.1"/>
							
								<rect x="60.7" y="22.9" transform="matrix(0.2682 -0.9634 0.9634 0.2682 18.134 78.6783)" class="st24" width="0.3" height="9.1"/>
							
								<rect x="60.8" y="22.6" transform="matrix(0.2682 -0.9634 0.9634 0.2682 18.4374 78.5578)" class="st25" width="0.3" height="9.1"/>
							
								<rect x="60.9" y="22.3" transform="matrix(0.2682 -0.9634 0.9634 0.2682 18.7408 78.4373)" class="st26" width="0.3" height="9.1"/>
							
								<rect x="60.9" y="22.1" transform="matrix(0.2682 -0.9634 0.9634 0.2682 19.0442 78.3168)" class="st27" width="0.3" height="9.1"/>
							
								<rect x="61" y="21.8" transform="matrix(0.2682 -0.9634 0.9634 0.2682 19.3475 78.1963)" class="st28" width="0.3" height="9.1"/>
							
								<rect x="61.1" y="21.6" transform="matrix(0.2682 -0.9634 0.9634 0.2682 19.6509 78.0757)" class="st29" width="0.3" height="9.1"/>
							
								<rect x="61.2" y="21.3" transform="matrix(0.2682 -0.9634 0.9634 0.2682 19.9543 77.9552)" class="st30" width="0.3" height="9.1"/>
							
								<rect x="61.2" y="21" transform="matrix(0.2682 -0.9634 0.9634 0.2682 20.2577 77.8347)" class="st31" width="0.3" height="9.1"/>
							
								<rect x="61.3" y="20.8" transform="matrix(0.2682 -0.9634 0.9634 0.2682 20.561 77.7142)" class="st32" width="0.3" height="9.1"/>
							
								<rect x="61.4" y="20.5" transform="matrix(0.2682 -0.9634 0.9634 0.2682 20.8644 77.5937)" class="st33" width="0.3" height="9.1"/>
							
								<rect x="61.4" y="20.3" transform="matrix(0.2682 -0.9634 0.9634 0.2682 21.1678 77.4732)" class="st34" width="0.3" height="9.1"/>
							
								<rect x="61.5" y="20" transform="matrix(0.2682 -0.9634 0.9634 0.2682 21.4712 77.3527)" class="st35" width="0.3" height="9.1"/>
							
								<rect x="61.6" y="19.7" transform="matrix(0.2682 -0.9634 0.9634 0.2682 21.7745 77.2321)" class="st36" width="0.3" height="9.1"/>
							
								<rect x="61.7" y="19.5" transform="matrix(0.2682 -0.9634 0.9634 0.2682 22.0779 77.1116)" class="st37" width="0.3" height="9.1"/>
							
								<rect x="61.7" y="19.2" transform="matrix(0.2682 -0.9634 0.9634 0.2682 22.3813 76.9911)" class="st38" width="0.3" height="9.1"/>
							
								<rect x="61.8" y="19" transform="matrix(0.2682 -0.9634 0.9634 0.2682 22.6847 76.8706)" class="st39" width="0.3" height="9.1"/>
							
								<rect x="61.9" y="18.7" transform="matrix(0.2682 -0.9634 0.9634 0.2682 22.988 76.7501)" class="st40" width="0.3" height="9.1"/>
							
								<rect x="61.9" y="18.4" transform="matrix(0.2682 -0.9634 0.9634 0.2682 23.2914 76.6296)" class="st41" width="0.3" height="9.1"/>
							
								<rect x="62" y="18.2" transform="matrix(0.2682 -0.9634 0.9634 0.2682 23.5948 76.5091)" class="st42" width="0.3" height="9.1"/>
							
								<rect x="62.1" y="17.9" transform="matrix(0.2682 -0.9634 0.9634 0.2682 23.8982 76.3885)" class="st43" width="0.3" height="9.1"/>
							
								<rect x="62.2" y="17.7" transform="matrix(0.2682 -0.9634 0.9634 0.2682 24.2015 76.268)" class="st44" width="0.3" height="9.1"/>
							
								<rect x="62.2" y="17.4" transform="matrix(0.2682 -0.9634 0.9634 0.2682 24.5049 76.1475)" class="st44" width="0.3" height="9.1"/>
							
								<rect x="62.3" y="17.1" transform="matrix(0.2682 -0.9634 0.9634 0.2682 24.8083 76.027)" class="st45" width="0.3" height="9.1"/>
							
								<rect x="62.4" y="16.9" transform="matrix(0.2682 -0.9634 0.9634 0.2682 25.1117 75.9065)" class="st45" width="0.3" height="9.1"/>
							
								<rect x="62.5" y="16.6" transform="matrix(0.2682 -0.9634 0.9634 0.2682 25.415 75.786)" class="st46" width="0.3" height="9.1"/>
							
								<rect x="62.5" y="16.4" transform="matrix(0.2682 -0.9634 0.9634 0.2682 25.7184 75.6655)" class="st46" width="0.3" height="9.1"/>
							
								<rect x="62.6" y="16.1" transform="matrix(0.2682 -0.9634 0.9634 0.2682 26.0218 75.545)" class="st46" width="0.3" height="9.1"/>
							
								<rect x="62.7" y="15.8" transform="matrix(0.2682 -0.9634 0.9634 0.2682 26.3252 75.4244)" class="st47" width="0.3" height="9.1"/>
							
								<rect x="62.7" y="15.6" transform="matrix(0.2682 -0.9634 0.9634 0.2682 26.6285 75.3039)" class="st47" width="0.3" height="9.1"/>
							
								<rect x="62.8" y="15.3" transform="matrix(0.2682 -0.9634 0.9634 0.2682 26.9319 75.1834)" class="st47" width="0.3" height="9.1"/>
							
								<rect x="62.9" y="15.1" transform="matrix(0.2682 -0.9634 0.9634 0.2682 27.2353 75.0629)" class="st48" width="0.3" height="9.1"/>
							
								<rect x="63" y="14.8" transform="matrix(0.2682 -0.9634 0.9634 0.2682 27.5387 74.9424)" class="st48" width="0.3" height="9.1"/>
							
								<rect x="63" y="14.5" transform="matrix(0.2682 -0.9634 0.9634 0.2682 27.842 74.8219)" class="st48" width="0.3" height="9.1"/>
							
								<rect x="63.1" y="14.3" transform="matrix(0.2682 -0.9634 0.9634 0.2682 28.1454 74.7014)" class="st48" width="0.3" height="9.1"/>
							
								<rect x="63.2" y="14" transform="matrix(0.2682 -0.9634 0.9634 0.2682 28.4488 74.5808)" class="st48" width="0.3" height="9.1"/>
							
								<rect x="63.3" y="13.8" transform="matrix(0.2682 -0.9634 0.9634 0.2682 28.7522 74.4603)" class="st49" width="0.3" height="9.1"/>
							
								<rect x="63.3" y="13.5" transform="matrix(0.2682 -0.9634 0.9634 0.2682 29.0555 74.3398)" class="st50" width="0.3" height="9.1"/>
							
								<rect x="63.4" y="13.2" transform="matrix(0.2682 -0.9634 0.9634 0.2682 29.3589 74.2193)" class="st50" width="0.3" height="9.1"/>
							
								<rect x="63.5" y="13" transform="matrix(0.2682 -0.9634 0.9634 0.2682 29.6623 74.0988)" class="st50" width="0.3" height="9.1"/>
							
								<rect x="63.5" y="12.7" transform="matrix(0.2682 -0.9634 0.9634 0.2682 29.9657 73.9783)" class="st50" width="0.3" height="9.1"/>
							
								<rect x="63.6" y="12.5" transform="matrix(0.2682 -0.9634 0.9634 0.2682 30.269 73.8578)" class="st50" width="0.3" height="9.1"/>
							
								<rect x="63.7" y="12.2" transform="matrix(0.2682 -0.9634 0.9634 0.2682 30.5724 73.7373)" class="st50" width="0.3" height="9.1"/>
							<polygon class="st50" points="59.5,15.4 59.5,15.4 60.5,15.4 68.3,17.6 68.3,17.8 68.2,17.8 							"/>
							<polygon class="st50" points="61.5,15.4 68.3,17.3 68.3,17.6 60.5,15.4 							"/>
							<polygon class="st50" points="62.5,15.4 68.3,17 68.3,17.3 61.5,15.4 							"/>
							<polygon class="st50" points="63.5,15.4 68.3,16.7 68.3,17 62.5,15.4 							"/>
							<polygon class="st50" points="68.3,16.7 63.5,15.4 68.3,15.4 							"/>
						</g>
					</g>
				</g>
				<g>
					<g>
						<path class="st51" d="M67.5,16.5c0.5,0.1,1,0.3,1.4,0.5c4.1,2,5.7,7.2,3.5,11.6c-1.9,3.9-6,5.9-9.8,5c0.2,0.1,0.4,0.1,0.5,0.2
							c4.4,1.2,9.1-1.6,10.4-6.4c1.3-4.7-1.2-9.6-5.6-10.8C67.9,16.6,67.7,16.5,67.5,16.5z"/>
					</g>
				</g>
				<g>
					<g>
						<path class="st2" d="M68,16.6c-4.4-1.2-9.1,1.6-10.4,6.4c-1.3,4.7,1.2,9.6,5.6,10.8c4.4,1.2,9.1-1.6,10.4-6.4
							C74.9,22.7,72.4,17.8,68,16.6z M68.9,21.1c0.1-0.4,0.5-0.6,0.8-0.5c0.3,0.1,0.5,0.5,0.4,0.9c-0.1,0.4-0.5,0.6-0.8,0.5
							C69,21.9,68.8,21.5,68.9,21.1z M66.7,22.4c0.3,0.1,0.5,0.5,0.4,0.9c-0.1,0.4-0.5,0.6-0.8,0.5c-0.3-0.1-0.5-0.5-0.4-0.9
							C66,22.6,66.4,22.3,66.7,22.4z M59.7,23.8c0.1-0.4,0.5-0.6,0.8-0.5c0.3,0.1,0.5,0.5,0.4,0.9c-0.1,0.4-0.5,0.6-0.8,0.5
							C59.8,24.6,59.6,24.2,59.7,23.8z M62.5,29.1c-0.2,0.7-0.9,1.2-1.6,1c-0.7-0.2-1.1-1-0.9-1.7c0.2-0.7,0.9-1.2,1.6-1
							C62.3,27.6,62.7,28.3,62.5,29.1z M63.5,25.4c-0.1,0.4-0.5,0.6-0.8,0.5c-0.3-0.1-0.5-0.5-0.4-0.9c0.1-0.4,0.5-0.6,0.8-0.5
							C63.4,24.6,63.6,25,63.5,25.4z M62.3,20c0.3-1.1,1.4-1.7,2.4-1.4c1,0.3,1.6,1.4,1.3,2.5c-0.3,1.1-1.4,1.7-2.4,1.4
							C62.6,22.2,62,21.1,62.3,20z M65.2,31.6c-0.1,0.4-0.5,0.6-0.8,0.5c-0.3-0.1-0.5-0.5-0.4-0.9c0.1-0.4,0.5-0.6,0.8-0.5
							C65.1,30.8,65.3,31.2,65.2,31.6z M67.3,27.5c-0.2,0.7-0.9,1.2-1.6,1c-0.7-0.2-1.1-1-0.9-1.7c0.2-0.7,0.9-1.2,1.6-1
							C67.1,26,67.5,26.8,67.3,27.5z M69.1,29.4c-0.1,0.4-0.5,0.6-0.8,0.5c-0.3-0.1-0.5-0.5-0.4-0.9c0.1-0.4,0.5-0.6,0.8-0.5
							C69,28.6,69.2,29,69.1,29.4z M71.1,25.4c-0.2,0.7-0.9,1.1-1.5,0.9c-0.6-0.2-1-0.9-0.8-1.6c0.2-0.7,0.9-1.1,1.5-0.9
							C71,24,71.3,24.7,71.1,25.4z"/>
					</g>
				</g>
			</g>
		</g>
		<g>
			<g>
				<path class="st2" d="M108.6,19.1c-0.7-0.4-1-0.6-1-0.6l-0.1-0.4c-0.2-1.8-1.4-0.8-1.4-0.8s-0.5,0.9-0.3,1.4l0.1,0.1
					c-0.5,0-1,0.2-1.4,0.6c0,0-1.7,2.8-3.8,5c-2.1,2.2-5.2,4.1-5.2,4.1c-0.3,0.3-0.5,0.7-0.5,1.1c-0.2,0-0.4,0-0.5,0l-0.5,0.2
					c-0.5,0.2-1.2,0.8-0.5,1.2c0.7,0.4,1,0.6,1,0.6l0.1,0.4c0.2,1.8,1.4,0.8,1.4,0.8s0.2-0.5,0.3-0.9c0.9,0.2,2-0.4,2-0.4
					s2.7-1.5,4.9-3.7c2.2-2.2,4.2-5.4,4.2-5.4c0.5-0.7,0.7-1.3,0.5-1.9l0.3-0.1C108.6,20.1,109.3,19.5,108.6,19.1z M106.4,22.5
					c0,0-2,3.4-4.6,5.5c0,0-0.1,0.1-0.1,0.1c-0.1,0-0.1,0-0.2-0.1c-0.1-0.1-0.1-0.2,0-0.3c0.5-0.4,0.9-0.8,1.3-1.2l1.9-2.3
					c0.8-1,1.2-1.8,1.3-1.9c0.1-0.1,0.2-0.1,0.3-0.1C106.4,22.3,106.5,22.4,106.4,22.5z"/>
			</g>
			<g>
				<path class="st2" d="M102.8,26.4c0.7-0.8,1.4-1.6,1.9-2.3L102.8,26.4z"/>
			</g>
		</g>
	</g>
</g>
</svg>
