<?xml version="1.0" encoding="utf-8"?>
<!-- Generator: Adobe Illustrator 21.0.1, SVG Export Plug-In . SVG Version: 6.00 Build 0)  -->
<svg version="1.1" id="Layer_1" xmlns="http://www.w3.org/2000/svg" xmlns:xlink="http://www.w3.org/1999/xlink" x="0px" y="0px"
	 viewBox="0 0 500 500" style="enable-background:new 0 0 500 500;" xml:space="preserve">
<style type="text/css">
	.st0{fill:#F04B45;}
	.st1{fill:#F6D376;}
	.st2{fill:url(#SVGID_1_);}
	.st3{fill:#FB1200;}
	.st4{fill:url(#SVGID_2_);}
	.st5{fill:url(#SVGID_3_);}
	.st6{fill:url(#SVGID_4_);}
	.st7{fill:#FF5337;}
	.st8{fill:url(#SVGID_5_);}
	.st9{fill:url(#SVGID_6_);}
	.st10{fill:url(#SVGID_7_);}
	.st11{fill:url(#SVGID_8_);}
	.st12{fill:url(#SVGID_9_);}
	.st13{fill:url(#SVGID_10_);}
	.st14{fill:url(#SVGID_11_);}
	.st15{fill:url(#SVGID_12_);}
	.st16{fill:url(#SVGID_13_);}
	.st17{fill:url(#SVGID_14_);}
	.st18{fill:url(#SVGID_15_);}
	.st19{fill:url(#SVGID_16_);}
	.st20{fill:url(#SVGID_17_);}
	.st21{fill:url(#SVGID_18_);}
	.st22{fill:url(#SVGID_19_);}
	.st23{fill:url(#SVGID_20_);}
	.st24{fill:url(#SVGID_21_);}
	.st25{fill:url(#SVGID_22_);}
	.st26{fill:url(#SVGID_23_);}
	.st27{fill:url(#SVGID_24_);}
	.st28{fill:url(#SVGID_25_);}
	.st29{fill:url(#SVGID_26_);}
	.st30{fill:url(#SVGID_27_);}
	.st31{fill:url(#SVGID_28_);}
	.st32{fill:url(#SVGID_29_);}
	.st33{fill:url(#SVGID_30_);}
	.st34{fill:url(#SVGID_31_);}
	.st35{fill:url(#SVGID_32_);}
	.st36{fill:url(#SVGID_33_);}
	.st37{fill:url(#SVGID_34_);}
	.st38{fill:url(#SVGID_35_);}
	.st39{fill:url(#SVGID_36_);}
	.st40{fill:url(#SVGID_37_);}
	.st41{fill:url(#SVGID_38_);}
	.st42{fill:url(#SVGID_39_);}
	.st43{fill:url(#SVGID_40_);}
</style>
<g>
	<path id="XMLID_182_" class="st0" d="M422.3,261.5c-0.5-2.2-2.6-3.8-4.9-3.8h-33.5c-9.4,5.3-20.3,8.3-30.8,8.3
		c-17,0-32-7.1-44.3-18.3c-6.3-5.8-10.8-13-13.7-20.9c-1.4-3.6-1.9-7.6-1.8-11.4c0.2-9.4-0.7-31.4-12-55.1
		c-6.6-13.8-13.3-21.6-18.8-25.9c-2.1-1.6-4.4-2.6-6.9-2.8c0.4-1.3,0.6-2.7,0.6-4.2v-12.3c0-8.9-7.3-16.2-16.2-16.2
		c-11.5,0-17.2,6.6-17.2,8.3v0.7h-6.5c-1.5,0-2.8,0.9-3.2,2.3c-0.6,2.1,1,4.1,3.1,4.1h6.6v14.3c0,6,3.8,11.5,9.6,13.1
		c0.1,0,0.1,0,0.2,0c1.7,0.9,3.6,1.5,5.5,1.7c-1.9,3.2-2.5,7-1.4,10.6l1.1,3.6c1.1,3.8,0.6,7.9-1.4,11.3l-2.6,4.6
		c-3,5.1-7.4,9.2-12.8,11.7l-4.5,2.1l-9.4-10.7l-4.3-10.4c-1.5-3.6-5-6-8.7-6h-10.5c-3.5,0-6.7,1.9-8.3,5l-7.1,13.8
		c-2,3.9,1.1,8.9,5.5,8.9h3.6l-6.2,7.3c-2,2.3-3.7,4.9-5.1,7.7l-16.5,33.4H134c-2.8-5.4-8.3-8.7-14-8.3l-1.1,0.1l-0.9,28.2l-2.7,1
		c-7.1,2.7-12.6,8.2-15.5,15.4l-2.1,5.1l11.4,1.7c-9.5,7.3-15.2,19.3-14.1,32.9c1.7,22.2,20.6,40.1,42.1,40.1
		c21.6,0,37.6-18,35.9-40.1c-0.7-9.3-4.4-17.8-10.1-24.6l5.9,0.9l17.6,35.3c3.3,6.7,10,10.9,17.1,10.9h64c4.6,0,8.9-2.1,11.7-5.7
		l5-6.6c5.9,6.1,13.9,9.5,21.9,9.5h10.7l-0.1-4.9c6.3,16.2,21.9,27.8,39.3,27.8c21.5,0,37.6-18,35.9-40.2
		c-1.7-22.2-20.6-40.1-42.1-40.1c-15.8,0-28.6,9.6-33.7,23.5l-0.2-8.5c-0.2-6.9,4.5-12.6,11.1-13.5l29.7-4.3
		c9.1-1.3,18.6,2.8,24.6,10.6l7.6,11.1c2.4,3.4,7.7,1,6.6-3l-6.2-23.2h28.2C420.5,267.4,422.9,264.6,422.3,261.5z M152.1,319.7
		c-1.7,9.3-10.6,15-19.8,12.8s-15.3-11.6-13.6-21c1.7-9.3,10.6-15,19.8-12.8C147.7,301.1,153.8,310.4,152.1,319.7z M255.4,282.3
		l-3.6,6.4c-1.3,2.3-3.7,3.8-6.5,3.8l-25.2,0.4l10.4-41.2c1.9-4.4,4.4-8.4,7.5-11.9l-0.9,1.4c-2.9,4.7,1.1,11.3,6.7,11l4.4-0.3
		l-0.1,0.1c-3.1,4.8-2.4,11.5,1.7,16.1c1.6,1.8,3.3,3.8,4.6,5.5C256.5,276.1,256.8,279.6,255.4,282.3z M259,199.1l-19.5,1.9
		c-12.3,4.3-22.1,13.8-26.6,26.1l-13.8,63c-1-1.1-1.8-2.5-2.1-4l-5.8-24c-1.1-4.4-1.5-8.8-1.5-13.2l0.8-41.4c0.1-2.9,1-5.7,2.6-7.9
		l11.1-15.2l5.5,6.5l9.2,11.8l2.5-1.2c11-5.3,16.7-5.1,27.6-23.2l2.6-3.6l10.3,16.4C263.8,193.9,262.4,197.9,259,199.1z
		 M337.2,311.6c1.7-9.3,10.6-15,19.8-12.8c9.2,2.3,15.3,11.6,13.6,21c-1.7,9.3-10.6,15-19.8,12.8
		C341.5,330.2,335.4,320.9,337.2,311.6z"/>
	<g>
		<path class="st0" d="M311,207.9c0,7,1.7,13.5,4.8,19.2l32.2-18.6l-32.7-18.9C312.6,195.1,311,201.3,311,207.9L311,207.9z
			 M321.2,217.9c-1,0.5-2.1,0.8-3.2,1.1c-0.5,0.1-1.8,0.3-2-0.4c-0.2-0.7,1.1-1.2,1.5-1.3c0.8-0.2,1.5-0.4,2.3-0.8
			c0.6-0.3,1.8-0.5,2.3,0C322.7,217.1,321.6,217.8,321.2,217.9L321.2,217.9z M335.2,205.3c1.5,0,2.8,1.2,2.8,2.8s-1.2,2.8-2.8,2.8
			s-2.8-1.2-2.8-2.8S333.6,205.3,335.2,205.3L335.2,205.3z M327.5,209.5c0,2.3-1.9,4.2-4.2,4.2c-2.3,0-4.2-1.9-4.2-4.2
			s1.9-4.1,4.2-4.1C325.7,205.3,327.5,207.2,327.5,209.5L327.5,209.5z M319.2,195.2c1.5,0,2.8,1.2,2.8,2.8s-1.2,2.8-2.8,2.8
			c-1.5,0-2.8-1.2-2.8-2.8S317.7,195.2,319.2,195.2L319.2,195.2z M314.1,207.1c-2.4,0,0.3-1.7,1.4-1.7
			C317.9,205.4,315.2,207.1,314.1,207.1L314.1,207.1z M314.1,207.1"/>
		<path class="st0" d="M349.8,165.2v-7.3c-17.2,0.6-32.2,10-40.7,23.8l6.3,3.7C322.7,173.7,335.3,165.8,349.8,165.2L349.8,165.2z
			 M349.8,165.2"/>
		<path class="st0" d="M391.6,179.8l6.3-3.7c-8.5-13.8-23.5-23.1-40.8-23.8v7.3C371.7,160.4,384.3,168.2,391.6,179.8L391.6,179.8z
			 M391.6,179.8"/>
		<path class="st0" d="M393.8,234.8l-6.3-3.7c-7.3,11.2-19.8,18.8-34,19.4v7.3C370.4,257.3,385.2,248.2,393.8,234.8L393.8,234.8z
			 M393.8,234.8"/>
		<path class="st0" d="M389.7,188.5c3,5.8,4.7,12.4,4.7,19.4c0,7.3-1.8,14.1-5,20.1l6.3,3.7c3.8-7.1,6-15.2,6-23.8
			c0-8.3-2-16.1-5.6-23L389.7,188.5z M389.7,188.5"/>
		<path class="st0" d="M314,228c-3.2-6-5-12.8-5-20.1c0-7,1.7-13.6,4.7-19.4l-6.3-3.7c-3.6,6.9-5.6,14.7-5.6,23
			c0,8.6,2.2,16.7,6,23.8L314,228z M314,228"/>
		<path class="st0" d="M349.8,257.9v-7.3c-14.2-0.6-26.7-8.2-34-19.4l-6.3,3.7C318.1,248.2,332.9,257.3,349.8,257.9L349.8,257.9z
			 M349.8,257.9"/>
		<path class="st0" d="M349.8,167.3c-13.8,0.6-25.8,8.1-32.7,19.2l32.7,18.9V167.3z M329.7,187.6c-2.3,0-4.1-1.9-4.1-4.1
			s1.9-4.1,4.1-4.1c2.3,0,4.2,1.9,4.2,4.1S332,187.6,329.7,187.6L329.7,187.6z M342.1,195.2c-1.5,0-2.8-1.2-2.8-2.8
			c0-1.5,1.2-2.8,2.8-2.8s2.8,1.2,2.8,2.8C344.8,193.9,343.6,195.2,342.1,195.2L342.1,195.2z M342,184.9c-0.5-0.7-1.1-1-1.9-1.2
			c-0.8-0.2-1-1.1-0.4-1.7c0.6-0.7,1.6-0.9,2.5-0.7c1.2,0.3,2.3,1,3.1,2C346.3,184.7,342.9,186.1,342,184.9L342,184.9z M343.3,178.3
			c-1.5,0-2.8-1.2-2.8-2.8c0-1.5,1.2-2.8,2.8-2.8s2.8,1.2,2.8,2.8C346.1,177.1,344.9,178.3,343.3,178.3L343.3,178.3z M343.3,178.3"
			/>
		<path class="st0" d="M392.3,207.9c0-6.6-1.6-12.8-4.3-18.2l-32.7,18.9l32.2,18.6C390.6,221.4,392.3,214.8,392.3,207.9L392.3,207.9
			z M386.8,196.1c2.4,0-0.4,1.6-1.5,1.6C383,197.7,385.8,196.1,386.8,196.1L386.8,196.1z M369.6,211.1c-1.5,0-2.8-1.2-2.8-2.8
			s1.2-2.8,2.8-2.8c1.5,0,2.8,1.2,2.8,2.8S371.1,211.1,369.6,211.1L369.6,211.1z M377.2,205.6c1.7,0-1.6,1.4-2.3,1.4
			C373.1,207,376.4,205.6,377.2,205.6L377.2,205.6z M375.6,214.7c-2.4,0,0-2.1,1.3-2.1C379.3,212.5,377,214.7,375.6,214.7
			L375.6,214.7z M382.9,221.6c-1.5,0-2.8-1.2-2.8-2.8c0-1.5,1.2-2.8,2.8-2.8s2.8,1.2,2.8,2.8C385.6,220.3,384.4,221.6,382.9,221.6
			L382.9,221.6z M384.2,210.7c-2.3,0-4.2-1.9-4.2-4.2c0-2.3,1.9-4.2,4.2-4.2c2.3,0,4.2,1.9,4.2,4.2
			C388.4,208.8,386.5,210.7,384.2,210.7L384.2,210.7z M384.2,210.7"/>
		<path class="st0" d="M349.8,248.5v-36.8l-32.1,18.6C324.7,240.8,336.4,247.9,349.8,248.5L349.8,248.5z M344,245.6
			c-2.4,0,0.2-1.8,1.4-1.8C347.8,243.7,345.2,245.6,344,245.6L344,245.6z M343.3,221.6c1.5,0,2.8,1.2,2.8,2.8s-1.2,2.8-2.8,2.8
			s-2.8-1.2-2.8-2.8S341.8,221.6,343.3,221.6L343.3,221.6z M336.2,228c2.4,0,0.1,2.2-1.3,2.2C332.5,230.2,334.8,228,336.2,228
			L336.2,228z M337.9,231.7c2.3,0,4.2,1.9,4.2,4.2c0,2.3-1.9,4.2-4.2,4.2c-2.3,0-4.2-1.9-4.2-4.2
			C333.8,233.5,335.6,231.7,337.9,231.7L337.9,231.7z M326.1,228.5c1.5,0,2.8,1.2,2.8,2.8s-1.2,2.8-2.8,2.8s-2.8-1.2-2.8-2.8
			S324.6,228.5,326.1,228.5L326.1,228.5z M326.1,228.5"/>
		<path class="st0" d="M385.6,230.2l-32.2-18.6v36.8C366.9,247.9,378.7,240.8,385.6,230.2L385.6,230.2z M359.4,242.7
			c-1.5,0-2.8-1.2-2.8-2.8s1.2-2.8,2.8-2.8s2.8,1.2,2.8,2.8S361,242.7,359.4,242.7L359.4,242.7z M361.3,231.2
			c-2.3,0-4.1-1.9-4.1-4.2c0-2.3,1.9-4.1,4.1-4.1c2.3,0,4.2,1.9,4.2,4.1C365.5,229.4,363.6,231.2,361.3,231.2L361.3,231.2z
			 M365.5,237.4c-1.7,0,1.6-1.4,2.3-1.4C369.5,236,366.2,237.4,365.5,237.4L365.5,237.4z M375.9,234.4c-1.5,0-2.8-1.2-2.8-2.8
			s1.2-2.8,2.8-2.8c1.5,0,2.8,1.2,2.8,2.8S377.5,234.4,375.9,234.4L375.9,234.4z M375.9,234.4"/>
		<path class="st0" d="M357.2,161.8v38.1l32.7-18.9C383,169.9,371,162.4,357.2,161.8L357.2,161.8z M367.7,167.3
			c1.5,0,2.8,1.2,2.8,2.8s-1.2,2.8-2.8,2.8s-2.8-1.2-2.8-2.8S366.2,167.3,367.7,167.3L367.7,167.3z M361.8,164.7
			c2.4,0,0.2,2.3-1.3,2.3C358.1,167,360.3,164.7,361.8,164.7L361.8,164.7z M363.6,190.5c-2.3,0-4.1-1.9-4.1-4.1
			c0-2.3,1.9-4.2,4.1-4.2c2.3,0,4.2,1.9,4.2,4.2C367.7,188.6,365.9,190.5,363.6,190.5L363.6,190.5z M367.8,178.1
			c-0.7,0.6-1.8,0.7-2.5,0.2c-0.8-0.5-1.8-0.7-2.7-0.8c-0.8-0.2-1.5-0.7-1.1-1.6c0.3-0.8,1.4-1.3,2.3-1.1c1.5,0.3,2.9,0.6,4.2,1.4
			C368.7,176.7,368.4,177.7,367.8,178.1L367.8,178.1z M370.1,184.6c-2.4,0-0.3-2.4,1.3-2.4C373.8,182.3,371.7,184.6,370.1,184.6
			L370.1,184.6z M375.9,180.8c-1.5,0-2.8-1.2-2.8-2.8c0-1.5,1.2-2.8,2.8-2.8c1.5,0,2.8,1.2,2.8,2.8
			C378.7,179.5,377.5,180.8,375.9,180.8L375.9,180.8z M380.8,179.6c-1.7,0,1.6-1.4,2.3-1.4C384.8,178.2,381.5,179.6,380.8,179.6
			L380.8,179.6z M380.8,179.6"/>
	</g>
	<path class="st1" d="M99.9,344.3c0,0-0.1,2.6,4.3,4s6.8,7.2,10.6,7.7s10.4,3,15.1,1.9c4.7-1.2,8.9,0.5,13-1.8
		c4.2-2.3,13.3-4,19.8-4.6s2.9-6.3,0.9-5c-2,1.3-9.1,4-11.8,4.2c-2.7,0.2-6.3,1.2-13.3,1.7c-7.1,0.5-10.8-2.3-8.8-3.6
		c2-1.3,2-5-1-4.4c-3,0.6-9.9,0-13-3.2c-3.1-3.2-3.4-4.4-7.4-8.3s-4.4-3.3-6.8-8.2c-2.4-4.9-9-5.1-7.4-0.8c1.5,4.4,1.6,4.3,1.4,7.3
		C95.2,334.3,99.9,344.3,99.9,344.3z"/>
	<path class="st1" d="M185.4,319.1c0,0,2.8,7.3,8.9,7.3s9.1,7.1,18.5,6.6c9.4-0.4,8.2,1.8,19.7,0c11.5-1.7,12.9-3.2,23.8-1.1
		s15.4,3.8,23.3,2.8s12.6,4.9,6.4,4.8c-6.2-0.1-8.3-2.9-13.7-2.4c-5.3,0.4-10.7,4.7-18.2,3.2c-7.6-1.5-9.3-2.6-19.9-1.7
		c-10.7,0.9-10.2-0.7-23,1s-8.3,5.7-2.1,5.2s17.7-2.8,14.7,1.1s-7.5,0.2-12.4,1.1c-4.9,0.9-9.7-0.8-13-7.4s-7.9-0.9-11.5-6.1
		c-3.6-5.3-6.1-20.9-6.1-20.9L185.4,319.1z"/>
	<path class="st1" d="M360.4,342.2c0,0,1.5-1.5,9.2-1.1s10.3,1.6,15.1-0.1s10.9-5.3,17.8-6.1c6.8-0.9,20.3-5.5,18.8-1.9
		c-1.5,3.6-11.1,0.6-14.5,3c-3.4,2.3-0.6,6.8,3.8,6.2c4.5-0.6,20.3-8.5,24.5-5.2c4.3,3.3-7.3,1-10.2,2.9c-3,1.9-11.5,9.2-17.7,8.7
		c-6.2-0.4-3.8-3-14.5,1.7s-8.7,3.6-17.7,4.9c-9,1.3-6.4,3.4-19.2,2.8c-12.8-0.6-14.5-0.4-21.5-4.9c-7-4.5-11.5-3.5-10.6-8.2
		s-4.2-11.9-4.2-11.9s4.3-1.3,7.3,3c3,4.3,2.6,9,8.3,8.9s6.8-3.8,11.9-2.1C352.1,344.5,360.4,342.2,360.4,342.2z"/>
	<path class="st1" d="M393.9,330c0,0,2.3-2.2,7.9-3.7c5.5-1.5,14.5-3.4,16.2-3.8c1.7-0.4,3.2,1.9,0,2.6S397.9,328.7,393.9,330z"/>
	<g>
		
			<linearGradient id="SVGID_1_" gradientUnits="userSpaceOnUse" x1="254.0209" y1="389.8216" x2="260.2911" y2="389.8216" gradientTransform="matrix(0.2682 -0.9634 0.9634 0.2682 -46.2882 481.6592)">
			<stop  offset="0" style="stop-color:#FFAE30"/>
			<stop  offset="1" style="stop-color:#FF7233"/>
		</linearGradient>
		<path class="st2" d="M399.1,335.4c1.5,0.4,2.4,2.1,2,3.8c-0.5,1.7-2.1,2.7-3.6,2.2c-1.5-0.4-2.4-2.1-2-3.8
			C395.9,336,397.5,335,399.1,335.4z"/>
		<g>
			
				<ellipse transform="matrix(0.2682 -0.9634 0.9634 0.2682 -35.011 631.3192)" class="st3" cx="398.1" cy="338.7" rx="3.1" ry="2.9"/>
			<g>
				
					<linearGradient id="SVGID_2_" gradientUnits="userSpaceOnUse" x1="253.7406" y1="388.2957" x2="260.011" y2="388.2957" gradientTransform="matrix(0.2682 -0.9634 0.9634 0.2682 -46.2882 481.6592)">
					<stop  offset="0" style="stop-color:#FB1200;stop-opacity:0"/>
					<stop  offset="9.790792e-02" style="stop-color:#FC2010;stop-opacity:9.810442e-02"/>
					<stop  offset="0.2783" style="stop-color:#FC3526;stop-opacity:0.2788"/>
					<stop  offset="0.4745" style="stop-color:#FC4436;stop-opacity:0.4754"/>
					<stop  offset="0.6962" style="stop-color:#FC4D3F;stop-opacity:0.6976"/>
					<stop  offset="0.998" style="stop-color:#FC5042"/>
				</linearGradient>
				<path class="st4" d="M395.4,338c0.5-1.6,2-2.6,3.6-2.3c0,0-0.1,0-0.1,0c-1.5-0.4-3.2,0.6-3.6,2.2c-0.5,1.7,0.4,3.4,2,3.8
					c0,0,0.1,0,0.1,0C395.8,341.3,395,339.6,395.4,338z"/>
			</g>
			
				<linearGradient id="SVGID_3_" gradientUnits="userSpaceOnUse" x1="256.8758" y1="392.2066" x2="256.8758" y2="387.2124" gradientTransform="matrix(0.2682 -0.9634 0.9634 0.2682 -46.2882 481.6592)">
				<stop  offset="0" style="stop-color:#FB1200;stop-opacity:0"/>
				<stop  offset="0.998" style="stop-color:#FC5042"/>
			</linearGradient>
			<path class="st5" d="M398.8,336.1c1.3,0.4,2.1,1.8,1.7,3.3c-0.4,1.4-1.8,2.3-3.1,1.9c-1.3-0.4-2.1-1.8-1.7-3.3
				C396,336.6,397.4,335.7,398.8,336.1z"/>
			
				<linearGradient id="SVGID_4_" gradientUnits="userSpaceOnUse" x1="257.9485" y1="392.2066" x2="257.9485" y2="387.2124" gradientTransform="matrix(0.2682 -0.9634 0.9634 0.2682 -46.2882 481.6592)">
				<stop  offset="0" style="stop-color:#FB1200;stop-opacity:0"/>
				<stop  offset="9.790792e-02" style="stop-color:#FC2010;stop-opacity:9.810442e-02"/>
				<stop  offset="0.2783" style="stop-color:#FC3526;stop-opacity:0.2788"/>
				<stop  offset="0.4745" style="stop-color:#FC4436;stop-opacity:0.4754"/>
				<stop  offset="0.6962" style="stop-color:#FC4D3F;stop-opacity:0.6976"/>
				<stop  offset="0.998" style="stop-color:#FC5042"/>
			</linearGradient>
			<path class="st6" d="M398.8,336.1c1.3,0.4,2.1,1.8,1.7,3.3c-0.4,1.4-0.9-0.9-2.2-1.3c-1.3-0.4-3,1.4-2.6,0
				C396,336.6,397.4,335.8,398.8,336.1z"/>
			<g>
				<path class="st3" d="M398.7,335.6c0.2,0,0.3,0.1,0.5,0.2c1.4,0.7,2,2.5,1.2,4.1c-0.7,1.4-2.1,2.1-3.4,1.7c0.1,0,0.1,0,0.2,0.1
					c1.5,0.4,3.2-0.6,3.6-2.2s-0.4-3.4-2-3.8C398.8,335.7,398.8,335.7,398.7,335.6z"/>
			</g>
			
				<ellipse transform="matrix(0.2683 -0.9633 0.9633 0.2683 -37.3538 630.6893)" class="st7" cx="396.5" cy="339.9" rx="0.5" ry="0.5"/>
			
				<ellipse transform="matrix(0.2682 -0.9634 0.9634 0.2682 -33.8136 629.5887)" class="st7" cx="397.5" cy="337.1" rx="0.7" ry="0.7"/>
			
				<ellipse transform="matrix(0.2682 -0.9634 0.9634 0.2682 -35.5812 631.9512)" class="st7" cx="398.2" cy="339.4" rx="0.5" ry="0.5"/>
			
				<ellipse transform="matrix(0.2683 -0.9633 0.9633 0.2683 -33.8814 632.721)" class="st7" cx="399.6" cy="338.7" rx="0.5" ry="0.4"/>
			
				<ellipse transform="matrix(0.2682 -0.9634 0.9634 0.2682 -35.7035 630.3804)" class="st7" cx="397.1" cy="338.7" rx="0.2" ry="0.2"/>
			
				<ellipse transform="matrix(0.2683 -0.9633 0.9633 0.2683 -35.9566 629.2037)" class="st7" cx="396.2" cy="338.3" rx="0.2" ry="0.2"/>
			
				<ellipse transform="matrix(0.2682 -0.9634 0.9634 0.2682 -37.377 632.5383)" class="st7" cx="397.7" cy="340.9" rx="0.2" ry="0.2"/>
			
				<ellipse transform="matrix(0.2683 -0.9633 0.9633 0.2683 -35.6379 633.2767)" class="st7" cx="399" cy="340.1" rx="0.2" ry="0.2"/>
			
				<ellipse transform="matrix(0.2682 -0.9634 0.9634 0.2682 -32.6863 631.6151)" class="st7" cx="399.4" cy="337.3" rx="0.2" ry="0.2"/>
			
				<ellipse transform="matrix(0.2683 -0.9633 0.9633 0.2683 -34.0745 631.0715)" class="st7" cx="398.4" cy="338" rx="0.2" ry="0.2"/>
		</g>
	</g>
	<g>
		
			<linearGradient id="SVGID_5_" gradientUnits="userSpaceOnUse" x1="605.779" y1="503.1518" x2="613.1021" y2="503.1518" gradientTransform="matrix(0.6559 -0.7549 0.7549 0.6559 -418.6291 484.7019)">
			<stop  offset="0" style="stop-color:#FFAE30"/>
			<stop  offset="1" style="stop-color:#FF7233"/>
		</linearGradient>
		<path class="st8" d="M363.3,351.9c1.4,1.2,1.5,3.5,0.2,5c-1.3,1.5-3.6,1.8-5,0.5c-1.4-1.2-1.5-3.5-0.2-5
			C359.7,350.9,361.9,350.7,363.3,351.9z"/>
		<g>
			
				<ellipse transform="matrix(0.656 -0.7548 0.7548 0.656 -143.7829 394.2882)" class="st3" cx="360.6" cy="354.9" rx="3.7" ry="3.4"/>
			<g>
				
					<linearGradient id="SVGID_6_" gradientUnits="userSpaceOnUse" x1="605.4517" y1="501.3697" x2="612.7748" y2="501.3697" gradientTransform="matrix(0.6559 -0.7549 0.7549 0.6559 -418.6291 484.7019)">
					<stop  offset="0" style="stop-color:#FB1200;stop-opacity:0"/>
					<stop  offset="9.790792e-02" style="stop-color:#FC2010;stop-opacity:9.810442e-02"/>
					<stop  offset="0.2783" style="stop-color:#FC3526;stop-opacity:0.2788"/>
					<stop  offset="0.4745" style="stop-color:#FC4436;stop-opacity:0.4754"/>
					<stop  offset="0.6962" style="stop-color:#FC4D3F;stop-opacity:0.6976"/>
					<stop  offset="0.998" style="stop-color:#FC5042"/>
				</linearGradient>
				<path class="st9" d="M358.2,352.8c1.3-1.5,3.5-1.8,4.9-0.6c0,0,0,0-0.1-0.1c-1.4-1.2-3.6-1-5,0.5c-1.3,1.5-1.3,3.8,0.2,5
					c0,0,0.1,0,0.1,0.1C357,356.4,356.9,354.3,358.2,352.8z"/>
			</g>
			
				<linearGradient id="SVGID_7_" gradientUnits="userSpaceOnUse" x1="609.1133" y1="505.9373" x2="609.1133" y2="500.1046" gradientTransform="matrix(0.6559 -0.7549 0.7549 0.6559 -418.6291 484.7019)">
				<stop  offset="0" style="stop-color:#FB1200;stop-opacity:0"/>
				<stop  offset="0.998" style="stop-color:#FC5042"/>
			</linearGradient>
			<path class="st10" d="M362.7,352.5c1.2,1.1,1.3,3,0.1,4.3c-1.1,1.3-3,1.5-4.3,0.5c-1.2-1.1-1.3-3-0.1-4.3
				C359.6,351.6,361.5,351.4,362.7,352.5z"/>
			
				<linearGradient id="SVGID_8_" gradientUnits="userSpaceOnUse" x1="610.3661" y1="505.9372" x2="610.3661" y2="500.1045" gradientTransform="matrix(0.6559 -0.7549 0.7549 0.6559 -418.6291 484.7019)">
				<stop  offset="0" style="stop-color:#FB1200;stop-opacity:0"/>
				<stop  offset="9.790792e-02" style="stop-color:#FC2010;stop-opacity:9.810442e-02"/>
				<stop  offset="0.2783" style="stop-color:#FC3526;stop-opacity:0.2788"/>
				<stop  offset="0.4745" style="stop-color:#FC4436;stop-opacity:0.4754"/>
				<stop  offset="0.6962" style="stop-color:#FC4D3F;stop-opacity:0.6976"/>
				<stop  offset="0.998" style="stop-color:#FC5042"/>
			</linearGradient>
			<path class="st11" d="M362.7,352.5c1.2,1.1,1.3,3,0.1,4.3c-1.1,1.3-0.5-1.4-1.7-2.5c-1.2-1.1-3.8,0-2.7-1.3
				C359.6,351.7,361.5,351.4,362.7,352.5z"/>
			<g>
				<path class="st3" d="M362.8,352c0.2,0.1,0.3,0.3,0.4,0.5c1.2,1.5,0.8,3.7-0.7,4.9c-1.4,1.1-3.3,1.1-4.5,0.1
					c0.1,0.1,0.1,0.1,0.2,0.2c1.4,1.2,3.6,1,5-0.5c1.3-1.5,1.3-3.8-0.2-5C363,352.1,362.9,352,362.8,352z"/>
			</g>
			
				<ellipse transform="matrix(0.656 -0.7547 0.7547 0.656 -144.952 392.7259)" class="st7" cx="358.4" cy="355.4" rx="0.6" ry="0.5"/>
			
				<ellipse transform="matrix(0.656 -0.7548 0.7548 0.656 -142.1729 393.7906)" class="st7" cx="360.9" cy="352.9" rx="0.8" ry="0.8"/>
			
				<ellipse transform="matrix(0.6559 -0.7548 0.7548 0.6559 -144.4539 394.4051)" class="st7" cx="360.4" cy="355.7" rx="0.6" ry="0.5"/>
			
				<ellipse transform="matrix(0.656 -0.7547 0.7547 0.656 -143.7706 395.7226)" class="st7" cx="362.3" cy="355.6" rx="0.5" ry="0.5"/>
			
				<ellipse transform="matrix(0.6559 -0.7548 0.7548 0.6559 -143.7538 393.3554)" class="st7" cx="359.6" cy="354.4" rx="0.3" ry="0.3"/>
			
				<ellipse transform="matrix(0.656 -0.7548 0.7548 0.656 -143.3338 392.4858)" class="st7" cx="358.9" cy="353.5" rx="0.3" ry="0.3"/>
			
				<ellipse transform="matrix(0.6559 -0.7548 0.7548 0.6559 -145.8752 393.8865)" class="st7" cx="359.1" cy="357" rx="0.3" ry="0.3"/>
			
				<ellipse transform="matrix(0.656 -0.7548 0.7548 0.656 -145.1479 395.2084)" class="st7" cx="361" cy="356.8" rx="0.3" ry="0.3"/>
			
				<ellipse transform="matrix(0.6559 -0.7548 0.7548 0.6559 -142.4645 395.6255)" class="st7" cx="362.7" cy="354.1" rx="0.3" ry="0.3"/>
			
				<ellipse transform="matrix(0.656 -0.7548 0.7548 0.656 -143.0725 394.593)" class="st7" cx="361.3" cy="354.2" rx="0.3" ry="0.3"/>
		</g>
	</g>
	<g>
		
			<linearGradient id="SVGID_9_" gradientUnits="userSpaceOnUse" x1="550.4974" y1="409.7905" x2="557.8204" y2="409.7905" gradientTransform="matrix(0.6559 -0.7549 0.7549 0.6559 -418.6291 484.7019)">
			<stop  offset="0" style="stop-color:#FFAE30"/>
			<stop  offset="1" style="stop-color:#FF7233"/>
		</linearGradient>
		<path class="st12" d="M256.6,332.4c1.4,1.2,1.5,3.5,0.2,5c-1.3,1.5-3.6,1.8-5,0.5c-1.4-1.2-1.5-3.5-0.2-5
			C253,331.4,255.2,331.2,256.6,332.4z"/>
		<g>
			
				<ellipse transform="matrix(0.656 -0.7548 0.7548 0.656 -165.7779 307.0117)" class="st3" cx="253.9" cy="335.4" rx="3.7" ry="3.4"/>
			<g>
				
					<linearGradient id="SVGID_10_" gradientUnits="userSpaceOnUse" x1="550.1701" y1="408.0085" x2="557.4932" y2="408.0085" gradientTransform="matrix(0.6559 -0.7549 0.7549 0.6559 -418.6291 484.7019)">
					<stop  offset="0" style="stop-color:#FB1200;stop-opacity:0"/>
					<stop  offset="9.790792e-02" style="stop-color:#FC2010;stop-opacity:9.810442e-02"/>
					<stop  offset="0.2783" style="stop-color:#FC3526;stop-opacity:0.2788"/>
					<stop  offset="0.4745" style="stop-color:#FC4436;stop-opacity:0.4754"/>
					<stop  offset="0.6962" style="stop-color:#FC4D3F;stop-opacity:0.6976"/>
					<stop  offset="0.998" style="stop-color:#FC5042"/>
				</linearGradient>
				<path class="st13" d="M251.5,333.3c1.3-1.5,3.5-1.8,4.9-0.6c0,0,0,0-0.1-0.1c-1.4-1.2-3.6-1-5,0.5c-1.3,1.5-1.3,3.8,0.2,5
					c0,0,0.1,0,0.1,0.1C250.2,336.9,250.2,334.8,251.5,333.3z"/>
			</g>
			
				<linearGradient id="SVGID_11_" gradientUnits="userSpaceOnUse" x1="553.8317" y1="412.576" x2="553.8317" y2="406.7433" gradientTransform="matrix(0.6559 -0.7549 0.7549 0.6559 -418.6291 484.7019)">
				<stop  offset="0" style="stop-color:#FB1200;stop-opacity:0"/>
				<stop  offset="0.998" style="stop-color:#FC5042"/>
			</linearGradient>
			<path class="st14" d="M255.9,333c1.2,1.1,1.3,3,0.1,4.3c-1.1,1.3-3,1.5-4.3,0.5c-1.2-1.1-1.3-3-0.1-4.3
				C252.8,332.1,254.7,331.9,255.9,333z"/>
			
				<linearGradient id="SVGID_12_" gradientUnits="userSpaceOnUse" x1="555.0845" y1="412.576" x2="555.0845" y2="406.7433" gradientTransform="matrix(0.6559 -0.7549 0.7549 0.6559 -418.6291 484.7019)">
				<stop  offset="0" style="stop-color:#FB1200;stop-opacity:0"/>
				<stop  offset="9.790792e-02" style="stop-color:#FC2010;stop-opacity:9.810442e-02"/>
				<stop  offset="0.2783" style="stop-color:#FC3526;stop-opacity:0.2788"/>
				<stop  offset="0.4745" style="stop-color:#FC4436;stop-opacity:0.4754"/>
				<stop  offset="0.6962" style="stop-color:#FC4D3F;stop-opacity:0.6976"/>
				<stop  offset="0.998" style="stop-color:#FC5042"/>
			</linearGradient>
			<path class="st15" d="M255.9,333c1.2,1.1,1.3,3,0.1,4.3c-1.1,1.3-0.5-1.4-1.7-2.5c-1.2-1.1-3.8,0-2.7-1.3
				C252.8,332.1,254.7,331.9,255.9,333z"/>
			<g>
				<path class="st3" d="M256.1,332.5c0.2,0.1,0.3,0.3,0.4,0.5c1.2,1.5,0.8,3.7-0.7,4.9c-1.4,1.1-3.3,1.1-4.5,0.1
					c0.1,0.1,0.1,0.1,0.2,0.2c1.4,1.2,3.6,1,5-0.5c1.3-1.5,1.3-3.8-0.2-5C256.2,332.5,256.2,332.5,256.1,332.5z"/>
			</g>
			
				<ellipse transform="matrix(0.656 -0.7547 0.7547 0.656 -166.9418 305.456)" class="st7" cx="251.6" cy="335.9" rx="0.6" ry="0.5"/>
			
				<ellipse transform="matrix(0.656 -0.7548 0.7548 0.656 -164.1678 306.5142)" class="st7" cx="254.1" cy="333.3" rx="0.8" ry="0.8"/>
			
				<ellipse transform="matrix(0.6559 -0.7548 0.7548 0.6559 -166.4496 307.1276)" class="st7" cx="253.7" cy="336.1" rx="0.6" ry="0.5"/>
			
				<ellipse transform="matrix(0.656 -0.7547 0.7547 0.656 -165.7601 308.453)" class="st7" cx="255.5" cy="336.1" rx="0.5" ry="0.5"/>
			
				<ellipse transform="matrix(0.6559 -0.7548 0.7548 0.6559 -165.7496 306.0779)" class="st7" cx="252.9" cy="334.9" rx="0.3" ry="0.3"/>
			<ellipse transform="matrix(0.656 -0.7548 0.7548 0.656 -165.327 305.2116)" class="st7" cx="252.2" cy="334" rx="0.3" ry="0.3"/>
			
				<ellipse transform="matrix(0.6559 -0.7548 0.7548 0.6559 -167.8709 306.609)" class="st7" cx="252.4" cy="337.4" rx="0.3" ry="0.3"/>
			
				<ellipse transform="matrix(0.656 -0.7548 0.7548 0.656 -167.1411 307.9342)" class="st7" cx="254.2" cy="337.3" rx="0.3" ry="0.3"/>
			
				<ellipse transform="matrix(0.6559 -0.7548 0.7548 0.6559 -164.4603 308.348)" class="st7" cx="256" cy="334.6" rx="0.3" ry="0.3"/>
			
				<ellipse transform="matrix(0.656 -0.7548 0.7548 0.656 -165.0656 307.3189)" class="st7" cx="254.6" cy="334.7" rx="0.3" ry="0.3"/>
		</g>
	</g>
	<g>
		
			<linearGradient id="SVGID_13_" gradientUnits="userSpaceOnUse" x1="454.0858" y1="303.2735" x2="461.4089" y2="303.2735" gradientTransform="matrix(0.6559 -0.7549 0.7549 0.6559 -418.6291 484.7019)">
			<stop  offset="0" style="stop-color:#FFAE30"/>
			<stop  offset="1" style="stop-color:#FF7233"/>
		</linearGradient>
		<path class="st16" d="M113,335.3c1.4,1.2,1.5,3.5,0.2,5c-1.3,1.5-3.6,1.8-5,0.5c-1.4-1.2-1.5-3.5-0.2-5
			C109.3,334.3,111.5,334.1,113,335.3z"/>
		<g>
			
				<ellipse transform="matrix(0.656 -0.7548 0.7548 0.656 -217.3922 199.5882)" class="st3" cx="110.2" cy="338.3" rx="3.7" ry="3.4"/>
			<g>
				
					<linearGradient id="SVGID_14_" gradientUnits="userSpaceOnUse" x1="453.7586" y1="301.4914" x2="461.0817" y2="301.4914" gradientTransform="matrix(0.6559 -0.7549 0.7549 0.6559 -418.6291 484.7019)">
					<stop  offset="0" style="stop-color:#FB1200;stop-opacity:0"/>
					<stop  offset="9.790792e-02" style="stop-color:#FC2010;stop-opacity:9.810442e-02"/>
					<stop  offset="0.2783" style="stop-color:#FC3526;stop-opacity:0.2788"/>
					<stop  offset="0.4745" style="stop-color:#FC4436;stop-opacity:0.4754"/>
					<stop  offset="0.6962" style="stop-color:#FC4D3F;stop-opacity:0.6976"/>
					<stop  offset="0.998" style="stop-color:#FC5042"/>
				</linearGradient>
				<path class="st17" d="M107.8,336.2c1.3-1.5,3.5-1.8,4.9-0.6c0,0,0,0-0.1-0.1c-1.4-1.2-3.6-1-5,0.5c-1.3,1.5-1.3,3.8,0.2,5
					c0,0,0.1,0,0.1,0.1C106.6,339.8,106.5,337.7,107.8,336.2z"/>
			</g>
			
				<linearGradient id="SVGID_15_" gradientUnits="userSpaceOnUse" x1="457.4201" y1="306.059" x2="457.4201" y2="300.2263" gradientTransform="matrix(0.6559 -0.7549 0.7549 0.6559 -418.6291 484.7019)">
				<stop  offset="0" style="stop-color:#FB1200;stop-opacity:0"/>
				<stop  offset="0.998" style="stop-color:#FC5042"/>
			</linearGradient>
			<path class="st18" d="M112.3,335.9c1.2,1.1,1.3,3,0.1,4.3c-1.1,1.3-3,1.5-4.3,0.5c-1.2-1.1-1.3-3-0.1-4.3
				C109.2,335,111.1,334.8,112.3,335.9z"/>
			
				<linearGradient id="SVGID_16_" gradientUnits="userSpaceOnUse" x1="458.673" y1="306.0589" x2="458.673" y2="300.2262" gradientTransform="matrix(0.6559 -0.7549 0.7549 0.6559 -418.6291 484.7019)">
				<stop  offset="0" style="stop-color:#FB1200;stop-opacity:0"/>
				<stop  offset="9.790792e-02" style="stop-color:#FC2010;stop-opacity:9.810442e-02"/>
				<stop  offset="0.2783" style="stop-color:#FC3526;stop-opacity:0.2788"/>
				<stop  offset="0.4745" style="stop-color:#FC4436;stop-opacity:0.4754"/>
				<stop  offset="0.6962" style="stop-color:#FC4D3F;stop-opacity:0.6976"/>
				<stop  offset="0.998" style="stop-color:#FC5042"/>
			</linearGradient>
			<path class="st19" d="M112.3,335.9c1.2,1.1,1.3,3,0.1,4.3c-1.1,1.3-0.5-1.4-1.7-2.5c-1.2-1.1-3.8,0-2.7-1.3
				C109.2,335,111.1,334.8,112.3,335.9z"/>
			<g>
				<path class="st3" d="M112.5,335.4c0.2,0.1,0.3,0.3,0.4,0.5c1.2,1.5,0.8,3.7-0.7,4.9c-1.4,1.1-3.3,1.1-4.5,0.1
					c0.1,0.1,0.1,0.1,0.2,0.2c1.4,1.2,3.6,1,5-0.5c1.3-1.5,1.3-3.8-0.2-5C112.6,335.4,112.5,335.4,112.5,335.4z"/>
			</g>
			
				<ellipse transform="matrix(0.656 -0.7547 0.7547 0.656 -218.5475 198.0396)" class="st7" cx="108" cy="338.8" rx="0.6" ry="0.5"/>
			
				<ellipse transform="matrix(0.656 -0.7548 0.7548 0.656 -215.7818 199.091)" class="st7" cx="110.5" cy="336.2" rx="0.8" ry="0.8"/>
			
				<ellipse transform="matrix(0.6559 -0.7548 0.7548 0.6559 -218.0651 199.7032)" class="st7" cx="110" cy="339.1" rx="0.6" ry="0.5"/>
			
				<ellipse transform="matrix(0.656 -0.7547 0.7547 0.656 -217.3653 201.0371)" class="st7" cx="111.9" cy="339" rx="0.5" ry="0.5"/>
			
				<ellipse transform="matrix(0.6559 -0.7548 0.7548 0.6559 -217.365 198.6535)" class="st7" cx="109.2" cy="337.8" rx="0.3" ry="0.3"/>
			
				<ellipse transform="matrix(0.656 -0.7548 0.7548 0.656 -216.9381 197.7907)" class="st7" cx="108.5" cy="336.9" rx="0.3" ry="0.3"/>
			
				<ellipse transform="matrix(0.6559 -0.7548 0.7548 0.6559 -219.4864 199.1846)" class="st7" cx="108.7" cy="340.4" rx="0.3" ry="0.3"/>
			
				<ellipse transform="matrix(0.656 -0.7548 0.7548 0.656 -218.7523 200.5133)" class="st7" cx="110.6" cy="340.2" rx="0.3" ry="0.3"/>
			
				<ellipse transform="matrix(0.6559 -0.7548 0.7548 0.6559 -216.0757 200.9236)" class="st7" cx="112.4" cy="337.5" rx="0.3" ry="0.3"/>
			
				<ellipse transform="matrix(0.656 -0.7548 0.7548 0.656 -216.6768 199.898)" class="st7" cx="110.9" cy="337.6" rx="0.3" ry="0.3"/>
		</g>
	</g>
	<g>
		
			<linearGradient id="SVGID_17_" gradientUnits="userSpaceOnUse" x1="452.2708" y1="287.7378" x2="459.5939" y2="287.7378" gradientTransform="matrix(0.6559 -0.7549 0.7549 0.6559 -418.6291 484.7019)">
			<stop  offset="0" style="stop-color:#FFAE30"/>
			<stop  offset="1" style="stop-color:#FF7233"/>
		</linearGradient>
		<path class="st20" d="M100,326.5c1.4,1.2,1.5,3.5,0.2,5c-1.3,1.5-3.6,1.8-5,0.5c-1.4-1.2-1.5-3.5-0.2-5
			C96.4,325.5,98.6,325.3,100,326.5z"/>
		<g>
			
				<ellipse transform="matrix(0.656 -0.7548 0.7548 0.656 -215.1787 186.8034)" class="st3" cx="97.3" cy="329.4" rx="3.7" ry="3.4"/>
			<g>
				
					<linearGradient id="SVGID_18_" gradientUnits="userSpaceOnUse" x1="451.9436" y1="285.9557" x2="459.2667" y2="285.9557" gradientTransform="matrix(0.6559 -0.7549 0.7549 0.6559 -418.6291 484.7019)">
					<stop  offset="0" style="stop-color:#FB1200;stop-opacity:0"/>
					<stop  offset="9.790792e-02" style="stop-color:#FC2010;stop-opacity:9.810442e-02"/>
					<stop  offset="0.2783" style="stop-color:#FC3526;stop-opacity:0.2788"/>
					<stop  offset="0.4745" style="stop-color:#FC4436;stop-opacity:0.4754"/>
					<stop  offset="0.6962" style="stop-color:#FC4D3F;stop-opacity:0.6976"/>
					<stop  offset="0.998" style="stop-color:#FC5042"/>
				</linearGradient>
				<path class="st21" d="M94.9,327.3c1.3-1.5,3.5-1.8,4.9-0.6c0,0,0,0-0.1-0.1c-1.4-1.2-3.6-1-5,0.5c-1.3,1.5-1.3,3.8,0.2,5
					c0,0,0.1,0,0.1,0.1C93.7,331,93.6,328.8,94.9,327.3z"/>
			</g>
			
				<linearGradient id="SVGID_19_" gradientUnits="userSpaceOnUse" x1="455.6051" y1="290.5233" x2="455.6051" y2="284.6906" gradientTransform="matrix(0.6559 -0.7549 0.7549 0.6559 -418.6291 484.7019)">
				<stop  offset="0" style="stop-color:#FB1200;stop-opacity:0"/>
				<stop  offset="0.998" style="stop-color:#FC5042"/>
			</linearGradient>
			<path class="st22" d="M99.4,327.1c1.2,1.1,1.3,3,0.1,4.3c-1.1,1.3-3,1.5-4.3,0.5c-1.2-1.1-1.3-3-0.1-4.3
				C96.3,326.2,98.2,326,99.4,327.1z"/>
			
				<linearGradient id="SVGID_20_" gradientUnits="userSpaceOnUse" x1="456.858" y1="290.5233" x2="456.858" y2="284.6906" gradientTransform="matrix(0.6559 -0.7549 0.7549 0.6559 -418.6291 484.7019)">
				<stop  offset="0" style="stop-color:#FB1200;stop-opacity:0"/>
				<stop  offset="9.790792e-02" style="stop-color:#FC2010;stop-opacity:9.810442e-02"/>
				<stop  offset="0.2783" style="stop-color:#FC3526;stop-opacity:0.2788"/>
				<stop  offset="0.4745" style="stop-color:#FC4436;stop-opacity:0.4754"/>
				<stop  offset="0.6962" style="stop-color:#FC4D3F;stop-opacity:0.6976"/>
				<stop  offset="0.998" style="stop-color:#FC5042"/>
			</linearGradient>
			<path class="st23" d="M99.4,327.1c1.2,1.1,1.3,3,0.1,4.3c-1.1,1.3-0.5-1.4-1.7-2.5c-1.2-1.1-3.8,0-2.7-1.3
				C96.3,326.2,98.2,326,99.4,327.1z"/>
			<g>
				<path class="st3" d="M99.5,326.5c0.2,0.1,0.3,0.3,0.4,0.5c1.2,1.5,0.8,3.7-0.7,4.9c-1.4,1.1-3.3,1.1-4.5,0.1
					c0.1,0.1,0.1,0.1,0.2,0.2c1.4,1.2,3.6,1,5-0.5c1.3-1.5,1.3-3.8-0.2-5C99.7,326.6,99.6,326.6,99.5,326.5z"/>
			</g>
			<ellipse transform="matrix(0.656 -0.7547 0.7547 0.656 -216.3337 185.256)" class="st7" cx="95.1" cy="330" rx="0.6" ry="0.5"/>
			
				<ellipse transform="matrix(0.656 -0.7548 0.7548 0.656 -213.5683 186.3062)" class="st7" cx="97.6" cy="327.4" rx="0.8" ry="0.8"/>
			
				<ellipse transform="matrix(0.6559 -0.7548 0.7548 0.6559 -215.8516 186.9182)" class="st7" cx="97.1" cy="330.2" rx="0.6" ry="0.5"/>
			<ellipse transform="matrix(0.656 -0.7547 0.7547 0.656 -215.1515 188.2535)" class="st7" cx="99" cy="330.2" rx="0.5" ry="0.5"/>
			
				<ellipse transform="matrix(0.6559 -0.7548 0.7548 0.6559 -215.1516 185.8685)" class="st7" cx="96.3" cy="328.9" rx="0.3" ry="0.3"/>
			
				<ellipse transform="matrix(0.656 -0.7548 0.7548 0.656 -214.7245 185.0063)" class="st7" cx="95.6" cy="328.1" rx="0.3" ry="0.3"/>
			
				<ellipse transform="matrix(0.6559 -0.7548 0.7548 0.6559 -217.2729 186.3996)" class="st7" cx="95.8" cy="331.5" rx="0.3" ry="0.3"/>
			
				<ellipse transform="matrix(0.656 -0.7548 0.7548 0.656 -216.5387 187.7289)" class="st7" cx="97.7" cy="331.4" rx="0.3" ry="0.3"/>
			
				<ellipse transform="matrix(0.6559 -0.7548 0.7548 0.6559 -213.8622 188.1385)" class="st7" cx="99.4" cy="328.7" rx="0.3" ry="0.3"/>
			<ellipse transform="matrix(0.656 -0.7548 0.7548 0.656 -214.4632 187.1135)" class="st7" cx="98" cy="328.8" rx="0.3" ry="0.3"/>
		</g>
	</g>
	<g>
		
			<linearGradient id="SVGID_21_" gradientUnits="userSpaceOnUse" x1="591.4932" y1="471.7242" x2="597.3665" y2="471.7242" gradientTransform="matrix(0.6559 -0.7549 0.7549 0.6559 -418.6291 484.7019)">
			<stop  offset="0" style="stop-color:#FFAE30"/>
			<stop  offset="1" style="stop-color:#FF7233"/>
		</linearGradient>
		<path class="st24" d="M329.3,343.2c1.1,1,1.2,2.8,0.1,4c-1.1,1.2-2.8,1.4-4,0.4c-1.1-1-1.2-2.8-0.1-4
			C326.4,342.4,328.2,342.2,329.3,343.2z"/>
		<g>
			
				<ellipse transform="matrix(0.656 -0.7548 0.7548 0.656 -148.2792 365.7918)" class="st3" cx="327.1" cy="345.6" rx="2.9" ry="2.7"/>
			<g>
				
					<linearGradient id="SVGID_22_" gradientUnits="userSpaceOnUse" x1="591.2307" y1="470.295" x2="597.1041" y2="470.295" gradientTransform="matrix(0.6559 -0.7549 0.7549 0.6559 -418.6291 484.7019)">
					<stop  offset="0" style="stop-color:#FB1200;stop-opacity:0"/>
					<stop  offset="9.790792e-02" style="stop-color:#FC2010;stop-opacity:9.810442e-02"/>
					<stop  offset="0.2783" style="stop-color:#FC3526;stop-opacity:0.2788"/>
					<stop  offset="0.4745" style="stop-color:#FC4436;stop-opacity:0.4754"/>
					<stop  offset="0.6962" style="stop-color:#FC4D3F;stop-opacity:0.6976"/>
					<stop  offset="0.998" style="stop-color:#FC5042"/>
				</linearGradient>
				<path class="st25" d="M325.2,343.9c1-1.2,2.8-1.4,3.9-0.5c0,0,0,0-0.1-0.1c-1.1-1-2.9-0.8-4,0.4c-1.1,1.2-1,3,0.1,4
					c0,0,0,0,0.1,0C324.2,346.8,324.1,345.1,325.2,343.9z"/>
			</g>
			
				<linearGradient id="SVGID_23_" gradientUnits="userSpaceOnUse" x1="594.1674" y1="473.9583" x2="594.1674" y2="469.2803" gradientTransform="matrix(0.6559 -0.7549 0.7549 0.6559 -418.6291 484.7019)">
				<stop  offset="0" style="stop-color:#FB1200;stop-opacity:0"/>
				<stop  offset="0.998" style="stop-color:#FC5042"/>
			</linearGradient>
			<path class="st26" d="M328.8,343.7c1,0.8,1,2.4,0.1,3.4c-0.9,1-2.4,1.2-3.4,0.4c-1-0.8-1-2.4-0.1-3.4
				C326.3,343,327.8,342.8,328.8,343.7z"/>
			
				<linearGradient id="SVGID_24_" gradientUnits="userSpaceOnUse" x1="595.1722" y1="473.9583" x2="595.1722" y2="469.2802" gradientTransform="matrix(0.6559 -0.7549 0.7549 0.6559 -418.6291 484.7019)">
				<stop  offset="0" style="stop-color:#FB1200;stop-opacity:0"/>
				<stop  offset="9.790792e-02" style="stop-color:#FC2010;stop-opacity:9.810442e-02"/>
				<stop  offset="0.2783" style="stop-color:#FC3526;stop-opacity:0.2788"/>
				<stop  offset="0.4745" style="stop-color:#FC4436;stop-opacity:0.4754"/>
				<stop  offset="0.6962" style="stop-color:#FC4D3F;stop-opacity:0.6976"/>
				<stop  offset="0.998" style="stop-color:#FC5042"/>
			</linearGradient>
			<path class="st27" d="M328.8,343.7c1,0.8,1,2.4,0.1,3.4c-0.9,1-0.4-1.2-1.4-2c-1-0.8-3.1,0-2.2-1.1
				C326.3,343,327.8,342.8,328.8,343.7z"/>
			<g>
				<path class="st3" d="M328.9,343.2c0.1,0.1,0.2,0.2,0.4,0.4c0.9,1.2,0.7,3-0.6,4c-1.1,0.9-2.6,0.9-3.6,0.1c0,0,0.1,0.1,0.1,0.1
					c1.1,1,2.9,0.8,4-0.4c1.1-1.2,1-3-0.1-4C329,343.3,328.9,343.3,328.9,343.2z"/>
			</g>
			<ellipse transform="matrix(0.656 -0.7547 0.7547 0.656 -149.216 364.5334)" class="st7" cx="325.3" cy="346" rx="0.5" ry="0.4"/>
			
				<ellipse transform="matrix(0.656 -0.7548 0.7548 0.656 -146.9879 365.3926)" class="st7" cx="327.3" cy="343.9" rx="0.7" ry="0.6"/>
			
				<ellipse transform="matrix(0.6559 -0.7548 0.7548 0.6559 -148.8175 365.8864)" class="st7" cx="326.9" cy="346.2" rx="0.5" ry="0.4"/>
			
				<ellipse transform="matrix(0.656 -0.7547 0.7547 0.656 -148.2684 366.9365)" class="st7" cx="328.4" cy="346.1" rx="0.4" ry="0.4"/>
			
				<ellipse transform="matrix(0.6559 -0.7548 0.7548 0.6559 -148.256 365.0445)" class="st7" cx="326.3" cy="345.1" rx="0.2" ry="0.2"/>
			
				<ellipse transform="matrix(0.656 -0.7548 0.7548 0.656 -147.9187 364.3444)" class="st7" cx="325.7" cy="344.4" rx="0.2" ry="0.2"/>
			
				<ellipse transform="matrix(0.6559 -0.7548 0.7548 0.6559 -149.9574 365.4704)" class="st7" cx="325.9" cy="347.2" rx="0.2" ry="0.2"/>
			
				<ellipse transform="matrix(0.656 -0.7548 0.7548 0.656 -149.3737 366.5279)" class="st7" cx="327.4" cy="347.1" rx="0.2" ry="0.2"/>
			
				<ellipse transform="matrix(0.6559 -0.7548 0.7548 0.6559 -147.2219 366.8651)" class="st7" cx="328.8" cy="344.9" rx="0.2" ry="0.2"/>
			
				<ellipse transform="matrix(0.656 -0.7548 0.7548 0.656 -147.7091 366.0344)" class="st7" cx="327.7" cy="345.1" rx="0.2" ry="0.2"/>
		</g>
	</g>
	<g>
		
			<linearGradient id="SVGID_25_" gradientUnits="userSpaceOnUse" x1="513.448" y1="351.6931" x2="519.3213" y2="351.6931" gradientTransform="matrix(0.6559 -0.7549 0.7549 0.6559 -418.6291 484.7019)">
			<stop  offset="0" style="stop-color:#FFAE30"/>
			<stop  offset="1" style="stop-color:#FF7233"/>
		</linearGradient>
		<path class="st28" d="M187.5,323.4c1.1,1,1.2,2.8,0.1,4c-1.1,1.2-2.8,1.4-4,0.4c-1.1-1-1.2-2.8-0.1-4
			C184.6,322.6,186.4,322.4,187.5,323.4z"/>
		<g>
			
				<ellipse transform="matrix(0.656 -0.7548 0.7548 0.656 -182.1029 251.9424)" class="st3" cx="185.3" cy="325.7" rx="2.9" ry="2.7"/>
			<g>
				
					<linearGradient id="SVGID_26_" gradientUnits="userSpaceOnUse" x1="513.1855" y1="350.2639" x2="519.0589" y2="350.2639" gradientTransform="matrix(0.6559 -0.7549 0.7549 0.6559 -418.6291 484.7019)">
					<stop  offset="0" style="stop-color:#FB1200;stop-opacity:0"/>
					<stop  offset="9.790792e-02" style="stop-color:#FC2010;stop-opacity:9.810442e-02"/>
					<stop  offset="0.2783" style="stop-color:#FC3526;stop-opacity:0.2788"/>
					<stop  offset="0.4745" style="stop-color:#FC4436;stop-opacity:0.4754"/>
					<stop  offset="0.6962" style="stop-color:#FC4D3F;stop-opacity:0.6976"/>
					<stop  offset="0.998" style="stop-color:#FC5042"/>
				</linearGradient>
				<path class="st29" d="M183.4,324c1-1.2,2.8-1.4,3.9-0.5c0,0,0,0-0.1-0.1c-1.1-1-2.9-0.8-4,0.4c-1.1,1.2-1,3,0.1,4c0,0,0,0,0.1,0
					C182.4,327,182.3,325.2,183.4,324z"/>
			</g>
			
				<linearGradient id="SVGID_27_" gradientUnits="userSpaceOnUse" x1="516.1222" y1="353.9272" x2="516.1222" y2="349.2492" gradientTransform="matrix(0.6559 -0.7549 0.7549 0.6559 -418.6291 484.7019)">
				<stop  offset="0" style="stop-color:#FB1200;stop-opacity:0"/>
				<stop  offset="0.998" style="stop-color:#FC5042"/>
			</linearGradient>
			<path class="st30" d="M187,323.8c1,0.8,1,2.4,0.1,3.4c-0.9,1-2.4,1.2-3.4,0.4c-1-0.8-1-2.4-0.1-3.4
				C184.5,323.1,186,323,187,323.8z"/>
			
				<linearGradient id="SVGID_28_" gradientUnits="userSpaceOnUse" x1="517.127" y1="353.9272" x2="517.127" y2="349.2491" gradientTransform="matrix(0.6559 -0.7549 0.7549 0.6559 -418.6291 484.7019)">
				<stop  offset="0" style="stop-color:#FB1200;stop-opacity:0"/>
				<stop  offset="9.790792e-02" style="stop-color:#FC2010;stop-opacity:9.810442e-02"/>
				<stop  offset="0.2783" style="stop-color:#FC3526;stop-opacity:0.2788"/>
				<stop  offset="0.4745" style="stop-color:#FC4436;stop-opacity:0.4754"/>
				<stop  offset="0.6962" style="stop-color:#FC4D3F;stop-opacity:0.6976"/>
				<stop  offset="0.998" style="stop-color:#FC5042"/>
			</linearGradient>
			<path class="st31" d="M187,323.8c1,0.8,1,2.4,0.1,3.4c-0.9,1-0.4-1.2-1.4-2c-1-0.8-3.1,0-2.2-1.1C184.5,323.2,186,323,187,323.8z
				"/>
			<g>
				<path class="st3" d="M187.1,323.4c0.1,0.1,0.2,0.2,0.4,0.4c0.9,1.2,0.7,3-0.6,4c-1.1,0.9-2.6,0.9-3.6,0.1c0,0,0.1,0.1,0.1,0.1
					c1.1,1,2.9,0.8,4-0.4c1.1-1.2,1-3-0.1-4C187.2,323.5,187.1,323.4,187.1,323.4z"/>
			</g>
			
				<ellipse transform="matrix(0.656 -0.7547 0.7547 0.656 -183.0324 250.6924)" class="st7" cx="183.5" cy="326.1" rx="0.5" ry="0.4"/>
			
				<ellipse transform="matrix(0.656 -0.7548 0.7548 0.656 -180.8114 251.5434)" class="st7" cx="185.5" cy="324.1" rx="0.7" ry="0.6"/>
			
				<ellipse transform="matrix(0.6559 -0.7548 0.7548 0.6559 -182.6422 252.0358)" class="st7" cx="185.1" cy="326.4" rx="0.5" ry="0.4"/>
			
				<ellipse transform="matrix(0.656 -0.7547 0.7547 0.656 -182.0844 253.0959)" class="st7" cx="186.6" cy="326.3" rx="0.4" ry="0.4"/>
			
				<ellipse transform="matrix(0.6559 -0.7548 0.7548 0.6559 -182.0807 251.1939)" class="st7" cx="184.5" cy="325.3" rx="0.2" ry="0.2"/>
			
				<ellipse transform="matrix(0.656 -0.7548 0.7548 0.656 -181.7398 250.4979)" class="st7" cx="183.9" cy="324.6" rx="0.2" ry="0.2"/>
			
				<ellipse transform="matrix(0.6559 -0.7548 0.7548 0.6559 -183.7821 251.6199)" class="st7" cx="184.1" cy="327.4" rx="0.2" ry="0.2"/>
			
				<ellipse transform="matrix(0.656 -0.7548 0.7548 0.656 -183.1948 252.6815)" class="st7" cx="185.6" cy="327.3" rx="0.2" ry="0.2"/>
			
				<ellipse transform="matrix(0.6559 -0.7548 0.7548 0.6559 -181.0466 253.0146)" class="st7" cx="187" cy="325.1" rx="0.2" ry="0.2"/>
			
				<ellipse transform="matrix(0.656 -0.7548 0.7548 0.656 -181.5302 252.188)" class="st7" cx="185.9" cy="325.2" rx="0.2" ry="0.2"/>
		</g>
	</g>
	<g>
		
			<linearGradient id="SVGID_29_" gradientUnits="userSpaceOnUse" x1="461.0409" y1="334.8591" x2="466.9142" y2="334.8591" gradientTransform="matrix(0.6559 -0.7549 0.7549 0.6559 -418.6291 484.7019)">
			<stop  offset="0" style="stop-color:#FFAE30"/>
			<stop  offset="1" style="stop-color:#FF7233"/>
		</linearGradient>
		<path class="st32" d="M140.4,351.9c1.1,1,1.2,2.8,0.1,4c-1.1,1.2-2.8,1.4-4,0.4c-1.1-1-1.2-2.8-0.1-4
			C137.5,351.1,139.3,350.9,140.4,351.9z"/>
		<g>
			
				<ellipse transform="matrix(0.656 -0.7548 0.7548 0.656 -219.8265 226.215)" class="st3" cx="138.2" cy="354.2" rx="2.9" ry="2.7"/>
			<g>
				
					<linearGradient id="SVGID_30_" gradientUnits="userSpaceOnUse" x1="460.7784" y1="333.4298" x2="466.6517" y2="333.4298" gradientTransform="matrix(0.6559 -0.7549 0.7549 0.6559 -418.6291 484.7019)">
					<stop  offset="0" style="stop-color:#FB1200;stop-opacity:0"/>
					<stop  offset="9.790792e-02" style="stop-color:#FC2010;stop-opacity:9.810442e-02"/>
					<stop  offset="0.2783" style="stop-color:#FC3526;stop-opacity:0.2788"/>
					<stop  offset="0.4745" style="stop-color:#FC4436;stop-opacity:0.4754"/>
					<stop  offset="0.6962" style="stop-color:#FC4D3F;stop-opacity:0.6976"/>
					<stop  offset="0.998" style="stop-color:#FC5042"/>
				</linearGradient>
				<path class="st33" d="M136.3,352.6c1-1.2,2.8-1.4,3.9-0.5c0,0,0,0-0.1-0.1c-1.1-1-2.9-0.8-4,0.4c-1.1,1.2-1,3,0.1,4
					c0,0,0,0,0.1,0C135.3,355.5,135.2,353.8,136.3,352.6z"/>
			</g>
			
				<linearGradient id="SVGID_31_" gradientUnits="userSpaceOnUse" x1="463.7151" y1="337.0931" x2="463.7151" y2="332.4151" gradientTransform="matrix(0.6559 -0.7549 0.7549 0.6559 -418.6291 484.7019)">
				<stop  offset="0" style="stop-color:#FB1200;stop-opacity:0"/>
				<stop  offset="0.998" style="stop-color:#FC5042"/>
			</linearGradient>
			<path class="st34" d="M139.9,352.3c1,0.8,1,2.4,0.1,3.4c-0.9,1-2.4,1.2-3.4,0.4c-1-0.8-1-2.4-0.1-3.4
				C137.4,351.7,138.9,351.5,139.9,352.3z"/>
			
				<linearGradient id="SVGID_32_" gradientUnits="userSpaceOnUse" x1="464.7199" y1="337.0931" x2="464.7199" y2="332.4151" gradientTransform="matrix(0.6559 -0.7549 0.7549 0.6559 -418.6291 484.7019)">
				<stop  offset="0" style="stop-color:#FB1200;stop-opacity:0"/>
				<stop  offset="9.790792e-02" style="stop-color:#FC2010;stop-opacity:9.810442e-02"/>
				<stop  offset="0.2783" style="stop-color:#FC3526;stop-opacity:0.2788"/>
				<stop  offset="0.4745" style="stop-color:#FC4436;stop-opacity:0.4754"/>
				<stop  offset="0.6962" style="stop-color:#FC4D3F;stop-opacity:0.6976"/>
				<stop  offset="0.998" style="stop-color:#FC5042"/>
			</linearGradient>
			<path class="st35" d="M139.9,352.4c1,0.8,1,2.4,0.1,3.4c-0.9,1-0.4-1.2-1.4-2c-1-0.8-3.1,0-2.2-1.1S138.9,351.5,139.9,352.4z"/>
			<g>
				<path class="st3" d="M140,351.9c0.1,0.1,0.2,0.2,0.4,0.4c0.9,1.2,0.7,3-0.6,4c-1.1,0.9-2.6,0.9-3.6,0.1c0,0,0.1,0.1,0.1,0.1
					c1.1,1,2.9,0.8,4-0.4c1.1-1.2,1-3-0.1-4C140.1,352,140.1,352,140,351.9z"/>
			</g>
			
				<ellipse transform="matrix(0.656 -0.7547 0.7547 0.656 -220.7518 224.9657)" class="st7" cx="136.4" cy="354.7" rx="0.5" ry="0.4"/>
			
				<ellipse transform="matrix(0.656 -0.7548 0.7548 0.656 -218.5349 225.816)" class="st7" cx="138.4" cy="352.6" rx="0.7" ry="0.6"/>
			
				<ellipse transform="matrix(0.6559 -0.7548 0.7548 0.6559 -220.3664 226.3083)" class="st7" cx="138.1" cy="354.9" rx="0.5" ry="0.4"/>
			
				<ellipse transform="matrix(0.656 -0.7547 0.7547 0.656 -219.8036 227.3693)" class="st7" cx="139.5" cy="354.8" rx="0.4" ry="0.4"/>
			
				<ellipse transform="matrix(0.6559 -0.7548 0.7548 0.6559 -219.8049 225.4664)" class="st7" cx="137.4" cy="353.8" rx="0.2" ry="0.2"/>
			
				<ellipse transform="matrix(0.656 -0.7548 0.7548 0.656 -219.4619 224.7708)" class="st7" cx="136.8" cy="353.1" rx="0.2" ry="0.2"/>
			
				<ellipse transform="matrix(0.6559 -0.7548 0.7548 0.6559 -221.5063 225.8923)" class="st7" cx="137" cy="355.9" rx="0.2" ry="0.2"/>
			
				<ellipse transform="matrix(0.656 -0.7548 0.7548 0.656 -220.9169 226.9543)" class="st7" cx="138.5" cy="355.8" rx="0.2" ry="0.2"/>
			
				<ellipse transform="matrix(0.6559 -0.7548 0.7548 0.6559 -218.7709 227.287)" class="st7" cx="139.9" cy="353.6" rx="0.2" ry="0.2"/>
			
				<ellipse transform="matrix(0.656 -0.7548 0.7548 0.656 -219.2523 226.4608)" class="st7" cx="138.8" cy="353.7" rx="0.2" ry="0.2"/>
		</g>
	</g>
	<g>
		
			<linearGradient id="SVGID_33_" gradientUnits="userSpaceOnUse" x1="446.2741" y1="317.3727" x2="452.1474" y2="317.3727" gradientTransform="matrix(0.6559 -0.7549 0.7549 0.6559 -418.6291 484.7019)">
			<stop  offset="0" style="stop-color:#FFAE30"/>
			<stop  offset="1" style="stop-color:#FF7233"/>
		</linearGradient>
		<path class="st36" d="M117.5,351.6c1.1,1,1.2,2.8,0.1,4c-1.1,1.2-2.8,1.4-4,0.4c-1.1-1-1.2-2.8-0.1-4
			C114.6,350.8,116.4,350.6,117.5,351.6z"/>
		<g>
			
				<ellipse transform="matrix(0.656 -0.7548 0.7548 0.656 -227.4561 208.8296)" class="st3" cx="115.3" cy="353.9" rx="2.9" ry="2.7"/>
			<g>
				
					<linearGradient id="SVGID_34_" gradientUnits="userSpaceOnUse" x1="446.0117" y1="315.9435" x2="451.885" y2="315.9435" gradientTransform="matrix(0.6559 -0.7549 0.7549 0.6559 -418.6291 484.7019)">
					<stop  offset="0" style="stop-color:#FB1200;stop-opacity:0"/>
					<stop  offset="9.790792e-02" style="stop-color:#FC2010;stop-opacity:9.810442e-02"/>
					<stop  offset="0.2783" style="stop-color:#FC3526;stop-opacity:0.2788"/>
					<stop  offset="0.4745" style="stop-color:#FC4436;stop-opacity:0.4754"/>
					<stop  offset="0.6962" style="stop-color:#FC4D3F;stop-opacity:0.6976"/>
					<stop  offset="0.998" style="stop-color:#FC5042"/>
				</linearGradient>
				<path class="st37" d="M113.4,352.2c1-1.2,2.8-1.4,3.9-0.5c0,0,0,0-0.1-0.1c-1.1-1-2.9-0.8-4,0.4c-1.1,1.2-1,3,0.1,4
					c0,0,0,0,0.1,0C112.4,355.2,112.4,353.4,113.4,352.2z"/>
			</g>
			
				<linearGradient id="SVGID_35_" gradientUnits="userSpaceOnUse" x1="448.9483" y1="319.6068" x2="448.9483" y2="314.9288" gradientTransform="matrix(0.6559 -0.7549 0.7549 0.6559 -418.6291 484.7019)">
				<stop  offset="0" style="stop-color:#FB1200;stop-opacity:0"/>
				<stop  offset="0.998" style="stop-color:#FC5042"/>
			</linearGradient>
			<path class="st38" d="M117,352c1,0.8,1,2.4,0.1,3.4c-0.9,1-2.4,1.2-3.4,0.4c-1-0.8-1-2.4-0.1-3.4C114.5,351.3,116,351.2,117,352z
				"/>
			
				<linearGradient id="SVGID_36_" gradientUnits="userSpaceOnUse" x1="449.9532" y1="319.6068" x2="449.9532" y2="314.9287" gradientTransform="matrix(0.6559 -0.7549 0.7549 0.6559 -418.6291 484.7019)">
				<stop  offset="0" style="stop-color:#FB1200;stop-opacity:0"/>
				<stop  offset="9.790792e-02" style="stop-color:#FC2010;stop-opacity:9.810442e-02"/>
				<stop  offset="0.2783" style="stop-color:#FC3526;stop-opacity:0.2788"/>
				<stop  offset="0.4745" style="stop-color:#FC4436;stop-opacity:0.4754"/>
				<stop  offset="0.6962" style="stop-color:#FC4D3F;stop-opacity:0.6976"/>
				<stop  offset="0.998" style="stop-color:#FC5042"/>
			</linearGradient>
			<path class="st39" d="M117,352c1,0.8,1,2.4,0.1,3.4c-0.9,1-0.4-1.2-1.4-2c-1-0.8-3.1,0-2.2-1.1C114.5,351.3,116,351.2,117,352z"
				/>
			<g>
				<path class="st3" d="M117.1,351.6c0.1,0.1,0.2,0.2,0.4,0.4c0.9,1.2,0.7,3-0.6,4c-1.1,0.9-2.6,0.9-3.6,0.1c0,0,0.1,0.1,0.1,0.1
					c1.1,1,2.9,0.8,4-0.4c1.1-1.2,1-3-0.1-4C117.2,351.7,117.2,351.6,117.1,351.6z"/>
			</g>
			
				<ellipse transform="matrix(0.656 -0.7547 0.7547 0.656 -228.3801 207.5814)" class="st7" cx="113.5" cy="354.3" rx="0.5" ry="0.4"/>
			
				<ellipse transform="matrix(0.656 -0.7548 0.7548 0.656 -226.1645 208.4306)" class="st7" cx="115.6" cy="352.3" rx="0.7" ry="0.6"/>
			
				<ellipse transform="matrix(0.6559 -0.7548 0.7548 0.6559 -227.9962 208.9226)" class="st7" cx="115.2" cy="354.6" rx="0.5" ry="0.4"/>
			
				<ellipse transform="matrix(0.656 -0.7547 0.7547 0.656 -227.4318 209.985)" class="st7" cx="116.7" cy="354.5" rx="0.4" ry="0.4"/>
			
				<ellipse transform="matrix(0.6559 -0.7548 0.7548 0.6559 -227.4347 208.0807)" class="st7" cx="114.5" cy="353.5" rx="0.2" ry="0.2"/>
			<ellipse transform="matrix(0.656 -0.7548 0.7548 0.656 -227.091 207.3857)" class="st7" cx="114" cy="352.8" rx="0.2" ry="0.2"/>
			
				<ellipse transform="matrix(0.6559 -0.7548 0.7548 0.6559 -229.1361 208.5067)" class="st7" cx="114.2" cy="355.6" rx="0.2" ry="0.2"/>
			
				<ellipse transform="matrix(0.656 -0.7548 0.7548 0.656 -228.546 209.5693)" class="st7" cx="115.6" cy="355.5" rx="0.2" ry="0.2"/>
			
				<ellipse transform="matrix(0.6559 -0.7548 0.7548 0.6559 -226.4006 209.9014)" class="st7" cx="117" cy="353.3" rx="0.2" ry="0.2"/>
			
				<ellipse transform="matrix(0.656 -0.7548 0.7548 0.656 -226.8815 209.0758)" class="st7" cx="115.9" cy="353.4" rx="0.2" ry="0.2"/>
		</g>
	</g>
	<g>
		
			<linearGradient id="SVGID_37_" gradientUnits="userSpaceOnUse" x1="514.5861" y1="370.3618" x2="520.4594" y2="370.3618" gradientTransform="matrix(0.6559 -0.7549 0.7549 0.6559 -418.6291 484.7019)">
			<stop  offset="0" style="stop-color:#FFAE30"/>
			<stop  offset="1" style="stop-color:#FF7233"/>
		</linearGradient>
		<path class="st40" d="M202.3,334.8c1.1,1,1.2,2.8,0.1,4c-1.1,1.2-2.8,1.4-4,0.4c-1.1-1-1.2-2.8-0.1-4
			C199.4,334,201.2,333.8,202.3,334.8z"/>
		<g>
			
				<ellipse transform="matrix(0.656 -0.7548 0.7548 0.656 -185.5924 267.0601)" class="st3" cx="200.2" cy="337.1" rx="2.9" ry="2.7"/>
			<g>
				
					<linearGradient id="SVGID_38_" gradientUnits="userSpaceOnUse" x1="514.3236" y1="368.9326" x2="520.197" y2="368.9326" gradientTransform="matrix(0.6559 -0.7549 0.7549 0.6559 -418.6291 484.7019)">
					<stop  offset="0" style="stop-color:#FB1200;stop-opacity:0"/>
					<stop  offset="9.790792e-02" style="stop-color:#FC2010;stop-opacity:9.810442e-02"/>
					<stop  offset="0.2783" style="stop-color:#FC3526;stop-opacity:0.2788"/>
					<stop  offset="0.4745" style="stop-color:#FC4436;stop-opacity:0.4754"/>
					<stop  offset="0.6962" style="stop-color:#FC4D3F;stop-opacity:0.6976"/>
					<stop  offset="0.998" style="stop-color:#FC5042"/>
				</linearGradient>
				<path class="st41" d="M198.2,335.4c1-1.2,2.8-1.4,3.9-0.5c0,0,0,0-0.1-0.1c-1.1-1-2.9-0.8-4,0.4c-1.1,1.2-1,3,0.1,4
					c0,0,0,0,0.1,0C197.2,338.4,197.2,336.6,198.2,335.4z"/>
			</g>
			
				<linearGradient id="SVGID_39_" gradientUnits="userSpaceOnUse" x1="517.2603" y1="372.5959" x2="517.2603" y2="367.9179" gradientTransform="matrix(0.6559 -0.7549 0.7549 0.6559 -418.6291 484.7019)">
				<stop  offset="0" style="stop-color:#FB1200;stop-opacity:0"/>
				<stop  offset="0.998" style="stop-color:#FC5042"/>
			</linearGradient>
			<path class="st42" d="M201.8,335.2c1,0.8,1,2.4,0.1,3.4c-0.9,1-2.4,1.2-3.4,0.4c-1-0.8-1-2.4-0.1-3.4
				C199.3,334.5,200.8,334.4,201.8,335.2z"/>
			
				<linearGradient id="SVGID_40_" gradientUnits="userSpaceOnUse" x1="518.2651" y1="372.5958" x2="518.2651" y2="367.9178" gradientTransform="matrix(0.6559 -0.7549 0.7549 0.6559 -418.6291 484.7019)">
				<stop  offset="0" style="stop-color:#FB1200;stop-opacity:0"/>
				<stop  offset="9.790792e-02" style="stop-color:#FC2010;stop-opacity:9.810442e-02"/>
				<stop  offset="0.2783" style="stop-color:#FC3526;stop-opacity:0.2788"/>
				<stop  offset="0.4745" style="stop-color:#FC4436;stop-opacity:0.4754"/>
				<stop  offset="0.6962" style="stop-color:#FC4D3F;stop-opacity:0.6976"/>
				<stop  offset="0.998" style="stop-color:#FC5042"/>
			</linearGradient>
			<path class="st43" d="M201.8,335.2c1,0.8,1,2.4,0.1,3.4c-0.9,1-0.4-1.2-1.4-2c-1-0.8-3.1,0-2.2-1.1
				C199.3,334.5,200.8,334.4,201.8,335.2z"/>
			<g>
				<path class="st3" d="M201.9,334.8c0.1,0.1,0.2,0.2,0.4,0.4c0.9,1.2,0.7,3-0.6,4c-1.1,0.9-2.6,0.9-3.6,0.1c0,0,0.1,0.1,0.1,0.1
					c1.1,1,2.9,0.8,4-0.4c1.1-1.2,1-3-0.1-4C202,334.9,202,334.8,201.9,334.8z"/>
			</g>
			
				<ellipse transform="matrix(0.656 -0.7547 0.7547 0.656 -186.5222 265.8086)" class="st7" cx="198.3" cy="337.5" rx="0.5" ry="0.4"/>
			
				<ellipse transform="matrix(0.656 -0.7548 0.7548 0.656 -184.3009 266.661)" class="st7" cx="200.4" cy="335.5" rx="0.7" ry="0.6"/>
			
				<ellipse transform="matrix(0.6559 -0.7548 0.7548 0.6559 -186.1317 267.1536)" class="st7" cx="200" cy="337.8" rx="0.5" ry="0.4"/>
			
				<ellipse transform="matrix(0.656 -0.7547 0.7547 0.656 -185.5742 268.2121)" class="st7" cx="201.5" cy="337.7" rx="0.4" ry="0.4"/>
			
				<ellipse transform="matrix(0.6559 -0.7548 0.7548 0.6559 -185.5702 266.3117)" class="st7" cx="199.3" cy="336.7" rx="0.2" ry="0.2"/>
			
				<ellipse transform="matrix(0.656 -0.7548 0.7548 0.656 -185.2294 265.6151)" class="st7" cx="198.8" cy="336" rx="0.2" ry="0.2"/>
			
				<ellipse transform="matrix(0.6559 -0.7548 0.7548 0.6559 -187.2716 266.7377)" class="st7" cx="199" cy="338.8" rx="0.2" ry="0.2"/>
			
				<ellipse transform="matrix(0.656 -0.7548 0.7548 0.656 -186.6844 267.7986)" class="st7" cx="200.4" cy="338.7" rx="0.2" ry="0.2"/>
			
				<ellipse transform="matrix(0.6559 -0.7548 0.7548 0.6559 -184.5361 268.1324)" class="st7" cx="201.9" cy="336.5" rx="0.2" ry="0.2"/>
			
				<ellipse transform="matrix(0.656 -0.7548 0.7548 0.656 -185.0198 267.3051)" class="st7" cx="200.7" cy="336.6" rx="0.2" ry="0.2"/>
		</g>
	</g>
</g>
</svg>
