<?xml version="1.0" encoding="utf-8"?>
<!-- Generator: Adobe Illustrator 21.0.1, SVG Export Plug-In . SVG Version: 6.00 Build 0)  -->
<svg version="1.1" id="Layer_1" xmlns="http://www.w3.org/2000/svg" xmlns:xlink="http://www.w3.org/1999/xlink" x="0px" y="0px"
	 viewBox="0 0 165 48" style="enable-background:new 0 0 165 48;" xml:space="preserve">
<style type="text/css">
	.st0{fill:#F04B45;}
	.st1{fill:#F6D376;}
	.st2{fill:url(#SVGID_1_);}
	.st3{fill:#FB1200;}
	.st4{fill:url(#SVGID_2_);}
	.st5{fill:url(#SVGID_3_);}
	.st6{fill:url(#SVGID_4_);}
	.st7{fill:#FF5337;}
	.st8{fill:url(#SVGID_5_);}
	.st9{fill:url(#SVGID_6_);}
	.st10{fill:url(#SVGID_7_);}
	.st11{fill:url(#SVGID_8_);}
	.st12{fill:url(#SVGID_9_);}
	.st13{fill:url(#SVGID_10_);}
	.st14{fill:url(#SVGID_11_);}
	.st15{fill:url(#SVGID_12_);}
	.st16{fill:url(#SVGID_13_);}
	.st17{fill:url(#SVGID_14_);}
	.st18{fill:url(#SVGID_15_);}
	.st19{fill:url(#SVGID_16_);}
	.st20{fill:url(#SVGID_17_);}
	.st21{fill:url(#SVGID_18_);}
	.st22{fill:url(#SVGID_19_);}
	.st23{fill:url(#SVGID_20_);}
	.st24{fill:url(#SVGID_21_);}
	.st25{fill:url(#SVGID_22_);}
	.st26{fill:url(#SVGID_23_);}
	.st27{fill:url(#SVGID_24_);}
	.st28{fill:url(#SVGID_25_);}
	.st29{fill:url(#SVGID_26_);}
	.st30{fill:url(#SVGID_27_);}
	.st31{fill:url(#SVGID_28_);}
	.st32{fill:#FFFFFF;}
	.st33{font-family:'NexaBold';}
	.st34{font-size:7.6705px;}
</style>
<g>
	<path class="st0" d="M115.8,5H48.6C38.8,5,30.9,13,30.9,22.8v0c0,9.8,7.9,17.7,17.7,17.7h67.2c9.8,0,17.7-7.9,17.7-17.7v0
		C133.6,13,125.6,5,115.8,5z"/>
	<path class="st1" d="M26.1,29.5c0,0-2.6-2.6,0-8.2s-0.5-11.1,3.3-12.3s4.9-4.6,8.1-4.6s4.8-2.6,7.7-1.1s6.3-0.3,8.5,0.9
		c2.2,1.3,7.1,0.6,11.4-0.2s4.6-2.2,8.2-0.8C77,4.8,85.3,1.5,86.7,4.3c1.4,2.7,3.8,5.6-2.6,4.8s-4.9-2.4-14.6-0.5S58.7,7.7,50.9,8.4
		s-11.3,1.7-13.5,4.9c-2.2,3.2-4.1,5.3-3.6,8.7s-1.2,5.3-2.2,9.4c-1,4.1,4.3,8.5,0.5,9.9c-3.8,1.4-0.8-7.3-2.6-8
		C27.7,32.6,26.1,29.5,26.1,29.5z"/>
	<g>
		
			<linearGradient id="SVGID_1_" gradientUnits="userSpaceOnUse" x1="408.5653" y1="-1302.3553" x2="413.0337" y2="-1302.3553" gradientTransform="matrix(-0.6094 -0.7929 0.7929 -0.6094 1368.0034 -462.9705)">
			<stop  offset="0" style="stop-color:#FFAE30"/>
			<stop  offset="1" style="stop-color:#FF7233"/>
		</linearGradient>
		<path class="st2" d="M83.6,3.1c0.9-0.7,2.3-0.5,3,0.5c0.8,1,0.6,2.3-0.3,3c-0.9,0.7-2.3,0.5-3-0.5C82.6,5.2,82.7,3.8,83.6,3.1z"/>
		<g>
			<ellipse transform="matrix(0.7929 -0.6093 0.6093 0.7929 14.5019 52.8781)" class="st3" cx="85.1" cy="5.1" rx="2.1" ry="2.2"/>
			<g>
				
					<linearGradient id="SVGID_2_" gradientUnits="userSpaceOnUse" x1="408.3656" y1="-1303.4426" x2="412.8341" y2="-1303.4426" gradientTransform="matrix(-0.6094 -0.7929 0.7929 -0.6094 1368.0034 -462.9705)">
					<stop  offset="0" style="stop-color:#FB1200;stop-opacity:0"/>
					<stop  offset="9.790792e-02" style="stop-color:#FC2010;stop-opacity:9.810442e-02"/>
					<stop  offset="0.2783" style="stop-color:#FC3526;stop-opacity:0.2788"/>
					<stop  offset="0.4745" style="stop-color:#FC4436;stop-opacity:0.4754"/>
					<stop  offset="0.6962" style="stop-color:#FC4D3F;stop-opacity:0.6976"/>
					<stop  offset="0.998" style="stop-color:#FC5042"/>
				</linearGradient>
				<path class="st4" d="M83.5,6.3c-0.7-1-0.6-2.3,0.2-3c0,0,0,0,0,0C82.8,4,82.7,5.4,83.5,6.3c0.7,1.1,2,1.3,2.9,0.6c0,0,0,0,0,0
					C85.6,7.5,84.2,7.3,83.5,6.3z"/>
			</g>
			
				<linearGradient id="SVGID_3_" gradientUnits="userSpaceOnUse" x1="410.5999" y1="-1300.6556" x2="410.5999" y2="-1304.2146" gradientTransform="matrix(-0.6094 -0.7929 0.7929 -0.6094 1368.0034 -462.9705)">
				<stop  offset="0" style="stop-color:#FB1200;stop-opacity:0"/>
				<stop  offset="0.998" style="stop-color:#FC5042"/>
			</linearGradient>
			<path class="st5" d="M83.9,3.6C84.7,3,85.8,3.2,86.5,4c0.6,0.8,0.5,2-0.2,2.6c-0.8,0.6-1.9,0.4-2.6-0.4C83,5.3,83.1,4.2,83.9,3.6
				z"/>
			
				<linearGradient id="SVGID_4_" gradientUnits="userSpaceOnUse" x1="411.3643" y1="-1300.6556" x2="411.3643" y2="-1304.2147" gradientTransform="matrix(-0.6094 -0.7929 0.7929 -0.6094 1368.0034 -462.9705)">
				<stop  offset="0" style="stop-color:#FB1200;stop-opacity:0"/>
				<stop  offset="9.790792e-02" style="stop-color:#FC2010;stop-opacity:9.810442e-02"/>
				<stop  offset="0.2783" style="stop-color:#FC3526;stop-opacity:0.2788"/>
				<stop  offset="0.4745" style="stop-color:#FC4436;stop-opacity:0.4754"/>
				<stop  offset="0.6962" style="stop-color:#FC4D3F;stop-opacity:0.6976"/>
				<stop  offset="0.998" style="stop-color:#FC5042"/>
			</linearGradient>
			<path class="st6" d="M83.9,3.6C84.7,3,85.8,3.2,86.5,4c0.6,0.8-0.9,0.1-1.7,0.7C84,5.3,84.3,7,83.6,6.2C83,5.4,83.1,4.2,83.9,3.6
				z"/>
			<g>
				<path class="st3" d="M83.6,3.4c0.1-0.1,0.2-0.1,0.3-0.2c1-0.5,2.3-0.1,2.9,1c0.5,1,0.3,2.1-0.5,2.7c0,0,0.1-0.1,0.1-0.1
					c0.9-0.7,1-2.1,0.3-3c-0.8-1-2.1-1.2-3-0.5C83.7,3.4,83.6,3.4,83.6,3.4z"/>
			</g>
			<ellipse transform="matrix(0.793 -0.6092 0.6092 0.793 13.6462 53.1867)" class="st7" cx="85.1" cy="6.5" rx="0.3" ry="0.4"/>
			<ellipse transform="matrix(0.7929 -0.6093 0.6093 0.7929 14.5027 52.0803)" class="st7" cx="83.9" cy="4.7" rx="0.5" ry="0.5"/>
			<ellipse transform="matrix(0.7929 -0.6093 0.6093 0.7929 14.4588 53.198)" class="st7" cx="85.5" cy="5.3" rx="0.3" ry="0.4"/>
			<ellipse transform="matrix(0.793 -0.6092 0.6092 0.793 15.1675 53.0719)" class="st7" cx="85.7" cy="4.2" rx="0.3" ry="0.3"/>
			<ellipse transform="matrix(0.7929 -0.6093 0.6093 0.7929 14.0821 52.7345)" class="st7" cx="84.6" cy="5.6" rx="0.2" ry="0.2"/>
			<ellipse transform="matrix(0.793 -0.6093 0.6093 0.793 13.7549 52.4222)" class="st7" cx="84" cy="6" rx="0.2" ry="0.2"/>
			<ellipse transform="matrix(0.7929 -0.6093 0.6093 0.7929 14.0253 53.7682)" class="st7" cx="86.1" cy="6.2" rx="0.2" ry="0.2"/>
			<ellipse transform="matrix(0.793 -0.6093 0.6093 0.793 14.732 53.6237)" class="st7" cx="86.3" cy="5.1" rx="0.2" ry="0.2"/>
			<ellipse transform="matrix(0.7929 -0.6093 0.6093 0.7929 15.2892 52.4693)" class="st7" cx="84.8" cy="3.7" rx="0.2" ry="0.2"/>
			<ellipse transform="matrix(0.793 -0.6093 0.6093 0.793 14.7443 52.599)" class="st7" cx="84.8" cy="4.6" rx="0.2" ry="0.2"/>
		</g>
	</g>
	<g>
		
			<linearGradient id="SVGID_5_" gradientUnits="userSpaceOnUse" x1="428.3134" y1="-1361.3992" x2="431.4398" y2="-1361.3992" gradientTransform="matrix(-0.6094 -0.7929 0.7929 -0.6094 1368.0034 -462.9705)">
			<stop  offset="0" style="stop-color:#FFAE30"/>
			<stop  offset="1" style="stop-color:#FF7233"/>
		</linearGradient>
		<path class="st8" d="M25.6,24.5c0.6-0.5,1.6-0.3,2.1,0.4c0.5,0.7,0.4,1.6-0.2,2.1c-0.6,0.5-1.6,0.3-2.1-0.4
			C24.9,25.9,25,25,25.6,24.5z"/>
		<g>
			
				<ellipse transform="matrix(0.7929 -0.6093 0.6093 0.7929 -10.2707 21.5626)" class="st3" cx="26.6" cy="25.9" rx="1.5" ry="1.6"/>
			<g>
				
					<linearGradient id="SVGID_6_" gradientUnits="userSpaceOnUse" x1="428.1737" y1="-1362.16" x2="431.3001" y2="-1362.16" gradientTransform="matrix(-0.6094 -0.7929 0.7929 -0.6094 1368.0034 -462.9705)">
					<stop  offset="0" style="stop-color:#FB1200;stop-opacity:0"/>
					<stop  offset="9.790792e-02" style="stop-color:#FC2010;stop-opacity:9.810442e-02"/>
					<stop  offset="0.2783" style="stop-color:#FC3526;stop-opacity:0.2788"/>
					<stop  offset="0.4745" style="stop-color:#FC4436;stop-opacity:0.4754"/>
					<stop  offset="0.6962" style="stop-color:#FC4D3F;stop-opacity:0.6976"/>
					<stop  offset="0.998" style="stop-color:#FC5042"/>
				</linearGradient>
				<path class="st9" d="M25.5,26.7c-0.5-0.7-0.4-1.6,0.2-2.1c0,0,0,0,0,0C25,25.1,24.9,26.1,25.5,26.7c0.5,0.7,1.4,0.9,2,0.4
					c0,0,0,0,0,0C26.9,27.6,26,27.4,25.5,26.7z"/>
			</g>
			
				<linearGradient id="SVGID_7_" gradientUnits="userSpaceOnUse" x1="429.7369" y1="-1360.21" x2="429.7369" y2="-1362.7002" gradientTransform="matrix(-0.6094 -0.7929 0.7929 -0.6094 1368.0034 -462.9705)">
				<stop  offset="0" style="stop-color:#FB1200;stop-opacity:0"/>
				<stop  offset="0.998" style="stop-color:#FC5042"/>
			</linearGradient>
			<path class="st10" d="M25.8,24.8c0.5-0.4,1.4-0.3,1.8,0.3c0.5,0.6,0.4,1.4-0.2,1.8c-0.5,0.4-1.4,0.3-1.8-0.3
				C25.2,26.1,25.2,25.2,25.8,24.8z"/>
			
				<linearGradient id="SVGID_8_" gradientUnits="userSpaceOnUse" x1="430.2718" y1="-1360.21" x2="430.2718" y2="-1362.7002" gradientTransform="matrix(-0.6094 -0.7929 0.7929 -0.6094 1368.0034 -462.9705)">
				<stop  offset="0" style="stop-color:#FB1200;stop-opacity:0"/>
				<stop  offset="9.790792e-02" style="stop-color:#FC2010;stop-opacity:9.810442e-02"/>
				<stop  offset="0.2783" style="stop-color:#FC3526;stop-opacity:0.2788"/>
				<stop  offset="0.4745" style="stop-color:#FC4436;stop-opacity:0.4754"/>
				<stop  offset="0.6962" style="stop-color:#FC4D3F;stop-opacity:0.6976"/>
				<stop  offset="0.998" style="stop-color:#FC5042"/>
			</linearGradient>
			<path class="st11" d="M25.8,24.8c0.5-0.4,1.4-0.3,1.8,0.3c0.5,0.6-0.6,0.1-1.2,0.5c-0.5,0.4-0.3,1.6-0.8,1
				C25.2,26.1,25.2,25.3,25.8,24.8z"/>
			<g>
				<path class="st3" d="M25.6,24.7c0.1-0.1,0.1-0.1,0.2-0.1c0.7-0.4,1.6,0,2,0.7c0.3,0.7,0.2,1.5-0.3,1.9c0,0,0.1,0,0.1-0.1
					c0.6-0.5,0.7-1.4,0.2-2.1C27.2,24.3,26.3,24.2,25.6,24.7C25.6,24.7,25.6,24.7,25.6,24.7z"/>
			</g>
			<ellipse transform="matrix(0.793 -0.6092 0.6092 0.793 -10.8665 21.7795)" class="st7" cx="26.6" cy="26.9" rx="0.2" ry="0.2"/>
			<ellipse transform="matrix(0.7929 -0.6093 0.6093 0.7929 -10.27 21.0045)" class="st7" cx="25.8" cy="25.6" rx="0.3" ry="0.4"/>
			<ellipse transform="matrix(0.7929 -0.6093 0.6093 0.7929 -10.3012 21.7864)" class="st7" cx="26.9" cy="26" rx="0.2" ry="0.2"/>
			<ellipse transform="matrix(0.793 -0.6092 0.6092 0.793 -9.8019 21.6993)" class="st7" cx="27" cy="25.3" rx="0.2" ry="0.2"/>
			<ellipse transform="matrix(0.7929 -0.6093 0.6093 0.7929 -10.5648 21.462)" class="st7" cx="26.3" cy="26.3" rx="0.1" ry="0.1"/>
			<ellipse transform="matrix(0.793 -0.6093 0.6093 0.793 -10.7923 21.244)" class="st7" cx="25.9" cy="26.5" rx="0.1" ry="0.1"/>
			
				<ellipse transform="matrix(0.7929 -0.6093 0.6093 0.7929 -10.6045 22.1853)" class="st7" cx="27.3" cy="26.7" rx="0.1" ry="0.1"/>
			<ellipse transform="matrix(0.793 -0.6093 0.6093 0.793 -10.1086 22.0847)" class="st7" cx="27.4" cy="25.9" rx="0.1" ry="0.1"/>
			<ellipse transform="matrix(0.7929 -0.6093 0.6093 0.7929 -9.7202 21.2765)" class="st7" cx="26.4" cy="24.9" rx="0.1" ry="0.1"/>
			<ellipse transform="matrix(0.793 -0.6093 0.6093 0.793 -10.1 21.3677)" class="st7" cx="26.4" cy="25.5" rx="0.1" ry="0.1"/>
		</g>
	</g>
	<g>
		
			<linearGradient id="SVGID_9_" gradientUnits="userSpaceOnUse" x1="437.1097" y1="-1341.0969" x2="441.5781" y2="-1341.0969" gradientTransform="matrix(-0.6094 -0.7929 0.7929 -0.6094 1368.0034 -462.9705)">
			<stop  offset="0" style="stop-color:#FFAE30"/>
			<stop  offset="1" style="stop-color:#FF7233"/>
		</linearGradient>
		<path class="st12" d="M35.5,4.1c0.9-0.7,2.3-0.5,3,0.5c0.8,1,0.6,2.3-0.3,3c-0.9,0.7-2.3,0.5-3-0.5C34.5,6.2,34.6,4.8,35.5,4.1z"
			/>
		<g>
			<ellipse transform="matrix(0.7929 -0.6093 0.6093 0.7929 3.946 23.7639)" class="st3" cx="36.9" cy="6.1" rx="2.1" ry="2.2"/>
			<g>
				
					<linearGradient id="SVGID_10_" gradientUnits="userSpaceOnUse" x1="436.91" y1="-1342.1842" x2="441.3784" y2="-1342.1842" gradientTransform="matrix(-0.6094 -0.7929 0.7929 -0.6094 1368.0034 -462.9705)">
					<stop  offset="0" style="stop-color:#FB1200;stop-opacity:0"/>
					<stop  offset="9.790792e-02" style="stop-color:#FC2010;stop-opacity:9.810442e-02"/>
					<stop  offset="0.2783" style="stop-color:#FC3526;stop-opacity:0.2788"/>
					<stop  offset="0.4745" style="stop-color:#FC4436;stop-opacity:0.4754"/>
					<stop  offset="0.6962" style="stop-color:#FC4D3F;stop-opacity:0.6976"/>
					<stop  offset="0.998" style="stop-color:#FC5042"/>
				</linearGradient>
				<path class="st13" d="M35.4,7.3c-0.7-1-0.6-2.3,0.2-3c0,0,0,0,0,0C34.7,5,34.5,6.4,35.4,7.3c0.7,1.1,2,1.3,2.9,0.6c0,0,0,0,0,0
					C37.4,8.5,36.1,8.2,35.4,7.3z"/>
			</g>
			
				<linearGradient id="SVGID_11_" gradientUnits="userSpaceOnUse" x1="439.1442" y1="-1339.3972" x2="439.1442" y2="-1342.9562" gradientTransform="matrix(-0.6094 -0.7929 0.7929 -0.6094 1368.0034 -462.9705)">
				<stop  offset="0" style="stop-color:#FB1200;stop-opacity:0"/>
				<stop  offset="0.998" style="stop-color:#FC5042"/>
			</linearGradient>
			<path class="st14" d="M35.8,4.6C36.5,4,37.7,4.2,38.3,5c0.6,0.8,0.5,2-0.2,2.6c-0.8,0.6-1.9,0.4-2.6-0.4
				C34.9,6.3,35,5.2,35.8,4.6z"/>
			
				<linearGradient id="SVGID_12_" gradientUnits="userSpaceOnUse" x1="439.9087" y1="-1339.3972" x2="439.9087" y2="-1342.9562" gradientTransform="matrix(-0.6094 -0.7929 0.7929 -0.6094 1368.0034 -462.9705)">
				<stop  offset="0" style="stop-color:#FB1200;stop-opacity:0"/>
				<stop  offset="9.790792e-02" style="stop-color:#FC2010;stop-opacity:9.810442e-02"/>
				<stop  offset="0.2783" style="stop-color:#FC3526;stop-opacity:0.2788"/>
				<stop  offset="0.4745" style="stop-color:#FC4436;stop-opacity:0.4754"/>
				<stop  offset="0.6962" style="stop-color:#FC4D3F;stop-opacity:0.6976"/>
				<stop  offset="0.998" style="stop-color:#FC5042"/>
			</linearGradient>
			<path class="st15" d="M35.8,4.6C36.6,4,37.7,4.2,38.4,5c0.6,0.8-0.9,0.1-1.7,0.7c-0.8,0.6-0.5,2.3-1.1,1.5
				C34.9,6.3,35,5.2,35.8,4.6z"/>
			<g>
				<path class="st3" d="M35.5,4.4c0.1-0.1,0.2-0.1,0.3-0.2c1-0.5,2.3-0.1,2.9,1c0.5,1,0.3,2.1-0.5,2.7c0,0,0.1-0.1,0.1-0.1
					c0.9-0.7,1-2.1,0.3-3c-0.8-1-2.1-1.2-3-0.5C35.5,4.3,35.5,4.4,35.5,4.4z"/>
			</g>
			<ellipse transform="matrix(0.793 -0.6092 0.6092 0.793 3.0926 24.0754)" class="st7" cx="37" cy="7.5" rx="0.3" ry="0.4"/>
			<ellipse transform="matrix(0.7929 -0.6093 0.6093 0.7929 3.9468 22.9662)" class="st7" cx="35.8" cy="5.7" rx="0.5" ry="0.5"/>
			<ellipse transform="matrix(0.7929 -0.6093 0.6093 0.7929 3.9026 24.0834)" class="st7" cx="37.4" cy="6.3" rx="0.3" ry="0.4"/>
			<ellipse transform="matrix(0.793 -0.6092 0.6092 0.793 4.614 23.9608)" class="st7" cx="37.6" cy="5.2" rx="0.3" ry="0.3"/>
			<ellipse transform="matrix(0.7929 -0.6093 0.6093 0.7929 3.5259 23.6199)" class="st7" cx="36.5" cy="6.6" rx="0.2" ry="0.2"/>
			<ellipse transform="matrix(0.793 -0.6093 0.6093 0.793 3.1998 23.309)" class="st7" cx="35.9" cy="6.9" rx="0.2" ry="0.2"/>
			<ellipse transform="matrix(0.7929 -0.6093 0.6093 0.7929 3.4691 24.6535)" class="st7" cx="38" cy="7.2" rx="0.2" ry="0.2"/>
			<ellipse transform="matrix(0.793 -0.6093 0.6093 0.793 4.177 24.5105)" class="st7" cx="38.2" cy="6.1" rx="0.2" ry="0.2"/>
			<ellipse transform="matrix(0.7929 -0.6093 0.6093 0.7929 4.7329 23.3547)" class="st7" cx="36.7" cy="4.7" rx="0.2" ry="0.2"/>
			<ellipse transform="matrix(0.793 -0.6093 0.6093 0.793 4.1893 23.4859)" class="st7" cx="36.7" cy="5.6" rx="0.2" ry="0.2"/>
		</g>
	</g>
	<g>
		
			<linearGradient id="SVGID_13_" gradientUnits="userSpaceOnUse" x1="434.4824" y1="-1346.2877" x2="438.3487" y2="-1346.2877" gradientTransform="matrix(-0.6094 -0.7929 0.7929 -0.6094 1368.0034 -462.9705)">
			<stop  offset="0" style="stop-color:#FFAE30"/>
			<stop  offset="1" style="stop-color:#FF7233"/>
		</linearGradient>
		<path class="st16" d="M33.4,9.8c0.8-0.6,2-0.4,2.6,0.4c0.7,0.8,0.5,2-0.2,2.6c-0.8,0.6-2,0.4-2.6-0.4
			C32.5,11.6,32.6,10.4,33.4,9.8z"/>
		<g>
			<ellipse transform="matrix(0.7929 -0.6093 0.6093 0.7929 0.1365 23.4684)" class="st3" cx="34.6" cy="11.5" rx="1.8" ry="1.9"/>
			<g>
				
					<linearGradient id="SVGID_14_" gradientUnits="userSpaceOnUse" x1="434.3097" y1="-1347.2286" x2="438.1759" y2="-1347.2286" gradientTransform="matrix(-0.6094 -0.7929 0.7929 -0.6094 1368.0034 -462.9705)">
					<stop  offset="0" style="stop-color:#FB1200;stop-opacity:0"/>
					<stop  offset="9.790792e-02" style="stop-color:#FC2010;stop-opacity:9.810442e-02"/>
					<stop  offset="0.2783" style="stop-color:#FC3526;stop-opacity:0.2788"/>
					<stop  offset="0.4745" style="stop-color:#FC4436;stop-opacity:0.4754"/>
					<stop  offset="0.6962" style="stop-color:#FC4D3F;stop-opacity:0.6976"/>
					<stop  offset="0.998" style="stop-color:#FC5042"/>
				</linearGradient>
				<path class="st17" d="M33.3,12.6c-0.6-0.8-0.5-2,0.2-2.6c0,0,0,0,0,0C32.6,10.6,32.5,11.8,33.3,12.6c0.6,0.9,1.7,1.1,2.5,0.5
					c0,0,0,0,0,0C35,13.6,33.9,13.4,33.3,12.6z"/>
			</g>
			
				<linearGradient id="SVGID_15_" gradientUnits="userSpaceOnUse" x1="436.2428" y1="-1344.8171" x2="436.2428" y2="-1347.8966" gradientTransform="matrix(-0.6094 -0.7929 0.7929 -0.6094 1368.0034 -462.9705)">
				<stop  offset="0" style="stop-color:#FB1200;stop-opacity:0"/>
				<stop  offset="0.998" style="stop-color:#FC5042"/>
			</linearGradient>
			<path class="st18" d="M33.6,10.2c0.7-0.5,1.7-0.3,2.2,0.4c0.6,0.7,0.5,1.7-0.2,2.3c-0.7,0.5-1.7,0.3-2.2-0.4
				C32.8,11.7,32.9,10.7,33.6,10.2z"/>
			
				<linearGradient id="SVGID_16_" gradientUnits="userSpaceOnUse" x1="436.9042" y1="-1344.8171" x2="436.9042" y2="-1347.8966" gradientTransform="matrix(-0.6094 -0.7929 0.7929 -0.6094 1368.0034 -462.9705)">
				<stop  offset="0" style="stop-color:#FB1200;stop-opacity:0"/>
				<stop  offset="9.790792e-02" style="stop-color:#FC2010;stop-opacity:9.810442e-02"/>
				<stop  offset="0.2783" style="stop-color:#FC3526;stop-opacity:0.2788"/>
				<stop  offset="0.4745" style="stop-color:#FC4436;stop-opacity:0.4754"/>
				<stop  offset="0.6962" style="stop-color:#FC4D3F;stop-opacity:0.6976"/>
				<stop  offset="0.998" style="stop-color:#FC5042"/>
			</linearGradient>
			<path class="st19" d="M33.6,10.2c0.7-0.5,1.7-0.3,2.2,0.4c0.6,0.7-0.8,0.1-1.5,0.6c-0.7,0.5-0.4,2-1,1.3
				C32.8,11.8,32.9,10.7,33.6,10.2z"/>
			<g>
				<path class="st3" d="M33.3,10.1c0.1-0.1,0.2-0.1,0.3-0.2c0.9-0.5,2,0,2.5,0.9c0.4,0.8,0.2,1.8-0.4,2.3c0,0,0.1,0,0.1-0.1
					c0.8-0.6,0.9-1.8,0.2-2.6S34.2,9.4,33.3,10.1C33.4,10,33.4,10.1,33.3,10.1z"/>
			</g>
			<ellipse transform="matrix(0.793 -0.6092 0.6092 0.793 -0.6017 23.7374)" class="st7" cx="34.6" cy="12.8" rx="0.3" ry="0.3"/>
			<ellipse transform="matrix(0.7929 -0.6093 0.6093 0.7929 0.1372 22.7782)" class="st7" cx="33.6" cy="11.2" rx="0.4" ry="0.4"/>
			
				<ellipse transform="matrix(0.7929 -0.6093 0.6093 0.7929 9.883707e-02 23.745)" class="st7" cx="35" cy="11.7" rx="0.3" ry="0.3"/>
			<ellipse transform="matrix(0.793 -0.6092 0.6092 0.793 0.7147 23.6383)" class="st7" cx="35.1" cy="10.8" rx="0.3" ry="0.3"/>
			<ellipse transform="matrix(0.7929 -0.6093 0.6093 0.7929 -0.2271 23.3439)" class="st7" cx="34.2" cy="12" rx="0.1" ry="0.2"/>
			<ellipse transform="matrix(0.793 -0.6093 0.6093 0.793 -0.5091 23.0747)" class="st7" cx="33.7" cy="12.3" rx="0.1" ry="0.2"/>
			<ellipse transform="matrix(0.7929 -0.6093 0.6093 0.7929 -0.2762 24.2382)" class="st7" cx="35.5" cy="12.5" rx="0.1" ry="0.2"/>
			<ellipse transform="matrix(0.793 -0.6093 0.6093 0.793 0.3364 24.1143)" class="st7" cx="35.6" cy="11.6" rx="0.1" ry="0.2"/>
			<ellipse transform="matrix(0.7929 -0.6093 0.6093 0.7929 0.8173 23.1144)" class="st7" cx="34.4" cy="10.4" rx="0.1" ry="0.2"/>
			<ellipse transform="matrix(0.793 -0.6093 0.6093 0.793 0.347 23.2277)" class="st7" cx="34.3" cy="11.1" rx="0.1" ry="0.2"/>
		</g>
	</g>
	<g>
		
			<linearGradient id="SVGID_17_" gradientUnits="userSpaceOnUse" x1="81.4346" y1="-2411.8896" x2="87.2815" y2="-2411.8896" gradientTransform="matrix(-0.9132 -0.4075 0.4075 -0.9132 1122.1246 -2162.7351)">
			<stop  offset="0" style="stop-color:#FFAE30"/>
			<stop  offset="1" style="stop-color:#FF7233"/>
		</linearGradient>
		<path class="st20" d="M59.5,4.3c0.6-1.4,2.3-1.9,3.8-1.3c1.5,0.7,2.2,2.3,1.6,3.7C64.2,8,62.5,8.6,61,8
			C59.5,7.3,58.8,5.7,59.5,4.3z"/>
		<g>
			<ellipse transform="matrix(0.4076 -0.9132 0.9132 0.4076 31.736 60.2779)" class="st3" cx="62.3" cy="5.7" rx="2.7" ry="2.9"/>
			<g>
				
					<linearGradient id="SVGID_18_" gradientUnits="userSpaceOnUse" x1="81.1733" y1="-2413.3125" x2="87.0203" y2="-2413.3125" gradientTransform="matrix(-0.9132 -0.4075 0.4075 -0.9132 1122.1246 -2162.7351)">
					<stop  offset="0" style="stop-color:#FB1200;stop-opacity:0"/>
					<stop  offset="9.790792e-02" style="stop-color:#FC2010;stop-opacity:9.810442e-02"/>
					<stop  offset="0.2783" style="stop-color:#FC3526;stop-opacity:0.2788"/>
					<stop  offset="0.4745" style="stop-color:#FC4436;stop-opacity:0.4754"/>
					<stop  offset="0.6962" style="stop-color:#FC4D3F;stop-opacity:0.6976"/>
					<stop  offset="0.998" style="stop-color:#FC5042"/>
				</linearGradient>
				<path class="st21" d="M61.3,8c-1.4-0.6-2.1-2.2-1.6-3.6c0,0,0,0,0,0.1c-0.6,1.4,0.1,3,1.6,3.7s3.2,0.1,3.8-1.3c0,0,0,0,0-0.1
					C64.4,8.1,62.7,8.7,61.3,8z"/>
			</g>
			
				<linearGradient id="SVGID_19_" gradientUnits="userSpaceOnUse" x1="84.0968" y1="-2409.6658" x2="84.0968" y2="-2414.3228" gradientTransform="matrix(-0.9132 -0.4075 0.4075 -0.9132 1122.1246 -2162.7351)">
				<stop  offset="0" style="stop-color:#FB1200;stop-opacity:0"/>
				<stop  offset="0.998" style="stop-color:#FC5042"/>
			</linearGradient>
			<path class="st22" d="M60,4.7c0.5-1.2,2-1.7,3.2-1.1c1.3,0.6,1.9,2,1.3,3.1c-0.5,1.2-2,1.7-3.2,1.1C60.1,7.2,59.5,5.8,60,4.7z"/>
			
				<linearGradient id="SVGID_20_" gradientUnits="userSpaceOnUse" x1="85.0971" y1="-2409.6658" x2="85.0971" y2="-2414.3228" gradientTransform="matrix(-0.9132 -0.4075 0.4075 -0.9132 1122.1246 -2162.7351)">
				<stop  offset="0" style="stop-color:#FB1200;stop-opacity:0"/>
				<stop  offset="9.790792e-02" style="stop-color:#FC2010;stop-opacity:9.810442e-02"/>
				<stop  offset="0.2783" style="stop-color:#FC3526;stop-opacity:0.2788"/>
				<stop  offset="0.4745" style="stop-color:#FC4436;stop-opacity:0.4754"/>
				<stop  offset="0.6962" style="stop-color:#FC4D3F;stop-opacity:0.6976"/>
				<stop  offset="0.998" style="stop-color:#FC5042"/>
			</linearGradient>
			<path class="st23" d="M60,4.7c0.5-1.2,2-1.7,3.2-1.1c1.3,0.6-1,0.7-1.5,1.9c-0.5,1.2,0.9,2.9-0.4,2.4C60.1,7.2,59.5,5.8,60,4.7z"
				/>
			<g>
				<path class="st3" d="M59.6,4.7c0.1-0.2,0.1-0.3,0.2-0.4c0.8-1.2,2.6-1.5,3.9-0.6c1.2,0.8,1.6,2.2,1.1,3.4C64.9,7,65,6.9,65,6.9
					c0.6-1.4-0.1-3-1.6-3.7s-3.2-0.1-3.8,1.3C59.6,4.5,59.6,4.6,59.6,4.7z"/>
			</g>
			<ellipse transform="matrix(0.4076 -0.9131 0.9131 0.4076 30.8144 62.0639)" class="st7" cx="63.2" cy="7.3" rx="0.4" ry="0.5"/>
			<ellipse transform="matrix(0.4076 -0.9132 0.9132 0.4076 30.5421 58.9773)" class="st7" cx="60.7" cy="5.9" rx="0.6" ry="0.7"/>
			<ellipse transform="matrix(0.4076 -0.9132 0.9132 0.4076 32.1438 60.8636)" class="st7" cx="63" cy="5.7" rx="0.4" ry="0.5"/>
			<ellipse transform="matrix(0.4076 -0.9131 0.9131 0.4076 33.1212 59.5973)" class="st7" cx="62.5" cy="4.3" rx="0.4" ry="0.4"/>
			<ellipse transform="matrix(0.4076 -0.9132 0.9132 0.4076 30.8357 60.673)" class="st7" cx="62.2" cy="6.6" rx="0.2" ry="0.2"/>
			<ellipse transform="matrix(0.4076 -0.9132 0.9132 0.4076 29.8395 60.655)" class="st7" cx="61.7" cy="7.3" rx="0.2" ry="0.2"/>
			<ellipse transform="matrix(0.4076 -0.9132 0.9132 0.4076 32.292 62.4418)" class="st7" cx="64.3" cy="6.3" rx="0.2" ry="0.2"/>
			<ellipse transform="matrix(0.4076 -0.9132 0.9132 0.4076 33.2317 61.1479)" class="st7" cx="63.7" cy="5" rx="0.2" ry="0.2"/>
			<ellipse transform="matrix(0.4076 -0.9132 0.9132 0.4076 32.4044 58.4322)" class="st7" cx="61.2" cy="4.2" rx="0.2" ry="0.2"/>
			<ellipse transform="matrix(0.4076 -0.9132 0.9132 0.4076 31.7163 59.4604)" class="st7" cx="61.7" cy="5.3" rx="0.2" ry="0.2"/>
		</g>
	</g>
	<path class="st1" d="M129.4,28c0,0-0.6,2.6-3.9,5.3c-3.3,2.6-1.2,4.8-3.9,5.6c-2.6,0.8-4.8,1.9-9.3,1.2c-4.5-0.6-6.4-2.6-8.6-1.9
		s-5.4,3.9-1.4,4.5c4,0.6,3.4,3.3,8.2,2.8s1.7-0.5,8.9-2.3c7.1-1.9,13.1-1,14-6.3s3.4-8.9,2.2-10.2C134.4,25.6,131.6,24.3,129.4,28z
		"/>
	<g>
		
			<linearGradient id="SVGID_21_" gradientUnits="userSpaceOnUse" x1="361.693" y1="-1278.9946" x2="366.9124" y2="-1278.9946" gradientTransform="matrix(-0.6094 -0.7929 0.7929 -0.6094 1368.0034 -462.9705)">
			<stop  offset="0" style="stop-color:#FFAE30"/>
			<stop  offset="1" style="stop-color:#FF7233"/>
		</linearGradient>
		<path class="st24" d="M130.3,25.5c1.1-0.8,2.6-0.6,3.5,0.6c0.9,1.1,0.7,2.7-0.3,3.5c-1.1,0.8-2.6,0.6-3.5-0.6
			C129,27.9,129.2,26.3,130.3,25.5z"/>
		<g>
			
				<ellipse transform="matrix(0.7929 -0.6093 0.6093 0.7929 10.3941 86.1282)" class="st3" cx="131.9" cy="27.8" rx="2.4" ry="2.6"/>
			<g>
				
					<linearGradient id="SVGID_22_" gradientUnits="userSpaceOnUse" x1="361.4597" y1="-1280.2648" x2="366.6792" y2="-1280.2648" gradientTransform="matrix(-0.6094 -0.7929 0.7929 -0.6094 1368.0034 -462.9705)">
					<stop  offset="0" style="stop-color:#FB1200;stop-opacity:0"/>
					<stop  offset="9.790792e-02" style="stop-color:#FC2010;stop-opacity:9.810442e-02"/>
					<stop  offset="0.2783" style="stop-color:#FC3526;stop-opacity:0.2788"/>
					<stop  offset="0.4745" style="stop-color:#FC4436;stop-opacity:0.4754"/>
					<stop  offset="0.6962" style="stop-color:#FC4D3F;stop-opacity:0.6976"/>
					<stop  offset="0.998" style="stop-color:#FC5042"/>
				</linearGradient>
				<path class="st25" d="M130.1,29.2c-0.9-1.1-0.7-2.7,0.3-3.5c0,0,0,0-0.1,0c-1.1,0.8-1.2,2.4-0.3,3.5s2.5,1.4,3.5,0.6
					c0,0,0,0,0.1,0C132.5,30.6,131,30.3,130.1,29.2z"/>
			</g>
			
				<linearGradient id="SVGID_23_" gradientUnits="userSpaceOnUse" x1="364.0695" y1="-1277.0093" x2="364.0695" y2="-1281.1665" gradientTransform="matrix(-0.6094 -0.7929 0.7929 -0.6094 1368.0034 -462.9705)">
				<stop  offset="0" style="stop-color:#FB1200;stop-opacity:0"/>
				<stop  offset="0.998" style="stop-color:#FC5042"/>
			</linearGradient>
			<path class="st26" d="M130.6,26c0.9-0.7,2.3-0.5,3,0.5c0.8,1,0.6,2.3-0.3,3c-0.9,0.7-2.3,0.5-3-0.5
				C129.5,28.1,129.6,26.7,130.6,26z"/>
			
				<linearGradient id="SVGID_24_" gradientUnits="userSpaceOnUse" x1="364.9624" y1="-1277.0093" x2="364.9624" y2="-1281.1665" gradientTransform="matrix(-0.6094 -0.7929 0.7929 -0.6094 1368.0034 -462.9705)">
				<stop  offset="0" style="stop-color:#FB1200;stop-opacity:0"/>
				<stop  offset="9.790792e-02" style="stop-color:#FC2010;stop-opacity:9.810442e-02"/>
				<stop  offset="0.2783" style="stop-color:#FC3526;stop-opacity:0.2788"/>
				<stop  offset="0.4745" style="stop-color:#FC4436;stop-opacity:0.4754"/>
				<stop  offset="0.6962" style="stop-color:#FC4D3F;stop-opacity:0.6976"/>
				<stop  offset="0.998" style="stop-color:#FC5042"/>
			</linearGradient>
			<path class="st27" d="M130.6,26c0.9-0.7,2.3-0.5,3,0.5c0.8,1-1.1,0.1-2,0.8c-0.9,0.7-0.6,2.7-1.3,1.7
				C129.5,28.1,129.6,26.7,130.6,26z"/>
			<g>
				<path class="st3" d="M130.2,25.8c0.1-0.1,0.2-0.2,0.4-0.2c1.2-0.6,2.7-0.1,3.3,1.2c0.6,1.1,0.3,2.4-0.6,3.2c0,0,0.1-0.1,0.1-0.1
					c1.1-0.8,1.2-2.4,0.3-3.5c-0.9-1.1-2.5-1.4-3.5-0.6C130.3,25.7,130.2,25.8,130.2,25.8z"/>
			</g>
			<ellipse transform="matrix(0.793 -0.6092 0.6092 0.793 9.3944 86.4856)" class="st7" cx="132" cy="29.4" rx="0.4" ry="0.4"/>
			<ellipse transform="matrix(0.7929 -0.6093 0.6093 0.7929 10.395 85.1963)" class="st7" cx="130.5" cy="27.3" rx="0.6" ry="0.6"/>
			<ellipse transform="matrix(0.7929 -0.6093 0.6093 0.7929 10.3438 86.5024)" class="st7" cx="132.4" cy="28" rx="0.4" ry="0.4"/>
			<ellipse transform="matrix(0.793 -0.6092 0.6092 0.793 11.1713 86.3514)" class="st7" cx="132.7" cy="26.7" rx="0.4" ry="0.4"/>
			<ellipse transform="matrix(0.7929 -0.6093 0.6093 0.7929 9.9038 85.9609)" class="st7" cx="131.4" cy="28.4" rx="0.2" ry="0.2"/>
			<ellipse transform="matrix(0.793 -0.6093 0.6093 0.793 9.5215 85.5946)" class="st7" cx="130.7" cy="28.8" rx="0.2" ry="0.2"/>
			<ellipse transform="matrix(0.7929 -0.6093 0.6093 0.7929 9.8374 87.1683)" class="st7" cx="133.2" cy="29.1" rx="0.2" ry="0.2"/>
			<ellipse transform="matrix(0.793 -0.6093 0.6093 0.793 10.6629 86.998)" class="st7" cx="133.3" cy="27.8" rx="0.2" ry="0.2"/>
			
				<ellipse transform="matrix(0.7929 -0.6093 0.6093 0.7929 11.3137 85.6511)" class="st7" cx="131.7" cy="26.2" rx="0.2" ry="0.2"/>
			<ellipse transform="matrix(0.793 -0.6093 0.6093 0.793 10.6772 85.8011)" class="st7" cx="131.6" cy="27.2" rx="0.2" ry="0.2"/>
		</g>
	</g>
	<g>
		
			<linearGradient id="SVGID_25_" gradientUnits="userSpaceOnUse" x1="366.4845" y1="-1305.6825" x2="371.7039" y2="-1305.6825" gradientTransform="matrix(-0.6094 -0.7929 0.7929 -0.6094 1368.0034 -462.9705)">
			<stop  offset="0" style="stop-color:#FFAE30"/>
			<stop  offset="1" style="stop-color:#FF7233"/>
		</linearGradient>
		<path class="st28" d="M106.2,37.9c1.1-0.8,2.6-0.6,3.5,0.6c0.9,1.1,0.7,2.7-0.3,3.5c-1.1,0.8-2.6,0.6-3.5-0.6
			C105,40.3,105.1,38.7,106.2,37.9z"/>
		<g>
			
				<ellipse transform="matrix(0.7929 -0.6093 0.6093 0.7929 -2.1862 74.0358)" class="st3" cx="107.8" cy="40.2" rx="2.4" ry="2.6"/>
			<g>
				
					<linearGradient id="SVGID_26_" gradientUnits="userSpaceOnUse" x1="366.2513" y1="-1306.9526" x2="371.4707" y2="-1306.9526" gradientTransform="matrix(-0.6094 -0.7929 0.7929 -0.6094 1368.0034 -462.9705)">
					<stop  offset="0" style="stop-color:#FB1200;stop-opacity:0"/>
					<stop  offset="9.790792e-02" style="stop-color:#FC2010;stop-opacity:9.810442e-02"/>
					<stop  offset="0.2783" style="stop-color:#FC3526;stop-opacity:0.2788"/>
					<stop  offset="0.4745" style="stop-color:#FC4436;stop-opacity:0.4754"/>
					<stop  offset="0.6962" style="stop-color:#FC4D3F;stop-opacity:0.6976"/>
					<stop  offset="0.998" style="stop-color:#FC5042"/>
				</linearGradient>
				<path class="st29" d="M106,41.6c-0.9-1.1-0.7-2.7,0.3-3.5c0,0,0,0-0.1,0c-1.1,0.8-1.2,2.4-0.3,3.5c0.9,1.1,2.5,1.4,3.5,0.6
					c0,0,0,0,0.1,0C108.4,43,106.9,42.7,106,41.6z"/>
			</g>
			
				<linearGradient id="SVGID_27_" gradientUnits="userSpaceOnUse" x1="368.861" y1="-1303.6971" x2="368.861" y2="-1307.8544" gradientTransform="matrix(-0.6094 -0.7929 0.7929 -0.6094 1368.0034 -462.9705)">
				<stop  offset="0" style="stop-color:#FB1200;stop-opacity:0"/>
				<stop  offset="0.998" style="stop-color:#FC5042"/>
			</linearGradient>
			<path class="st30" d="M106.5,38.5c0.9-0.7,2.3-0.5,3,0.5c0.8,1,0.6,2.3-0.3,3c-0.9,0.7-2.3,0.5-3-0.5
				C105.4,40.5,105.6,39.2,106.5,38.5z"/>
			
				<linearGradient id="SVGID_28_" gradientUnits="userSpaceOnUse" x1="369.7539" y1="-1303.6971" x2="369.7539" y2="-1307.8544" gradientTransform="matrix(-0.6094 -0.7929 0.7929 -0.6094 1368.0034 -462.9705)">
				<stop  offset="0" style="stop-color:#FB1200;stop-opacity:0"/>
				<stop  offset="9.790792e-02" style="stop-color:#FC2010;stop-opacity:9.810442e-02"/>
				<stop  offset="0.2783" style="stop-color:#FC3526;stop-opacity:0.2788"/>
				<stop  offset="0.4745" style="stop-color:#FC4436;stop-opacity:0.4754"/>
				<stop  offset="0.6962" style="stop-color:#FC4D3F;stop-opacity:0.6976"/>
				<stop  offset="0.998" style="stop-color:#FC5042"/>
			</linearGradient>
			<path class="st31" d="M106.5,38.5c0.9-0.7,2.3-0.5,3,0.5c0.8,1-1.1,0.1-2,0.8c-0.9,0.7-0.6,2.7-1.3,1.7
				C105.4,40.5,105.6,39.2,106.5,38.5z"/>
			<g>
				<path class="st3" d="M106.1,38.3c0.1-0.1,0.2-0.2,0.4-0.2c1.2-0.6,2.7-0.1,3.3,1.2c0.6,1.1,0.3,2.4-0.6,3.2c0,0,0.1-0.1,0.1-0.1
					c1.1-0.8,1.2-2.4,0.3-3.5c-0.9-1.1-2.5-1.4-3.5-0.6C106.2,38.2,106.2,38.2,106.1,38.3z"/>
			</g>
			<ellipse transform="matrix(0.793 -0.6092 0.6092 0.793 -3.1841 74.3941)" class="st7" cx="107.9" cy="41.9" rx="0.4" ry="0.4"/>
			
				<ellipse transform="matrix(0.7929 -0.6093 0.6093 0.7929 -2.1853 73.1039)" class="st7" cx="106.5" cy="39.8" rx="0.6" ry="0.6"/>
			
				<ellipse transform="matrix(0.7929 -0.6093 0.6093 0.7929 -2.2368 74.4099)" class="st7" cx="108.4" cy="40.5" rx="0.4" ry="0.4"/>
			<ellipse transform="matrix(0.793 -0.6092 0.6092 0.793 -1.407 74.2599)" class="st7" cx="108.6" cy="39.2" rx="0.4" ry="0.4"/>
			
				<ellipse transform="matrix(0.7929 -0.6093 0.6093 0.7929 -2.6768 73.8684)" class="st7" cx="107.3" cy="40.9" rx="0.2" ry="0.2"/>
			<ellipse transform="matrix(0.793 -0.6093 0.6093 0.793 -3.0582 73.5025)" class="st7" cx="106.6" cy="41.3" rx="0.2" ry="0.2"/>
			
				<ellipse transform="matrix(0.7929 -0.6093 0.6093 0.7929 -2.7431 75.0758)" class="st7" cx="109.1" cy="41.6" rx="0.2" ry="0.2"/>
			<ellipse transform="matrix(0.793 -0.6093 0.6093 0.793 -1.9168 74.906)" class="st7" cx="109.3" cy="40.3" rx="0.2" ry="0.2"/>
			
				<ellipse transform="matrix(0.7929 -0.6093 0.6093 0.7929 -1.2669 73.5586)" class="st7" cx="107.6" cy="38.6" rx="0.2" ry="0.2"/>
			<ellipse transform="matrix(0.793 -0.6093 0.6093 0.793 -1.9024 73.7091)" class="st7" cx="107.5" cy="39.7" rx="0.2" ry="0.2"/>
		</g>
	</g>
	<path class="st32" d="M62.3,23.5l-6.6-6.6l8.4,4.8L62.3,23.5L62.3,23.5z M53.9,16.5c-0.4,0.2-0.7,0.6-0.7,1.1v13.3
		c0,0.5,0.3,0.9,0.7,1.1l7.7-7.7L53.9,16.5z M66.7,23.2l-1.8-1l-2,1.9l2,1.9l1.8-1C67.2,24.6,67.2,23.7,66.7,23.2L66.7,23.2z
		 M55.6,31.5l8.4-4.8l-1.8-1.8L55.6,31.5z"/>
	<g>
		<text transform="matrix(1 0 0 1 70.6714 26.5361)" class="st32 st33 st34">Play Store</text>
	</g>
</g>
</svg>
