<?xml version="1.0" encoding="utf-8"?>
<!-- Generator: Adobe Illustrator 21.0.1, SVG Export Plug-In . SVG Version: 6.00 Build 0)  -->
<svg version="1.1" id="Layer_1" xmlns="http://www.w3.org/2000/svg" xmlns:xlink="http://www.w3.org/1999/xlink" x="0px" y="0px"
	 viewBox="0 0 500 500" style="enable-background:new 0 0 500 500;" xml:space="preserve">
<style type="text/css">
	.st0{fill:#F04B45;}
	.st1{fill:#F6D376;}
	.st2{opacity:0.19;fill:#231F20;}
	.st3{fill:url(#SVGID_1_);}
	.st4{fill:#FB1200;}
	.st5{fill:url(#SVGID_2_);}
	.st6{fill:url(#SVGID_3_);}
	.st7{fill:url(#SVGID_4_);}
	.st8{fill:#FF5337;}
	.st9{fill:url(#SVGID_5_);}
	.st10{fill:url(#SVGID_6_);}
	.st11{fill:url(#SVGID_7_);}
	.st12{fill:url(#SVGID_8_);}
	.st13{fill:url(#SVGID_9_);}
	.st14{fill:url(#SVGID_10_);}
	.st15{fill:url(#SVGID_11_);}
	.st16{fill:url(#SVGID_12_);}
	.st17{fill:url(#SVGID_13_);}
	.st18{fill:url(#SVGID_14_);}
	.st19{fill:url(#SVGID_15_);}
	.st20{fill:url(#SVGID_16_);}
	.st21{fill:url(#SVGID_17_);}
	.st22{fill:url(#SVGID_18_);}
	.st23{fill:url(#SVGID_19_);}
	.st24{fill:url(#SVGID_20_);}
	.st25{fill:url(#SVGID_21_);}
	.st26{fill:url(#SVGID_22_);}
	.st27{fill:url(#SVGID_23_);}
	.st28{fill:url(#SVGID_24_);}
	.st29{fill:url(#SVGID_25_);}
	.st30{fill:url(#SVGID_26_);}
	.st31{fill:url(#SVGID_27_);}
	.st32{fill:url(#SVGID_28_);}
	.st33{fill:url(#SVGID_29_);}
	.st34{fill:url(#SVGID_30_);}
	.st35{fill:url(#SVGID_31_);}
	.st36{fill:url(#SVGID_32_);}
	.st37{fill:url(#SVGID_33_);}
	.st38{fill:url(#SVGID_34_);}
	.st39{fill:url(#SVGID_35_);}
	.st40{fill:url(#SVGID_36_);}
	.st41{fill:url(#SVGID_37_);}
	.st42{fill:url(#SVGID_38_);}
	.st43{fill:url(#SVGID_39_);}
	.st44{fill:url(#SVGID_40_);}
	.st45{fill:url(#SVGID_41_);}
	.st46{fill:url(#SVGID_42_);}
	.st47{fill:url(#SVGID_43_);}
	.st48{fill:url(#SVGID_44_);}
</style>
<g>
	<g>
		<g>
			<path class="st0" d="M417.9,145.9c0-17.3-14-31.3-31.3-31.3H110.8c-17.3,0-31.3,14-31.3,31.3v27.4h338.4V145.9L417.9,145.9z"/>
			<path class="st0" d="M369.1,196.1c-14.2,0-27.5,3.8-38.9,10.5H79.5v95.1c0,17.3,14,31.3,31.3,31.3h208
				c13.6,11.5,31.1,18.5,50.2,18.5c42.8,0,77.7-34.8,77.7-77.7C446.8,231,411.9,196.1,369.1,196.1z M195.2,290c0,2.2-1.8,4-4,4h-62
				c-2.2,0-4-1.8-4-4v-12.2c0-2.2,1.8-4,4-4h62c2.2,0,4,1.8,4,4V290z M369.1,323c-27.2,0-49.2-22-49.2-49.2s22-49.2,49.2-49.2
				c27.2,0,49.2,22,49.2,49.2S396.3,323,369.1,323z"/>
			<path class="st0" d="M374.5,266.2L374.5,266.2c-7.9-3-10.4-4.7-10.4-7.1c0-2.7,2.5-4.3,7-4.3c3,0,5.8,0.5,8.6,1.4
				c1.3,0.4,2.8,0.3,4-0.4c1.2-0.7,2.1-1.8,2.5-3.2l0.5-2.1c0.7-2.6-0.8-5.3-3.4-6.1c-2.7-0.8-5.6-1.3-8.9-1.5v-3
				c0-2.8-2.3-5.1-5.1-5.1h-0.5c-2.8,0-5.1,2.3-5.1,5.1v3.8c-9.5,2.1-15.4,8.5-15.4,16.9c0,8.1,5.2,13.5,17,17.5
				c5.5,1.8,9.1,3.8,9.1,7.1c0,3-3,4.8-7.9,4.8c-3.5,0-7-0.7-10.5-2c-1.3-0.5-2.8-0.4-4.1,0.3c-1.3,0.7-2.2,1.8-2.6,3.2l-0.6,2.4
				c-0.6,2.5,0.7,5.1,3.2,6c3.4,1.3,7.5,2.1,11.4,2.3v3.6c0,2.8,2.3,5.1,5.1,5.1h0.5c2.8,0,5.1-2.3,5.1-5.1v-4.4
				c9.9-2,16.2-8.8,16.2-17.6C390.2,275.4,385.5,270.1,374.5,266.2z"/>
		</g>
	</g>
	<path class="st1" d="M174.4,109.3"/>
	<path class="st2" d="M73.4,175.6c0,0-6.1-6.1,0-19.4c6.1-13.3-1.2-26.3,7.9-29.1c9.1-2.8,11.5-10.9,19.2-10.9s11.3-6.1,18.2-2.6
		c6.9,3.4,15-0.8,20.2,2.2c5.3,3,16.9,1.4,27.1-0.4s10.9-5.3,19.4-1.8s28.3-4.2,31.5,2.2c3.2,6.5,8.9,13.3-6.1,11.3
		c-15-2-11.5-5.7-34.7-1.2c-23.2,4.4-25.6-2-44.2-0.4s-26.7,4-31.9,11.7c-5.3,7.7-9.7,12.5-8.5,20.6c1.2,8.1-2.8,12.5-5.3,22.2
		c-2.4,9.7,10.1,20.2,1.2,23.5s-2-17.4-6.2-19C77,182.9,73.4,175.6,73.4,175.6z"/>
	<path class="st1" d="M71.6,171.4c0,0-6.1-6.1,0-19.4c6.1-13.3-1.2-26.3,7.9-29.1s11.5-10.9,19.2-10.9s11.3-6.1,18.2-2.6
		c6.9,3.4,15-0.8,20.2,2.2c5.3,3,16.9,1.4,27.1-0.4c10.2-1.8,10.9-5.3,19.4-1.8c8.5,3.4,28.3-4.2,31.5,2.2
		c3.2,6.5,8.9,13.3-6.1,11.3c-15-2-11.5-5.7-34.7-1.2c-23.2,4.4-25.6-2-44.2-0.4s-26.7,4-31.9,11.7c-5.3,7.7-9.7,12.5-8.5,20.6
		s-2.8,12.5-5.3,22.2c-2.4,9.7,10.1,20.2,1.2,23.5c-8.9,3.2-2-17.4-6.2-19C75.2,178.7,71.6,171.4,71.6,171.4z"/>
	<path class="st2" d="M403.5,116.9c0,0,10.1,1.8,12.9,10.7c2.8,8.9,8.5,12.5,6.5,25.9c-2,13.3,5.3,24.3-2,27.1s-10.5-2.8-17.4,0
		s7.3,22.5,0,21.4c-7.3-1.2-1.6-18.5-6.9-18.5s-8.9-5.3-8.1-19c0.8-13.7,12.9-7.2,10.9-18.1c-2-11,5.7-19.5-4.4-20.3
		c-10.1-0.8-10.5-3.6-23.1-3.2c-12.5,0.4-29.1,7.7-25.9-2c3.2-9.7,11.2-5.3,23.6-6.5C382,113.1,398.6,115.1,403.5,116.9z"/>
	<path class="st1" d="M403.2,114.5c0,0,10.1,1.8,12.9,10.7c2.8,8.9,8.5,12.5,6.5,25.9c-2,13.3,5.3,24.3-2,27.1
		c-7.3,2.8-10.5-2.8-17.4,0c-6.9,2.8,7.3,22.5,0,21.4c-7.3-1.2-1.6-18.5-6.9-18.5s-8.9-5.3-8.1-19c0.8-13.7,12.9-7.2,10.9-18.1
		c-2-11,5.7-19.5-4.4-20.3c-10.1-0.8-10.5-3.6-23.1-3.2c-12.5,0.4-29.1,7.7-25.9-2c3.2-9.7,11.2-5.3,23.6-6.5
		S398.3,112.8,403.2,114.5z"/>
	<path class="st2" d="M411.3,290.9c0,0-1.6,6.9-10.1,13.7c-8.5,6.9-3.2,12.5-10.1,14.6c-6.9,2-12.5,4.9-24.3,3.2s-16.6-6.9-22.2-4.9
		s-14.2,10.1-3.6,11.7c10.5,1.6,8.9,8.5,21.4,7.3c12.5-1.2,4.5-1.2,23.1-6.1c18.6-4.9,33.9-2.5,36.4-16.4
		c2.4-13.9,8.9-23.2,5.7-26.4C424.2,284.4,417,281.3,411.3,290.9z"/>
	<path class="st1" d="M410.4,287.8c0,0-1.6,6.9-10.1,13.7c-8.5,6.9-3.2,12.5-10.1,14.6c-6.9,2-12.5,4.9-24.3,3.2s-16.6-6.9-22.2-4.9
		s-14.2,10.1-3.6,11.7s8.9,8.5,21.4,7.3c12.5-1.2,4.5-1.2,23.1-6.1c18.6-4.9,33.9-2.5,36.4-16.4c2.4-13.9,8.9-23.2,5.7-26.4
		C423.4,281.4,416.2,278.2,410.4,287.8z"/>
	<path class="st2" d="M189.9,209c0,0,27.5-9.3,39.2-4.9c11.7,4.5,26,2.8,35.5,1.8c9.4-1,8.6,2.6,21.2,3c12.5,0.4,35.2,2,21.4,6.5
		c-13.7,4.4-20.2-4-36.4,0s-27.5-4.4-38.8-1.2c-11.3,3.2-25.5-5.8-28.7,2.5c-3.2,8.4-10.9,8.2-11.7,22.7
		c-0.8,14.4-18.6,5.5-12.9-7.4c5.7-12.9,17.8-10.1,14.6-16.6S184.6,215.5,189.9,209z"/>
	<path class="st1" d="M188.4,204.5c0,0,27.5-9.3,39.2-4.9c11.7,4.5,26,2.8,35.5,1.8c9.4-1,8.6,2.6,21.2,3s35.2,2,21.4,6.5
		c-13.7,4.4-20.2-4-36.4,0c-16.2,4-27.5-4.4-38.8-1.2s-25.5-5.8-28.7,2.5s-10.9,8.2-11.7,22.7c-0.8,14.4-18.6,5.5-12.9-7.4
		c5.7-12.9,17.8-10.1,14.6-16.6C188.4,204.5,183.2,211,188.4,204.5z"/>
	<g>
		
			<linearGradient id="SVGID_1_" gradientUnits="userSpaceOnUse" x1="344.6485" y1="32.9054" x2="358.2175" y2="32.9054" gradientTransform="matrix(0.2682 -0.9634 0.9634 0.2682 -46.2882 481.6592)">
			<stop  offset="0" style="stop-color:#FFAE30"/>
			<stop  offset="1" style="stop-color:#FF7233"/>
		</linearGradient>
		<path class="st3" d="M81.5,145.4c3.4,0.9,5.3,4.6,4.3,8.2c-1,3.6-4.5,5.8-7.9,4.8c-3.4-0.9-5.3-4.6-4.3-8.2
			C74.6,146.6,78.1,144.4,81.5,145.4z"/>
		<g>
			
				<ellipse transform="matrix(0.2682 -0.9634 0.9634 0.2682 -88.839 187.9118)" class="st4" cx="79.3" cy="152.4" rx="6.8" ry="6.3"/>
			<g>
				
					<linearGradient id="SVGID_2_" gradientUnits="userSpaceOnUse" x1="344.0421" y1="29.6034" x2="357.6112" y2="29.6034" gradientTransform="matrix(0.2682 -0.9634 0.9634 0.2682 -46.2882 481.6592)">
					<stop  offset="0" style="stop-color:#FB1200;stop-opacity:0"/>
					<stop  offset="9.790792e-02" style="stop-color:#FC2010;stop-opacity:9.810442e-02"/>
					<stop  offset="0.2783" style="stop-color:#FC3526;stop-opacity:0.2788"/>
					<stop  offset="0.4745" style="stop-color:#FC4436;stop-opacity:0.4754"/>
					<stop  offset="0.6962" style="stop-color:#FC4D3F;stop-opacity:0.6976"/>
					<stop  offset="0.998" style="stop-color:#FC5042"/>
				</linearGradient>
				<path class="st5" d="M73.6,150.8c1-3.5,4.4-5.7,7.7-4.9c-0.1,0-0.1,0-0.2-0.1c-3.4-0.9-6.9,1.2-7.9,4.8c-1,3.6,0.9,7.3,4.3,8.2
					c0.1,0,0.1,0,0.2,0C74.4,158,72.6,154.4,73.6,150.8z"/>
			</g>
			
				<linearGradient id="SVGID_3_" gradientUnits="userSpaceOnUse" x1="350.8267" y1="38.0667" x2="350.8267" y2="27.2592" gradientTransform="matrix(0.2682 -0.9634 0.9634 0.2682 -46.2882 481.6592)">
				<stop  offset="0" style="stop-color:#FB1200;stop-opacity:0"/>
				<stop  offset="0.998" style="stop-color:#FC5042"/>
			</linearGradient>
			<path class="st6" d="M80.8,146.8c2.9,0.8,4.5,4,3.6,7.1c-0.9,3.1-3.9,5-6.8,4.2c-2.9-0.8-4.5-4-3.6-7.1
				C74.9,147.9,78,146,80.8,146.8z"/>
			
				<linearGradient id="SVGID_4_" gradientUnits="userSpaceOnUse" x1="353.1481" y1="38.0666" x2="353.1481" y2="27.2592" gradientTransform="matrix(0.2682 -0.9634 0.9634 0.2682 -46.2882 481.6592)">
				<stop  offset="0" style="stop-color:#FB1200;stop-opacity:0"/>
				<stop  offset="9.790792e-02" style="stop-color:#FC2010;stop-opacity:9.810442e-02"/>
				<stop  offset="0.2783" style="stop-color:#FC3526;stop-opacity:0.2788"/>
				<stop  offset="0.4745" style="stop-color:#FC4436;stop-opacity:0.4754"/>
				<stop  offset="0.6962" style="stop-color:#FC4D3F;stop-opacity:0.6976"/>
				<stop  offset="0.998" style="stop-color:#FC5042"/>
			</linearGradient>
			<path class="st7" d="M80.8,146.8c2.9,0.8,4.5,4,3.6,7.1c-0.9,3.1-1.9-2-4.8-2.8c-2.9-0.8-6.5,3-5.6-0.1
				C74.9,147.9,78,146,80.8,146.8z"/>
			<g>
				<path class="st4" d="M80.7,145.8c0.4,0.1,0.7,0.2,1.1,0.4c3.1,1.5,4.3,5.5,2.7,8.9c-1.4,2.9-4.6,4.5-7.4,3.8
					c0.1,0,0.3,0.1,0.4,0.1c3.4,0.9,6.9-1.2,7.9-4.8c1-3.6-0.9-7.3-4.3-8.2C81,145.9,80.8,145.8,80.7,145.8z"/>
			</g>
			
				<ellipse transform="matrix(0.2683 -0.9633 0.9633 0.2683 -93.8626 186.6083)" class="st8" cx="75.9" cy="155.1" rx="1.1" ry="1"/>
			
				<ellipse transform="matrix(0.2682 -0.9634 0.9634 0.2682 -86.2464 184.1687)" class="st8" cx="78.1" cy="148.9" rx="1.5" ry="1.4"/>
			
				<ellipse transform="matrix(0.2682 -0.9634 0.9634 0.2682 -90.0795 189.2711)" class="st8" cx="79.5" cy="153.9" rx="1.1" ry="1"/>
			
				<ellipse transform="matrix(0.2683 -0.9633 0.9633 0.2683 -86.3455 191.0084)" class="st8" cx="82.6" cy="152.3" rx="1" ry="0.9"/>
			
				<ellipse transform="matrix(0.2682 -0.9634 0.9634 0.2682 -90.344 185.8719)" class="st8" cx="77.2" cy="152.4" rx="0.5" ry="0.5"/>
			
				<ellipse transform="matrix(0.2683 -0.9633 0.9633 0.2683 -90.8687 183.355)" class="st8" cx="75.3" cy="151.5" rx="0.5" ry="0.5"/>
			
				<ellipse transform="matrix(0.2682 -0.9634 0.9634 0.2682 -93.9655 190.5416)" class="st8" cx="78.4" cy="157.1" rx="0.5" ry="0.5"/>
			
				<ellipse transform="matrix(0.2683 -0.9633 0.9633 0.2683 -90.1792 192.1691)" class="st8" cx="81.4" cy="155.4" rx="0.5" ry="0.5"/>
			
				<ellipse transform="matrix(0.2682 -0.9634 0.9634 0.2682 -83.8147 188.5437)" class="st8" cx="82.2" cy="149.4" rx="0.5" ry="0.5"/>
			
				<ellipse transform="matrix(0.2683 -0.9633 0.9633 0.2683 -86.7958 187.3969)" class="st8" cx="80" cy="150.8" rx="0.5" ry="0.5"/>
		</g>
	</g>
	<g>
		
			<linearGradient id="SVGID_5_" gradientUnits="userSpaceOnUse" x1="755.1223" y1="-1123.1738" x2="768.6912" y2="-1123.1738" gradientTransform="matrix(-0.6094 -0.7929 0.7929 -0.6094 1459.1721 33.9586)">
			<stop  offset="0" style="stop-color:#FFAE30"/>
			<stop  offset="1" style="stop-color:#FF7233"/>
		</linearGradient>
		<path class="st9" d="M100.2,108.9c2.8-2.1,6.8-1.4,9.1,1.5c2.3,3,1.9,7.1-0.9,9.2c-2.8,2.1-6.8,1.4-9.1-1.5
			C97,115.1,97.4,111,100.2,108.9z"/>
		<g>
			
				<ellipse transform="matrix(0.7929 -0.6093 0.6093 0.7929 -48.3541 87.4357)" class="st4" cx="104.5" cy="114.9" rx="6.3" ry="6.8"/>
			<g>
				
					<linearGradient id="SVGID_6_" gradientUnits="userSpaceOnUse" x1="754.5159" y1="-1126.4758" x2="768.085" y2="-1126.4758" gradientTransform="matrix(-0.6094 -0.7929 0.7929 -0.6094 1459.1721 33.9586)">
					<stop  offset="0" style="stop-color:#FB1200;stop-opacity:0"/>
					<stop  offset="9.790792e-02" style="stop-color:#FC2010;stop-opacity:9.810442e-02"/>
					<stop  offset="0.2783" style="stop-color:#FC3526;stop-opacity:0.2788"/>
					<stop  offset="0.4745" style="stop-color:#FC4436;stop-opacity:0.4754"/>
					<stop  offset="0.6962" style="stop-color:#FC4D3F;stop-opacity:0.6976"/>
					<stop  offset="0.998" style="stop-color:#FC5042"/>
				</linearGradient>
				<path class="st10" d="M99.8,118.5c-2.2-2.9-1.9-7,0.7-9.1c0,0-0.1,0.1-0.1,0.1c-2.8,2.1-3.1,6.2-0.9,9.2c2.3,3,6.4,3.7,9.1,1.5
					c0,0,0.1-0.1,0.1-0.1C106,122.1,102,121.4,99.8,118.5z"/>
			</g>
			
				<linearGradient id="SVGID_7_" gradientUnits="userSpaceOnUse" x1="761.3004" y1="-1118.0126" x2="761.3004" y2="-1128.8199" gradientTransform="matrix(-0.6094 -0.7929 0.7929 -0.6094 1459.1721 33.9586)">
				<stop  offset="0" style="stop-color:#FB1200;stop-opacity:0"/>
				<stop  offset="0.998" style="stop-color:#FC5042"/>
			</linearGradient>
			<path class="st11" d="M100.9,110.2c2.4-1.8,5.9-1.2,7.8,1.3c2,2.5,1.6,6.1-0.7,7.9c-2.4,1.8-5.9,1.2-7.8-1.3
				C98.2,115.6,98.6,112.1,100.9,110.2z"/>
			
				<linearGradient id="SVGID_8_" gradientUnits="userSpaceOnUse" x1="763.6218" y1="-1118.0126" x2="763.6218" y2="-1128.8201" gradientTransform="matrix(-0.6094 -0.7929 0.7929 -0.6094 1459.1721 33.9586)">
				<stop  offset="0" style="stop-color:#FB1200;stop-opacity:0"/>
				<stop  offset="9.790792e-02" style="stop-color:#FC2010;stop-opacity:9.810442e-02"/>
				<stop  offset="0.2783" style="stop-color:#FC3526;stop-opacity:0.2788"/>
				<stop  offset="0.4745" style="stop-color:#FC4436;stop-opacity:0.4754"/>
				<stop  offset="0.6962" style="stop-color:#FC4D3F;stop-opacity:0.6976"/>
				<stop  offset="0.998" style="stop-color:#FC5042"/>
			</linearGradient>
			<path class="st12" d="M100.9,110.3c2.4-1.8,5.9-1.2,7.8,1.3c2,2.5-2.8,0.3-5.2,2.2c-2.4,1.8-1.5,7-3.4,4.4
				C98.2,115.6,98.6,112.1,100.9,110.3z"/>
			<g>
				<path class="st4" d="M100,109.8c0.3-0.2,0.6-0.5,1-0.6c3.1-1.6,7-0.2,8.7,3.2c1.5,2.9,0.8,6.3-1.4,8.2c0.1-0.1,0.2-0.2,0.4-0.3
					c2.8-2.1,3.1-6.2,0.9-9.2c-2.3-3-6.4-3.7-9.1-1.5C100.2,109.6,100.1,109.7,100,109.8z"/>
			</g>
			<ellipse transform="matrix(0.793 -0.6092 0.6092 0.793 -50.9393 88.3775)" class="st8" cx="104.6" cy="119.1" rx="1" ry="1.1"/>
			
				<ellipse transform="matrix(0.7929 -0.6093 0.6093 0.7929 -48.3514 85.0134)" class="st8" cx="100.9" cy="113.6" rx="1.4" ry="1.5"/>
			
				<ellipse transform="matrix(0.7929 -0.6093 0.6093 0.7929 -48.4868 88.4067)" class="st8" cx="105.8" cy="115.5" rx="1" ry="1.1"/>
			<ellipse transform="matrix(0.793 -0.6092 0.6092 0.793 -46.3188 88.0293)" class="st8" cx="106.4" cy="112.2" rx="0.9" ry="1"/>
			
				<ellipse transform="matrix(0.7929 -0.6093 0.6093 0.7929 -49.6306 86.9991)" class="st8" cx="103.2" cy="116.5" rx="0.5" ry="0.5"/>
			
				<ellipse transform="matrix(0.793 -0.6093 0.6093 0.793 -50.6177 86.0529)" class="st8" cx="101.3" cy="117.5" rx="0.5" ry="0.5"/>
			
				<ellipse transform="matrix(0.7929 -0.6093 0.6093 0.7929 -49.8032 90.1379)" class="st8" cx="107.7" cy="118.3" rx="0.5" ry="0.5"/>
			<ellipse transform="matrix(0.793 -0.6093 0.6093 0.793 -47.6505 89.7015)" class="st8" cx="108.2" cy="115" rx="0.5" ry="0.5"/>
			
				<ellipse transform="matrix(0.7929 -0.6093 0.6093 0.7929 -45.9653 86.1937)" class="st8" cx="103.8" cy="110.7" rx="0.5" ry="0.5"/>
			<ellipse transform="matrix(0.793 -0.6093 0.6093 0.793 -47.6131 86.59)" class="st8" cx="103.6" cy="113.4" rx="0.5" ry="0.5"/>
		</g>
	</g>
	<g>
		
			<linearGradient id="SVGID_9_" gradientUnits="userSpaceOnUse" x1="618.87" y1="-1127.4777" x2="626.0609" y2="-1127.4777" gradientTransform="matrix(-0.6094 -0.7929 0.7929 -0.6094 1459.1721 33.9586)">
			<stop  offset="0" style="stop-color:#FFAE30"/>
			<stop  offset="1" style="stop-color:#FF7233"/>
		</linearGradient>
		<path class="st13" d="M183.7,224.6c1.5-1.1,3.6-0.8,4.8,0.8c1.2,1.6,1,3.8-0.5,4.9c-1.5,1.1-3.6,0.8-4.8-0.8
			C182,227.9,182.2,225.7,183.7,224.6z"/>
		<g>
			
				<ellipse transform="matrix(0.7929 -0.6093 0.6093 0.7929 -100.2715 160.4549)" class="st4" cx="185.9" cy="227.8" rx="3.3" ry="3.6"/>
			<g>
				
					<linearGradient id="SVGID_10_" gradientUnits="userSpaceOnUse" x1="618.5486" y1="-1129.2277" x2="625.7396" y2="-1129.2277" gradientTransform="matrix(-0.6094 -0.7929 0.7929 -0.6094 1459.1721 33.9586)">
					<stop  offset="0" style="stop-color:#FB1200;stop-opacity:0"/>
					<stop  offset="9.790792e-02" style="stop-color:#FC2010;stop-opacity:9.810442e-02"/>
					<stop  offset="0.2783" style="stop-color:#FC3526;stop-opacity:0.2788"/>
					<stop  offset="0.4745" style="stop-color:#FC4436;stop-opacity:0.4754"/>
					<stop  offset="0.6962" style="stop-color:#FC4D3F;stop-opacity:0.6976"/>
					<stop  offset="0.998" style="stop-color:#FC5042"/>
				</linearGradient>
				<path class="st14" d="M183.4,229.7c-1.2-1.5-1-3.7,0.4-4.8c0,0-0.1,0-0.1,0.1c-1.5,1.1-1.7,3.3-0.5,4.9c1.2,1.6,3.4,1.9,4.8,0.8
					c0,0,0,0,0.1-0.1C186.7,231.6,184.6,231.2,183.4,229.7z"/>
			</g>
			
				<linearGradient id="SVGID_11_" gradientUnits="userSpaceOnUse" x1="622.1441" y1="-1124.7424" x2="622.1441" y2="-1130.47" gradientTransform="matrix(-0.6094 -0.7929 0.7929 -0.6094 1459.1721 33.9586)">
				<stop  offset="0" style="stop-color:#FB1200;stop-opacity:0"/>
				<stop  offset="0.998" style="stop-color:#FC5042"/>
			</linearGradient>
			<path class="st15" d="M184.1,225.3c1.3-1,3.1-0.7,4.1,0.7c1,1.4,0.9,3.2-0.4,4.2c-1.3,1-3.1,0.7-4.1-0.7
				C182.6,228.2,182.8,226.3,184.1,225.3z"/>
			
				<linearGradient id="SVGID_12_" gradientUnits="userSpaceOnUse" x1="623.3744" y1="-1124.7426" x2="623.3744" y2="-1130.47" gradientTransform="matrix(-0.6094 -0.7929 0.7929 -0.6094 1459.1721 33.9586)">
				<stop  offset="0" style="stop-color:#FB1200;stop-opacity:0"/>
				<stop  offset="9.790792e-02" style="stop-color:#FC2010;stop-opacity:9.810442e-02"/>
				<stop  offset="0.2783" style="stop-color:#FC3526;stop-opacity:0.2788"/>
				<stop  offset="0.4745" style="stop-color:#FC4436;stop-opacity:0.4754"/>
				<stop  offset="0.6962" style="stop-color:#FC4D3F;stop-opacity:0.6976"/>
				<stop  offset="0.998" style="stop-color:#FC5042"/>
			</linearGradient>
			<path class="st16" d="M184.1,225.3c1.3-1,3.1-0.7,4.1,0.7c1,1.4-1.5,0.2-2.7,1.1c-1.3,1-0.8,3.7-1.8,2.3
				C182.6,228.2,182.8,226.3,184.1,225.3z"/>
			<g>
				<path class="st4" d="M183.6,225c0.2-0.1,0.3-0.2,0.5-0.3c1.6-0.8,3.7-0.1,4.6,1.7c0.8,1.5,0.4,3.4-0.8,4.4
					c0.1,0,0.1-0.1,0.2-0.1c1.5-1.1,1.7-3.3,0.5-4.9s-3.4-1.9-4.8-0.8C183.7,225,183.6,225,183.6,225z"/>
			</g>
			<ellipse transform="matrix(0.793 -0.6092 0.6092 0.793 -101.6375 160.9382)" class="st8" cx="186" cy="230" rx="0.5" ry="0.6"/>
			
				<ellipse transform="matrix(0.7929 -0.6093 0.6093 0.7929 -100.27 159.1708)" class="st8" cx="184.1" cy="227.1" rx="0.8" ry="0.8"/>
			
				<ellipse transform="matrix(0.7929 -0.6093 0.6093 0.7929 -100.3425 160.9718)" class="st8" cx="186.7" cy="228.1" rx="0.5" ry="0.6"/>
			<ellipse transform="matrix(0.793 -0.6092 0.6092 0.793 -99.1886 160.7527)" class="st8" cx="187" cy="226.3" rx="0.5" ry="0.5"/>
			
				<ellipse transform="matrix(0.7929 -0.6093 0.6093 0.7929 -100.9486 160.2258)" class="st8" cx="185.3" cy="228.6" rx="0.3" ry="0.3"/>
			
				<ellipse transform="matrix(0.793 -0.6093 0.6093 0.793 -101.4697 159.7165)" class="st8" cx="184.3" cy="229.2" rx="0.3" ry="0.3"/>
			
				<ellipse transform="matrix(0.7929 -0.6093 0.6093 0.7929 -101.0401 161.8892)" class="st8" cx="187.7" cy="229.6" rx="0.3" ry="0.3"/>
			
				<ellipse transform="matrix(0.793 -0.6093 0.6093 0.793 -99.8972 161.6501)" class="st8" cx="187.9" cy="227.8" rx="0.3" ry="0.3"/>
			
				<ellipse transform="matrix(0.7929 -0.6093 0.6093 0.7929 -99.0062 159.799)" class="st8" cx="185.6" cy="225.6" rx="0.3" ry="0.3"/>
			<ellipse transform="matrix(0.793 -0.6093 0.6093 0.793 -99.8774 160.0011)" class="st8" cx="185.5" cy="227" rx="0.3" ry="0.3"/>
		</g>
	</g>
	<g>
		
			<linearGradient id="SVGID_13_" gradientUnits="userSpaceOnUse" x1="717.5602" y1="-1064.1155" x2="724.7512" y2="-1064.1155" gradientTransform="matrix(-0.6094 -0.7929 0.7929 -0.6094 1459.1721 33.9586)">
			<stop  offset="0" style="stop-color:#FFAE30"/>
			<stop  offset="1" style="stop-color:#FF7233"/>
		</linearGradient>
		<path class="st17" d="M173.8,107.7c1.5-1.1,3.6-0.8,4.8,0.8c1.2,1.6,1,3.8-0.5,4.9c-1.5,1.1-3.6,0.8-4.8-0.8
			C172.1,111,172.3,108.8,173.8,107.7z"/>
		<g>
			
				<ellipse transform="matrix(0.7929 -0.6093 0.6093 0.7929 -31.1136 130.2267)" class="st4" cx="176" cy="110.9" rx="3.3" ry="3.6"/>
			<g>
				
					<linearGradient id="SVGID_14_" gradientUnits="userSpaceOnUse" x1="717.2389" y1="-1065.8654" x2="724.4299" y2="-1065.8654" gradientTransform="matrix(-0.6094 -0.7929 0.7929 -0.6094 1459.1721 33.9586)">
					<stop  offset="0" style="stop-color:#FB1200;stop-opacity:0"/>
					<stop  offset="9.790792e-02" style="stop-color:#FC2010;stop-opacity:9.810442e-02"/>
					<stop  offset="0.2783" style="stop-color:#FC3526;stop-opacity:0.2788"/>
					<stop  offset="0.4745" style="stop-color:#FC4436;stop-opacity:0.4754"/>
					<stop  offset="0.6962" style="stop-color:#FC4D3F;stop-opacity:0.6976"/>
					<stop  offset="0.998" style="stop-color:#FC5042"/>
				</linearGradient>
				<path class="st18" d="M173.5,112.8c-1.2-1.5-1-3.7,0.4-4.8c0,0-0.1,0-0.1,0.1c-1.5,1.1-1.7,3.3-0.5,4.9c1.2,1.6,3.4,1.9,4.8,0.8
					c0,0,0,0,0.1-0.1C176.8,114.7,174.7,114.4,173.5,112.8z"/>
			</g>
			
				<linearGradient id="SVGID_15_" gradientUnits="userSpaceOnUse" x1="720.8344" y1="-1061.3802" x2="720.8344" y2="-1067.1077" gradientTransform="matrix(-0.6094 -0.7929 0.7929 -0.6094 1459.1721 33.9586)">
				<stop  offset="0" style="stop-color:#FB1200;stop-opacity:0"/>
				<stop  offset="0.998" style="stop-color:#FC5042"/>
			</linearGradient>
			<path class="st19" d="M174.2,108.4c1.3-1,3.1-0.7,4.1,0.7c1,1.4,0.9,3.2-0.4,4.2c-1.3,1-3.1,0.7-4.1-0.7
				C172.7,111.3,172.9,109.4,174.2,108.4z"/>
			
				<linearGradient id="SVGID_16_" gradientUnits="userSpaceOnUse" x1="722.0646" y1="-1061.3802" x2="722.0646" y2="-1067.1077" gradientTransform="matrix(-0.6094 -0.7929 0.7929 -0.6094 1459.1721 33.9586)">
				<stop  offset="0" style="stop-color:#FB1200;stop-opacity:0"/>
				<stop  offset="9.790792e-02" style="stop-color:#FC2010;stop-opacity:9.810442e-02"/>
				<stop  offset="0.2783" style="stop-color:#FC3526;stop-opacity:0.2788"/>
				<stop  offset="0.4745" style="stop-color:#FC4436;stop-opacity:0.4754"/>
				<stop  offset="0.6962" style="stop-color:#FC4D3F;stop-opacity:0.6976"/>
				<stop  offset="0.998" style="stop-color:#FC5042"/>
			</linearGradient>
			<path class="st20" d="M174.2,108.5c1.3-1,3.1-0.7,4.1,0.7c1,1.4-1.5,0.2-2.7,1.1c-1.3,1-0.8,3.7-1.8,2.3
				C172.7,111.3,172.9,109.4,174.2,108.5z"/>
			<g>
				<path class="st4" d="M173.7,108.2c0.2-0.1,0.3-0.2,0.5-0.3c1.6-0.8,3.7-0.1,4.6,1.7c0.8,1.5,0.4,3.4-0.8,4.4
					c0.1,0,0.1-0.1,0.2-0.1c1.5-1.1,1.7-3.3,0.5-4.9c-1.2-1.6-3.4-1.9-4.8-0.8C173.8,108.1,173.7,108.1,173.7,108.2z"/>
			</g>
			
				<ellipse transform="matrix(0.793 -0.6092 0.6092 0.793 -32.4863 130.716)" class="st8" cx="176.1" cy="113.2" rx="0.5" ry="0.6"/>
			
				<ellipse transform="matrix(0.7929 -0.6093 0.6093 0.7929 -31.1123 128.9427)" class="st8" cx="174.2" cy="110.2" rx="0.8" ry="0.8"/>
			
				<ellipse transform="matrix(0.7929 -0.6093 0.6093 0.7929 -31.1836 130.7426)" class="st8" cx="176.8" cy="111.3" rx="0.5" ry="0.6"/>
			
				<ellipse transform="matrix(0.793 -0.6092 0.6092 0.793 -30.0378 130.5309)" class="st8" cx="177.1" cy="109.5" rx="0.5" ry="0.5"/>
			
				<ellipse transform="matrix(0.7929 -0.6093 0.6093 0.7929 -31.7898 129.9967)" class="st8" cx="175.4" cy="111.8" rx="0.3" ry="0.3"/>
			
				<ellipse transform="matrix(0.793 -0.6093 0.6093 0.793 -32.3142 129.4904)" class="st8" cx="174.4" cy="112.3" rx="0.3" ry="0.3"/>
			
				<ellipse transform="matrix(0.7929 -0.6093 0.6093 0.7929 -31.8812 131.6601)" class="st8" cx="177.8" cy="112.7" rx="0.3" ry="0.3"/>
			<ellipse transform="matrix(0.793 -0.6093 0.6093 0.793 -30.7417 131.424)" class="st8" cx="178" cy="110.9" rx="0.3" ry="0.3"/>
			
				<ellipse transform="matrix(0.7929 -0.6093 0.6093 0.7929 -29.8473 129.5699)" class="st8" cx="175.7" cy="108.7" rx="0.3" ry="0.3"/>
			
				<ellipse transform="matrix(0.793 -0.6093 0.6093 0.793 -30.7219 129.775)" class="st8" cx="175.6" cy="110.1" rx="0.3" ry="0.3"/>
		</g>
	</g>
	<g>
		
			<linearGradient id="SVGID_17_" gradientUnits="userSpaceOnUse" x1="418.1893" y1="-1011.3058" x2="425.3802" y2="-1011.3058" gradientTransform="matrix(-0.6094 -0.7929 0.7929 -0.6094 1459.1721 33.9586)">
			<stop  offset="0" style="stop-color:#FFAE30"/>
			<stop  offset="1" style="stop-color:#FF7233"/>
		</linearGradient>
		<path class="st21" d="M398.1,312.9c1.5-1.1,3.6-0.8,4.8,0.8c1.2,1.6,1,3.8-0.5,4.9c-1.5,1.1-3.6,0.8-4.8-0.8
			C396.4,316.2,396.6,314,398.1,312.9z"/>
		<g>
			
				<ellipse transform="matrix(0.7929 -0.6093 0.6093 0.7929 -109.7 309.384)" class="st4" cx="400.3" cy="316.1" rx="3.3" ry="3.6"/>
			<g>
				
					<linearGradient id="SVGID_18_" gradientUnits="userSpaceOnUse" x1="417.868" y1="-1013.0557" x2="425.0589" y2="-1013.0557" gradientTransform="matrix(-0.6094 -0.7929 0.7929 -0.6094 1459.1721 33.9586)">
					<stop  offset="0" style="stop-color:#FB1200;stop-opacity:0"/>
					<stop  offset="9.790792e-02" style="stop-color:#FC2010;stop-opacity:9.810442e-02"/>
					<stop  offset="0.2783" style="stop-color:#FC3526;stop-opacity:0.2788"/>
					<stop  offset="0.4745" style="stop-color:#FC4436;stop-opacity:0.4754"/>
					<stop  offset="0.6962" style="stop-color:#FC4D3F;stop-opacity:0.6976"/>
					<stop  offset="0.998" style="stop-color:#FC5042"/>
				</linearGradient>
				<path class="st22" d="M397.8,318c-1.2-1.5-1-3.7,0.4-4.8c0,0-0.1,0-0.1,0.1c-1.5,1.1-1.7,3.3-0.5,4.9c1.2,1.6,3.4,1.9,4.8,0.8
					c0,0,0,0,0.1-0.1C401.1,319.9,399,319.6,397.8,318z"/>
			</g>
			
				<linearGradient id="SVGID_19_" gradientUnits="userSpaceOnUse" x1="421.4634" y1="-1008.5706" x2="421.4634" y2="-1014.298" gradientTransform="matrix(-0.6094 -0.7929 0.7929 -0.6094 1459.1721 33.9586)">
				<stop  offset="0" style="stop-color:#FB1200;stop-opacity:0"/>
				<stop  offset="0.998" style="stop-color:#FC5042"/>
			</linearGradient>
			<path class="st23" d="M398.5,313.6c1.3-1,3.1-0.7,4.1,0.7c1,1.4,0.9,3.2-0.4,4.2c-1.3,1-3.1,0.7-4.1-0.7
				C397,316.5,397.2,314.6,398.5,313.6z"/>
			
				<linearGradient id="SVGID_20_" gradientUnits="userSpaceOnUse" x1="422.6937" y1="-1008.5706" x2="422.6937" y2="-1014.298" gradientTransform="matrix(-0.6094 -0.7929 0.7929 -0.6094 1459.1721 33.9586)">
				<stop  offset="0" style="stop-color:#FB1200;stop-opacity:0"/>
				<stop  offset="9.790792e-02" style="stop-color:#FC2010;stop-opacity:9.810442e-02"/>
				<stop  offset="0.2783" style="stop-color:#FC3526;stop-opacity:0.2788"/>
				<stop  offset="0.4745" style="stop-color:#FC4436;stop-opacity:0.4754"/>
				<stop  offset="0.6962" style="stop-color:#FC4D3F;stop-opacity:0.6976"/>
				<stop  offset="0.998" style="stop-color:#FC5042"/>
			</linearGradient>
			<path class="st24" d="M398.5,313.7c1.3-1,3.1-0.7,4.1,0.7c1,1.4-1.5,0.2-2.7,1.1c-1.3,1-0.8,3.7-1.8,2.3S397.2,314.6,398.5,313.7
				z"/>
			<g>
				<path class="st4" d="M398,313.4c0.2-0.1,0.3-0.2,0.5-0.3c1.6-0.8,3.7-0.1,4.6,1.7c0.8,1.5,0.4,3.4-0.8,4.4
					c0.1,0,0.1-0.1,0.2-0.1c1.5-1.1,1.7-3.3,0.5-4.9c-1.2-1.6-3.4-1.9-4.8-0.8C398.1,313.3,398,313.3,398,313.4z"/>
			</g>
			
				<ellipse transform="matrix(0.793 -0.6092 0.6092 0.793 -111.0707 309.8499)" class="st8" cx="400.4" cy="318.4" rx="0.5" ry="0.6"/>
			
				<ellipse transform="matrix(0.7929 -0.6093 0.6093 0.7929 -109.6986 308.0994)" class="st8" cx="398.5" cy="315.4" rx="0.8" ry="0.8"/>
			
				<ellipse transform="matrix(0.7929 -0.6093 0.6093 0.7929 -109.7703 309.9033)" class="st8" cx="401.1" cy="316.5" rx="0.5" ry="0.6"/>
			
				<ellipse transform="matrix(0.793 -0.6092 0.6092 0.793 -108.6221 309.6634)" class="st8" cx="401.4" cy="314.7" rx="0.5" ry="0.5"/>
			
				<ellipse transform="matrix(0.7929 -0.6093 0.6093 0.7929 -110.3765 309.1573)" class="st8" cx="399.7" cy="317" rx="0.3" ry="0.3"/>
			
				<ellipse transform="matrix(0.793 -0.6093 0.6093 0.793 -110.8999 308.6394)" class="st8" cx="398.7" cy="317.5" rx="0.3" ry="0.3"/>
			
				<ellipse transform="matrix(0.7929 -0.6093 0.6093 0.7929 -110.4679 310.8207)" class="st8" cx="402.1" cy="317.9" rx="0.3" ry="0.3"/>
			
				<ellipse transform="matrix(0.793 -0.6093 0.6093 0.793 -109.3274 310.573)" class="st8" cx="402.3" cy="316.1" rx="0.3" ry="0.3"/>
			
				<ellipse transform="matrix(0.7929 -0.6093 0.6093 0.7929 -108.434 308.7305)" class="st8" cx="400" cy="313.9" rx="0.3" ry="0.3"/>
			
				<ellipse transform="matrix(0.793 -0.6093 0.6093 0.793 -109.3076 308.924)" class="st8" cx="399.9" cy="315.3" rx="0.3" ry="0.3"/>
		</g>
	</g>
	<g>
		
			<linearGradient id="SVGID_21_" gradientUnits="userSpaceOnUse" x1="582.6053" y1="-1047.5612" x2="595.1292" y2="-1047.5612" gradientTransform="matrix(-0.6094 -0.7929 0.7929 -0.6094 1459.1721 33.9586)">
			<stop  offset="0" style="stop-color:#FFAE30"/>
			<stop  offset="1" style="stop-color:#FF7233"/>
		</linearGradient>
		<path class="st25" d="M265.9,200.4c2.5-2,6.3-1.3,8.4,1.4c2.1,2.7,1.8,6.6-0.8,8.5c-2.5,2-6.3,1.3-8.4-1.4
			C263,206.2,263.3,202.4,265.9,200.4z"/>
		<g>
			
				<ellipse transform="matrix(0.7929 -0.6093 0.6093 0.7929 -69.6075 207.067)" class="st4" cx="269.9" cy="205.9" rx="5.8" ry="6.3"/>
			<g>
				
					<linearGradient id="SVGID_22_" gradientUnits="userSpaceOnUse" x1="582.0456" y1="-1050.6088" x2="594.5696" y2="-1050.6088" gradientTransform="matrix(-0.6094 -0.7929 0.7929 -0.6094 1459.1721 33.9586)">
					<stop  offset="0" style="stop-color:#FB1200;stop-opacity:0"/>
					<stop  offset="9.790792e-02" style="stop-color:#FC2010;stop-opacity:9.810442e-02"/>
					<stop  offset="0.2783" style="stop-color:#FC3526;stop-opacity:0.2788"/>
					<stop  offset="0.4745" style="stop-color:#FC4436;stop-opacity:0.4754"/>
					<stop  offset="0.6962" style="stop-color:#FC4D3F;stop-opacity:0.6976"/>
					<stop  offset="0.998" style="stop-color:#FC5042"/>
				</linearGradient>
				<path class="st26" d="M265.5,209.3c-2.1-2.7-1.8-6.4,0.7-8.4c0,0-0.1,0.1-0.1,0.1c-2.5,2-2.9,5.8-0.8,8.5
					c2.1,2.7,5.9,3.4,8.4,1.4c0,0,0.1-0.1,0.1-0.1C271.3,212.6,267.6,212,265.5,209.3z"/>
			</g>
			
				<linearGradient id="SVGID_23_" gradientUnits="userSpaceOnUse" x1="588.3076" y1="-1042.7974" x2="588.3076" y2="-1052.7725" gradientTransform="matrix(-0.6094 -0.7929 0.7929 -0.6094 1459.1721 33.9586)">
				<stop  offset="0" style="stop-color:#FB1200;stop-opacity:0"/>
				<stop  offset="0.998" style="stop-color:#FC5042"/>
			</linearGradient>
			<path class="st27" d="M266.6,201.7c2.2-1.7,5.4-1.1,7.2,1.2c1.8,2.4,1.5,5.6-0.7,7.3c-2.2,1.7-5.4,1.1-7.2-1.2
				C264.1,206.6,264.4,203.4,266.6,201.7z"/>
			
				<linearGradient id="SVGID_24_" gradientUnits="userSpaceOnUse" x1="590.4502" y1="-1042.7975" x2="590.4502" y2="-1052.7725" gradientTransform="matrix(-0.6094 -0.7929 0.7929 -0.6094 1459.1721 33.9586)">
				<stop  offset="0" style="stop-color:#FB1200;stop-opacity:0"/>
				<stop  offset="9.790792e-02" style="stop-color:#FC2010;stop-opacity:9.810442e-02"/>
				<stop  offset="0.2783" style="stop-color:#FC3526;stop-opacity:0.2788"/>
				<stop  offset="0.4745" style="stop-color:#FC4436;stop-opacity:0.4754"/>
				<stop  offset="0.6962" style="stop-color:#FC4D3F;stop-opacity:0.6976"/>
				<stop  offset="0.998" style="stop-color:#FC5042"/>
			</linearGradient>
			<path class="st28" d="M266.6,201.7c2.2-1.7,5.4-1.1,7.2,1.2c1.8,2.4-2.6,0.3-4.8,2c-2.2,1.7-1.3,6.4-3.2,4.1
				C264.1,206.6,264.4,203.4,266.6,201.7z"/>
			<g>
				<path class="st4" d="M265.7,201.2c0.3-0.2,0.6-0.4,0.9-0.6c2.9-1.5,6.5-0.2,8,2.9c1.4,2.7,0.8,5.8-1.3,7.6
					c0.1-0.1,0.2-0.1,0.3-0.2c2.5-2,2.9-5.8,0.8-8.5s-5.9-3.4-8.4-1.4C265.9,201.1,265.8,201.1,265.7,201.2z"/>
			</g>
			<ellipse transform="matrix(0.793 -0.6092 0.6092 0.793 -71.9957 207.9209)" class="st8" cx="270" cy="209.9" rx="0.9" ry="1"/>
			
				<ellipse transform="matrix(0.7929 -0.6093 0.6093 0.7929 -69.6051 204.8308)" class="st8" cx="266.6" cy="204.8" rx="1.3" ry="1.4"/>
			
				<ellipse transform="matrix(0.7929 -0.6093 0.6093 0.7929 -69.7298 207.9654)" class="st8" cx="271.1" cy="206.6" rx="0.9" ry="1"/>
			
				<ellipse transform="matrix(0.793 -0.6092 0.6092 0.793 -67.7312 207.5986)" class="st8" cx="271.6" cy="203.5" rx="0.8" ry="0.9"/>
			
				<ellipse transform="matrix(0.7929 -0.6093 0.6093 0.7929 -70.7855 206.6662)" class="st8" cx="268.7" cy="207.5" rx="0.5" ry="0.5"/>
			
				<ellipse transform="matrix(0.793 -0.6093 0.6093 0.793 -71.6976 205.7853)" class="st8" cx="266.9" cy="208.4" rx="0.5" ry="0.5"/>
			
				<ellipse transform="matrix(0.7929 -0.6093 0.6093 0.7929 -70.9448 209.5632)" class="st8" cx="272.9" cy="209.2" rx="0.5" ry="0.5"/>
			<ellipse transform="matrix(0.793 -0.6093 0.6093 0.793 -68.9589 209.1528)" class="st8" cx="273.3" cy="206" rx="0.5" ry="0.5"/>
			
				<ellipse transform="matrix(0.7929 -0.6093 0.6093 0.7929 -67.4025 205.9228)" class="st8" cx="269.3" cy="202.1" rx="0.5" ry="0.5"/>
			
				<ellipse transform="matrix(0.793 -0.6093 0.6093 0.793 -68.9244 206.281)" class="st8" cx="269.1" cy="204.6" rx="0.5" ry="0.5"/>
		</g>
	</g>
	<g>
		
			<linearGradient id="SVGID_25_" gradientUnits="userSpaceOnUse" x1="1530.4993" y1="-1433.1194" x2="1542.5856" y2="-1433.1194" gradientTransform="matrix(-0.9874 -0.1584 0.1584 -0.9874 1964.3812 -969.0706)">
			<stop  offset="0" style="stop-color:#FFAE30"/>
			<stop  offset="1" style="stop-color:#FF7233"/>
		</linearGradient>
		<path class="st29" d="M214.2,201.7c0.5-3.1,3.6-5.1,6.9-4.6c3.3,0.5,5.6,3.4,5.1,6.5c-0.5,3.1-3.6,5.1-6.9,4.6
			C216,207.7,213.7,204.8,214.2,201.7z"/>
		<g>
			
				<ellipse transform="matrix(0.1584 -0.9874 0.9874 0.1584 -14.6518 388.7071)" class="st4" cx="220.7" cy="202.9" rx="5.6" ry="6"/>
			<g>
				
					<linearGradient id="SVGID_26_" gradientUnits="userSpaceOnUse" x1="1529.9591" y1="-1436.0605" x2="1542.0455" y2="-1436.0605" gradientTransform="matrix(-0.9874 -0.1584 0.1584 -0.9874 1964.3812 -969.0706)">
					<stop  offset="0" style="stop-color:#FB1200;stop-opacity:0"/>
					<stop  offset="9.790792e-02" style="stop-color:#FC2010;stop-opacity:9.810442e-02"/>
					<stop  offset="0.2783" style="stop-color:#FC3526;stop-opacity:0.2788"/>
					<stop  offset="0.4745" style="stop-color:#FC4436;stop-opacity:0.4754"/>
					<stop  offset="0.6962" style="stop-color:#FC4D3F;stop-opacity:0.6976"/>
					<stop  offset="0.998" style="stop-color:#FC5042"/>
				</linearGradient>
				<path class="st30" d="M219.9,208.2c-3.2-0.5-5.5-3.3-5.1-6.3c0,0.1,0,0.1,0,0.2c-0.5,3.1,1.8,6,5.1,6.5c3.3,0.5,6.4-1.5,6.9-4.6
					c0-0.1,0-0.1,0-0.2C226.1,206.7,223.1,208.7,219.9,208.2z"/>
			</g>
			
				<linearGradient id="SVGID_27_" gradientUnits="userSpaceOnUse" x1="1536.0023" y1="-1428.5221" x2="1536.0023" y2="-1438.1487" gradientTransform="matrix(-0.9874 -0.1584 0.1584 -0.9874 1964.3812 -969.0706)">
				<stop  offset="0" style="stop-color:#FB1200;stop-opacity:0"/>
				<stop  offset="0.998" style="stop-color:#FC5042"/>
			</linearGradient>
			<path class="st31" d="M215.6,202.1c0.4-2.6,3.1-4.4,5.9-3.9c2.8,0.5,4.8,2.9,4.4,5.6c-0.4,2.6-3.1,4.4-5.9,3.9
				C217.1,207.2,215.2,204.8,215.6,202.1z"/>
			
				<linearGradient id="SVGID_28_" gradientUnits="userSpaceOnUse" x1="1538.0701" y1="-1428.5221" x2="1538.0701" y2="-1438.1487" gradientTransform="matrix(-0.9874 -0.1584 0.1584 -0.9874 1964.3812 -969.0706)">
				<stop  offset="0" style="stop-color:#FB1200;stop-opacity:0"/>
				<stop  offset="9.790792e-02" style="stop-color:#FC2010;stop-opacity:9.810442e-02"/>
				<stop  offset="0.2783" style="stop-color:#FC3526;stop-opacity:0.2788"/>
				<stop  offset="0.4745" style="stop-color:#FC4436;stop-opacity:0.4754"/>
				<stop  offset="0.6962" style="stop-color:#FC4D3F;stop-opacity:0.6976"/>
				<stop  offset="0.998" style="stop-color:#FC5042"/>
			</linearGradient>
			<path class="st32" d="M215.6,202.1c0.4-2.6,3.1-4.4,5.9-3.9c2.8,0.5-1.6,1.9-2,4.6c-0.4,2.6,3.3,5.4,0.5,5
				C217.1,207.3,215.2,204.8,215.6,202.1z"/>
			<g>
				<path class="st4" d="M214.7,202.4c0-0.3,0.1-0.7,0.2-1c1-2.9,4.4-4.4,7.6-3.3c2.8,1,4.4,3.6,4.1,6.2c0-0.1,0.1-0.3,0.1-0.4
					c0.5-3.1-1.8-6-5.1-6.5s-6.4,1.5-6.9,4.6C214.7,202.1,214.7,202.2,214.7,202.4z"/>
			</g>
			
				<ellipse transform="matrix(0.1585 -0.9874 0.9874 0.1585 -15.0761 393.6239)" class="st8" cx="223.4" cy="205.7" rx="0.9" ry="1"/>
			
				<ellipse transform="matrix(0.1584 -0.9874 0.9874 0.1584 -18.5925 386.8654)" class="st8" cx="217.6" cy="204.3" rx="1.3" ry="1.4"/>
			<ellipse transform="matrix(0.1584 -0.9874 0.9874 0.1584 -13.1724 389.6604)" class="st8" cx="222" cy="202.6" rx="0.9" ry="1"/>
			
				<ellipse transform="matrix(0.1585 -0.9874 0.9874 0.1585 -12.1384 385.8381)" class="st8" cx="220.3" cy="200" rx="0.8" ry="0.9"/>
			
				<ellipse transform="matrix(0.1584 -0.9874 0.9874 0.1584 -16.331 390.4547)" class="st8" cx="220.9" cy="204.8" rx="0.4" ry="0.5"/>
			
				<ellipse transform="matrix(0.1584 -0.9874 0.9874 0.1584 -18.6182 391.3411)" class="st8" cx="220.3" cy="206.6" rx="0.4" ry="0.5"/>
			
				<ellipse transform="matrix(0.1584 -0.9874 0.9874 0.1584 -11.3528 393.116)" class="st8" cx="224.9" cy="203.2" rx="0.4" ry="0.5"/>
			
				<ellipse transform="matrix(0.1584 -0.9874 0.9874 0.1584 -10.4287 389.2782)" class="st8" cx="223.1" cy="200.8" rx="0.4" ry="0.5"/>
			
				<ellipse transform="matrix(0.1584 -0.9874 0.9874 0.1584 -14.8622 383.8777)" class="st8" cx="217.8" cy="200.7" rx="0.4" ry="0.5"/>
			
				<ellipse transform="matrix(0.1584 -0.9874 0.9874 0.1584 -15.4652 386.8575)" class="st8" cx="219.2" cy="202.5" rx="0.4" ry="0.5"/>
		</g>
	</g>
	<g>
		
			<linearGradient id="SVGID_29_" gradientUnits="userSpaceOnUse" x1="2607.8315" y1="297.9263" x2="2619.918" y2="297.9263" gradientTransform="matrix(-8.825622e-02 0.9961 -0.9961 -8.825622e-02 938.218 -2450.8855)">
			<stop  offset="0" style="stop-color:#FFAE30"/>
			<stop  offset="1" style="stop-color:#FF7233"/>
		</linearGradient>
		<path class="st33" d="M410.2,132.6c-3.1-0.3-5.4-3.2-5.1-6.5c0.3-3.3,3-5.8,6.1-5.5c3.1,0.3,5.4,3.2,5.1,6.5
			C416,130.4,413.3,132.9,410.2,132.6z"/>
		<g>
			
				<ellipse transform="matrix(8.829499e-02 -0.9961 0.9961 8.829499e-02 249.1479 524.3488)" class="st4" cx="411" cy="126.1" rx="6" ry="5.6"/>
			<g>
				
					<linearGradient id="SVGID_30_" gradientUnits="userSpaceOnUse" x1="2607.2915" y1="294.9851" x2="2619.3779" y2="294.9851" gradientTransform="matrix(-8.825622e-02 0.9961 -0.9961 -8.825622e-02 938.218 -2450.8855)">
					<stop  offset="0" style="stop-color:#FB1200;stop-opacity:0"/>
					<stop  offset="9.790792e-02" style="stop-color:#FC2010;stop-opacity:9.810442e-02"/>
					<stop  offset="0.2783" style="stop-color:#FC3526;stop-opacity:0.2788"/>
					<stop  offset="0.4745" style="stop-color:#FC4436;stop-opacity:0.4754"/>
					<stop  offset="0.6962" style="stop-color:#FC4D3F;stop-opacity:0.6976"/>
					<stop  offset="0.998" style="stop-color:#FC5042"/>
				</linearGradient>
				<path class="st34" d="M416.3,126.5c-0.3,3.3-2.9,5.7-6,5.5c0.1,0,0.1,0,0.2,0c3.1,0.3,5.8-2.2,6.1-5.5c0.3-3.3-2-6.2-5.1-6.5
					c-0.1,0-0.1,0-0.2,0C414.4,120.4,416.6,123.3,416.3,126.5z"/>
			</g>
			
				<linearGradient id="SVGID_31_" gradientUnits="userSpaceOnUse" x1="2613.3347" y1="302.5236" x2="2613.3347" y2="292.897" gradientTransform="matrix(-8.825622e-02 0.9961 -0.9961 -8.825622e-02 938.218 -2450.8855)">
				<stop  offset="0" style="stop-color:#FB1200;stop-opacity:0"/>
				<stop  offset="0.998" style="stop-color:#FC5042"/>
			</linearGradient>
			<path class="st35" d="M410.6,131.2c-2.6-0.2-4.6-2.7-4.3-5.6c0.3-2.9,2.6-5,5.3-4.7c2.6,0.2,4.6,2.7,4.3,5.6
				C415.6,129.3,413.2,131.5,410.6,131.2z"/>
			
				<linearGradient id="SVGID_32_" gradientUnits="userSpaceOnUse" x1="2615.4026" y1="302.5236" x2="2615.4026" y2="292.897" gradientTransform="matrix(-8.825622e-02 0.9961 -0.9961 -8.825622e-02 938.218 -2450.8855)">
				<stop  offset="0" style="stop-color:#FB1200;stop-opacity:0"/>
				<stop  offset="9.790792e-02" style="stop-color:#FC2010;stop-opacity:9.810442e-02"/>
				<stop  offset="0.2783" style="stop-color:#FC3526;stop-opacity:0.2788"/>
				<stop  offset="0.4745" style="stop-color:#FC4436;stop-opacity:0.4754"/>
				<stop  offset="0.6962" style="stop-color:#FC4D3F;stop-opacity:0.6976"/>
				<stop  offset="0.998" style="stop-color:#FC5042"/>
			</linearGradient>
			<path class="st36" d="M410.6,131.2c-2.6-0.2-4.6-2.7-4.3-5.6c0.3-2.9,2,1.5,4.7,1.7c2.6,0.2,5.2-3.7,4.9-0.8
				C415.6,129.3,413.2,131.4,410.6,131.2z"/>
			<g>
				<path class="st4" d="M410.9,132.1c-0.3,0-0.7-0.1-1-0.2c-3-0.8-4.7-4.1-3.8-7.3c0.8-2.8,3.3-4.6,5.9-4.5c-0.1,0-0.3,0-0.4-0.1
					c-3.1-0.3-5.8,2.2-6.1,5.5c-0.3,3.3,2,6.2,5.1,6.5C410.6,132.1,410.7,132.1,410.9,132.1z"/>
			</g>
			
				<ellipse transform="matrix(8.837207e-02 -0.9961 0.9961 8.837207e-02 254.2699 524.217)" class="st8" cx="413.5" cy="123.2" rx="1" ry="0.9"/>
			
				<ellipse transform="matrix(8.829709e-02 -0.9961 0.9961 8.829709e-02 247.6755 528.6294)" class="st8" cx="412.6" cy="129" rx="1.4" ry="1.3"/>
			
				<ellipse transform="matrix(8.828413e-02 -0.9961 0.9961 8.828413e-02 249.9735 522.7168)" class="st8" cx="410.5" cy="124.8" rx="1" ry="0.9"/>
			
				<ellipse transform="matrix(8.837663e-02 -0.9961 0.9961 8.837663e-02 245.8873 522.0323)" class="st8" cx="408.1" cy="126.7" rx="0.9" ry="0.8"/>
			
				<ellipse transform="matrix(8.828413e-02 -0.9961 0.9961 8.828413e-02 251.1435 525.8984)" class="st8" cx="412.9" cy="125.8" rx="0.5" ry="0.4"/>
			
				<ellipse transform="matrix(8.832245e-02 -0.9961 0.9961 8.832245e-02 252.3061 528.1534)" class="st8" cx="414.7" cy="126.2" rx="0.5" ry="0.4"/>
			
				<ellipse transform="matrix(8.828413e-02 -0.9961 0.9961 8.828413e-02 253.3496 520.4529)" class="st8" cx="411" cy="121.8" rx="0.5" ry="0.4"/>
			
				<ellipse transform="matrix(8.832245e-02 -0.9961 0.9961 8.832245e-02 249.269 519.9046)" class="st8" cx="408.7" cy="123.8" rx="0.5" ry="0.4"/>
			
				<ellipse transform="matrix(8.828413e-02 -0.9961 0.9961 8.828413e-02 244.1747 525.1026)" class="st8" cx="408.9" cy="129.2" rx="0.5" ry="0.4"/>
			
				<ellipse transform="matrix(8.832245e-02 -0.9961 0.9961 8.832245e-02 247.3184 525.384)" class="st8" cx="410.7" cy="127.6" rx="0.5" ry="0.4"/>
		</g>
	</g>
	<g>
		
			<linearGradient id="SVGID_33_" gradientUnits="userSpaceOnUse" x1="2779.5786" y1="285.4612" x2="2791.6648" y2="285.4612" gradientTransform="matrix(-8.825622e-02 0.9961 -0.9961 -8.825622e-02 938.218 -2450.8855)">
			<stop  offset="0" style="stop-color:#FFAE30"/>
			<stop  offset="1" style="stop-color:#FF7233"/>
		</linearGradient>
		<path class="st37" d="M407.5,304.8c-3.1-0.3-5.4-3.2-5.1-6.5c0.3-3.3,3-5.8,6.1-5.5c3.1,0.3,5.4,3.2,5.1,6.5
			C413.3,302.6,410.6,305.1,407.5,304.8z"/>
		<g>
			
				<ellipse transform="matrix(8.829499e-02 -0.9961 0.9961 8.829499e-02 75.1385 678.5988)" class="st4" cx="408.3" cy="298.3" rx="6" ry="5.6"/>
			<g>
				
					<linearGradient id="SVGID_34_" gradientUnits="userSpaceOnUse" x1="2779.0383" y1="282.52" x2="2791.1248" y2="282.52" gradientTransform="matrix(-8.825622e-02 0.9961 -0.9961 -8.825622e-02 938.218 -2450.8855)">
					<stop  offset="0" style="stop-color:#FB1200;stop-opacity:0"/>
					<stop  offset="9.790792e-02" style="stop-color:#FC2010;stop-opacity:9.810442e-02"/>
					<stop  offset="0.2783" style="stop-color:#FC3526;stop-opacity:0.2788"/>
					<stop  offset="0.4745" style="stop-color:#FC4436;stop-opacity:0.4754"/>
					<stop  offset="0.6962" style="stop-color:#FC4D3F;stop-opacity:0.6976"/>
					<stop  offset="0.998" style="stop-color:#FC5042"/>
				</linearGradient>
				<path class="st38" d="M413.5,298.7c-0.3,3.3-2.9,5.7-6,5.5c0.1,0,0.1,0,0.2,0c3.1,0.3,5.8-2.2,6.1-5.5c0.3-3.3-2-6.2-5.1-6.5
					c-0.1,0-0.1,0-0.2,0C411.7,292.6,413.8,295.5,413.5,298.7z"/>
			</g>
			
				<linearGradient id="SVGID_35_" gradientUnits="userSpaceOnUse" x1="2785.0815" y1="290.0585" x2="2785.0815" y2="280.4319" gradientTransform="matrix(-8.825622e-02 0.9961 -0.9961 -8.825622e-02 938.218 -2450.8855)">
				<stop  offset="0" style="stop-color:#FB1200;stop-opacity:0"/>
				<stop  offset="0.998" style="stop-color:#FC5042"/>
			</linearGradient>
			<path class="st39" d="M407.8,303.4c-2.6-0.2-4.6-2.7-4.3-5.6c0.3-2.9,2.6-5,5.3-4.7c2.6,0.2,4.6,2.7,4.3,5.6
				C412.8,301.5,410.5,303.6,407.8,303.4z"/>
			
				<linearGradient id="SVGID_36_" gradientUnits="userSpaceOnUse" x1="2787.1494" y1="290.0585" x2="2787.1494" y2="280.4319" gradientTransform="matrix(-8.825622e-02 0.9961 -0.9961 -8.825622e-02 938.218 -2450.8855)">
				<stop  offset="0" style="stop-color:#FB1200;stop-opacity:0"/>
				<stop  offset="9.790792e-02" style="stop-color:#FC2010;stop-opacity:9.810442e-02"/>
				<stop  offset="0.2783" style="stop-color:#FC3526;stop-opacity:0.2788"/>
				<stop  offset="0.4745" style="stop-color:#FC4436;stop-opacity:0.4754"/>
				<stop  offset="0.6962" style="stop-color:#FC4D3F;stop-opacity:0.6976"/>
				<stop  offset="0.998" style="stop-color:#FC5042"/>
			</linearGradient>
			<path class="st40" d="M407.8,303.4c-2.6-0.2-4.6-2.7-4.3-5.6c0.3-2.9,2,1.5,4.7,1.7c2.6,0.2,5.2-3.7,4.9-0.8
				C412.8,301.5,410.5,303.6,407.8,303.4z"/>
			<g>
				<path class="st4" d="M408.1,304.3c-0.3,0-0.7-0.1-1-0.2c-3-0.8-4.7-4.1-3.8-7.3c0.8-2.8,3.3-4.6,5.9-4.5c-0.1,0-0.3,0-0.4-0.1
					c-3.1-0.3-5.8,2.2-6.1,5.5c-0.3,3.3,2,6.2,5.1,6.5C407.9,304.3,408,304.3,408.1,304.3z"/>
			</g>
			
				<ellipse transform="matrix(8.837207e-02 -0.9961 0.9961 8.837207e-02 80.262 678.4537)" class="st8" cx="410.8" cy="295.4" rx="1" ry="0.9"/>
			
				<ellipse transform="matrix(8.829709e-02 -0.9961 0.9961 8.829709e-02 73.6662 682.879)" class="st8" cx="409.9" cy="301.2" rx="1.4" ry="1.3"/>
			
				<ellipse transform="matrix(8.828413e-02 -0.9961 0.9961 8.828413e-02 75.964 676.9686)" class="st8" cx="407.8" cy="297" rx="1" ry="0.9"/>
			
				<ellipse transform="matrix(8.837663e-02 -0.9961 0.9961 8.837663e-02 71.8795 676.2682)" class="st8" cx="405.4" cy="298.9" rx="0.9" ry="0.8"/>
			
				<ellipse transform="matrix(8.828413e-02 -0.9961 0.9961 8.828413e-02 77.134 680.1502)" class="st8" cx="410.1" cy="297.9" rx="0.5" ry="0.4"/>
			
				<ellipse transform="matrix(8.832245e-02 -0.9961 0.9961 8.832245e-02 78.2973 682.3986)" class="st8" cx="411.9" cy="298.4" rx="0.5" ry="0.4"/>
			
				<ellipse transform="matrix(8.828413e-02 -0.9961 0.9961 8.828413e-02 79.3401 674.7048)" class="st8" cx="408.2" cy="294" rx="0.5" ry="0.4"/>
			
				<ellipse transform="matrix(8.832245e-02 -0.9961 0.9961 8.832245e-02 75.2602 674.1498)" class="st8" cx="405.9" cy="296" rx="0.5" ry="0.4"/>
			
				<ellipse transform="matrix(8.828413e-02 -0.9961 0.9961 8.828413e-02 70.1652 679.3544)" class="st8" cx="406.2" cy="301.3" rx="0.5" ry="0.4"/>
			
				<ellipse transform="matrix(8.832245e-02 -0.9961 0.9961 8.832245e-02 73.3095 679.6292)" class="st8" cx="407.9" cy="299.8" rx="0.5" ry="0.4"/>
		</g>
	</g>
	<g>
		
			<linearGradient id="SVGID_37_" gradientUnits="userSpaceOnUse" x1="2271.4131" y1="-916.2634" x2="2283.4995" y2="-916.2634" gradientTransform="matrix(-0.9401 0.3411 -0.3411 -0.9401 2182.1133 -1316.5334)">
			<stop  offset="0" style="stop-color:#FFAE30"/>
			<stop  offset="1" style="stop-color:#FF7233"/>
		</linearGradient>
		<path class="st41" d="M347.9,323.6c-1.1-2.9,0.6-6.2,3.8-7.3c3.1-1.1,6.5,0.3,7.6,3.2c1.1,2.9-0.6,6.2-3.8,7.3
			C352.4,328,349,326.5,347.9,323.6z"/>
		<g>
			<ellipse transform="matrix(0.9401 -0.341 0.341 0.9401 -88.4346 140.0622)" class="st4" cx="354.2" cy="321.6" rx="6" ry="5.6"/>
			<g>
				
					<linearGradient id="SVGID_38_" gradientUnits="userSpaceOnUse" x1="2270.873" y1="-919.2047" x2="2282.9595" y2="-919.2047" gradientTransform="matrix(-0.9401 0.3411 -0.3411 -0.9401 2182.1133 -1316.5334)">
					<stop  offset="0" style="stop-color:#FB1200;stop-opacity:0"/>
					<stop  offset="9.790792e-02" style="stop-color:#FC2010;stop-opacity:9.810442e-02"/>
					<stop  offset="0.2783" style="stop-color:#FC3526;stop-opacity:0.2788"/>
					<stop  offset="0.4745" style="stop-color:#FC4436;stop-opacity:0.4754"/>
					<stop  offset="0.6962" style="stop-color:#FC4D3F;stop-opacity:0.6976"/>
					<stop  offset="0.998" style="stop-color:#FC5042"/>
				</linearGradient>
				<path class="st42" d="M356,326.6c-3.1,1.1-6.4-0.3-7.5-3.1c0,0.1,0,0.1,0.1,0.2c1.1,2.9,4.5,4.4,7.6,3.2s4.8-4.4,3.8-7.3
					c0-0.1,0-0.1-0.1-0.2C360.8,322.3,359.1,325.4,356,326.6z"/>
			</g>
			
				<linearGradient id="SVGID_39_" gradientUnits="userSpaceOnUse" x1="2276.9163" y1="-911.6661" x2="2276.9163" y2="-921.2927" gradientTransform="matrix(-0.9401 0.3411 -0.3411 -0.9401 2182.1133 -1316.5334)">
				<stop  offset="0" style="stop-color:#FB1200;stop-opacity:0"/>
				<stop  offset="0.998" style="stop-color:#FC5042"/>
			</linearGradient>
			<path class="st43" d="M349.3,323.4c-0.9-2.5,0.5-5.3,3.2-6.3c2.7-1,5.6,0.3,6.5,2.8c0.9,2.5-0.5,5.3-3.2,6.3
				C353.2,327.1,350.2,325.9,349.3,323.4z"/>
			
				<linearGradient id="SVGID_40_" gradientUnits="userSpaceOnUse" x1="2278.9841" y1="-911.6661" x2="2278.9841" y2="-921.2927" gradientTransform="matrix(-0.9401 0.3411 -0.3411 -0.9401 2182.1133 -1316.5334)">
				<stop  offset="0" style="stop-color:#FB1200;stop-opacity:0"/>
				<stop  offset="9.790792e-02" style="stop-color:#FC2010;stop-opacity:9.810442e-02"/>
				<stop  offset="0.2783" style="stop-color:#FC3526;stop-opacity:0.2788"/>
				<stop  offset="0.4745" style="stop-color:#FC4436;stop-opacity:0.4754"/>
				<stop  offset="0.6962" style="stop-color:#FC4D3F;stop-opacity:0.6976"/>
				<stop  offset="0.998" style="stop-color:#FC5042"/>
			</linearGradient>
			<path class="st44" d="M349.3,323.4c-0.9-2.5,0.5-5.3,3.2-6.3c2.7-1-0.5,2.5,0.4,5c0.9,2.5,5.5,3.1,2.8,4.1
				C353.2,327.1,350.3,325.9,349.3,323.4z"/>
			<g>
				<path class="st4" d="M348.7,324c-0.1-0.3-0.2-0.7-0.3-1c-0.5-3.1,1.7-6,5-6.5c2.9-0.5,5.6,1,6.6,3.4c0-0.1-0.1-0.2-0.1-0.4
					c-1.1-2.9-4.5-4.4-7.6-3.2s-4.8,4.4-3.8,7.3C348.6,323.8,348.6,323.9,348.7,324z"/>
			</g>
			
				<ellipse transform="matrix(0.9401 -0.3409 0.3409 0.9401 -88.5626 141.3417)" class="st8" cx="357.9" cy="322.7" rx="1" ry="0.9"/>
			
				<ellipse transform="matrix(0.9401 -0.341 0.341 0.9401 -89.4733 139.544)" class="st8" cx="352.2" cy="324.3" rx="1.4" ry="1.3"/>
			<ellipse transform="matrix(0.9401 -0.341 0.341 0.9401 -88.0487 140.3305)" class="st8" cx="355.1" cy="320.6" rx="1" ry="0.9"/>
			
				<ellipse transform="matrix(0.9401 -0.3409 0.3409 0.9401 -87.7264 139.2825)" class="st8" cx="352.4" cy="319.2" rx="0.9" ry="0.8"/>
			
				<ellipse transform="matrix(0.9401 -0.341 0.341 0.9401 -88.8967 140.5215)" class="st8" cx="355.3" cy="323.1" rx="0.5" ry="0.4"/>
			<ellipse transform="matrix(0.9401 -0.341 0.341 0.9401 -89.5039 140.7283)" class="st8" cx="355.6" cy="325" rx="0.5" ry="0.4"/>
			<ellipse transform="matrix(0.9401 -0.341 0.341 0.9401 -87.5861 141.2645)" class="st8" cx="358" cy="319.8" rx="0.5" ry="0.4"/>
			
				<ellipse transform="matrix(0.9401 -0.341 0.341 0.9401 -87.3055 140.2321)" class="st8" cx="355.3" cy="318.5" rx="0.5" ry="0.4"/>
			<ellipse transform="matrix(0.9401 -0.341 0.341 0.9401 -88.4613 138.7765)" class="st8" cx="350.5" cy="321" rx="0.5" ry="0.4"/>
			
				<ellipse transform="matrix(0.9401 -0.341 0.341 0.9401 -88.6331 139.553)" class="st8" cx="352.7" cy="321.9" rx="0.5" ry="0.4"/>
		</g>
	</g>
	<g>
		
			<linearGradient id="SVGID_41_" gradientUnits="userSpaceOnUse" x1="2241.9314" y1="-969.5282" x2="2254.0176" y2="-969.5282" gradientTransform="matrix(-0.8689 0.4951 -0.4951 -0.8689 1867.0629 -1781.9501)">
			<stop  offset="0" style="stop-color:#FFAE30"/>
			<stop  offset="1" style="stop-color:#FF7233"/>
		</linearGradient>
		<path class="st45" d="M388.5,176.4c-1.5-2.7-0.4-6.2,2.5-7.9c2.9-1.7,6.5-0.8,8,1.9c1.5,2.7,0.4,6.2-2.5,7.9
			C393.7,179.9,390.1,179,388.5,176.4z"/>
		<g>
			<ellipse transform="matrix(0.8689 -0.495 0.495 0.8689 -34.07 217.9283)" class="st4" cx="394.4" cy="173.3" rx="6" ry="5.6"/>
			<g>
				
					<linearGradient id="SVGID_42_" gradientUnits="userSpaceOnUse" x1="2241.3911" y1="-972.4694" x2="2253.4775" y2="-972.4694" gradientTransform="matrix(-0.8689 0.4951 -0.4951 -0.8689 1867.0629 -1781.9501)">
					<stop  offset="0" style="stop-color:#FB1200;stop-opacity:0"/>
					<stop  offset="9.790792e-02" style="stop-color:#FC2010;stop-opacity:9.810442e-02"/>
					<stop  offset="0.2783" style="stop-color:#FC3526;stop-opacity:0.2788"/>
					<stop  offset="0.4745" style="stop-color:#FC4436;stop-opacity:0.4754"/>
					<stop  offset="0.6962" style="stop-color:#FC4D3F;stop-opacity:0.6976"/>
					<stop  offset="0.998" style="stop-color:#FC5042"/>
				</linearGradient>
				<path class="st46" d="M397,177.9c-2.8,1.6-6.4,0.8-7.9-1.7c0,0,0,0.1,0.1,0.1c1.5,2.7,5.1,3.5,8,1.9c2.9-1.7,4-5.2,2.5-7.9
					c0,0-0.1-0.1-0.1-0.1C400.9,172.8,399.8,176.3,397,177.9z"/>
			</g>
			
				<linearGradient id="SVGID_43_" gradientUnits="userSpaceOnUse" x1="2247.4343" y1="-964.9308" x2="2247.4343" y2="-974.5574" gradientTransform="matrix(-0.8689 0.4951 -0.4951 -0.8689 1867.0629 -1781.9501)">
				<stop  offset="0" style="stop-color:#FB1200;stop-opacity:0"/>
				<stop  offset="0.998" style="stop-color:#FC5042"/>
			</linearGradient>
			<path class="st47" d="M389.9,175.8c-1.3-2.3-0.4-5.3,2.1-6.7c2.5-1.4,5.6-0.7,6.9,1.6c1.3,2.3,0.4,5.3-2.1,6.7
				C394.3,178.9,391.2,178.2,389.9,175.8z"/>
			
				<linearGradient id="SVGID_44_" gradientUnits="userSpaceOnUse" x1="2249.5022" y1="-964.9309" x2="2249.5022" y2="-974.5575" gradientTransform="matrix(-0.8689 0.4951 -0.4951 -0.8689 1867.0629 -1781.9501)">
				<stop  offset="0" style="stop-color:#FB1200;stop-opacity:0"/>
				<stop  offset="9.790792e-02" style="stop-color:#FC2010;stop-opacity:9.810442e-02"/>
				<stop  offset="0.2783" style="stop-color:#FC3526;stop-opacity:0.2788"/>
				<stop  offset="0.4745" style="stop-color:#FC4436;stop-opacity:0.4754"/>
				<stop  offset="0.6962" style="stop-color:#FC4D3F;stop-opacity:0.6976"/>
				<stop  offset="0.998" style="stop-color:#FC5042"/>
			</linearGradient>
			<path class="st48" d="M389.9,175.8c-1.3-2.3-0.4-5.3,2.1-6.7c2.5-1.4,0,2.5,1.3,4.8c1.3,2.3,6,2.1,3.5,3.6
				S391.2,178.1,389.9,175.8z"/>
			<g>
				<path class="st4" d="M389.3,176.6c-0.2-0.3-0.3-0.6-0.4-0.9c-1-2.9,0.7-6.2,3.9-7.3c2.8-1,5.7,0,7.1,2.3
					c-0.1-0.1-0.1-0.2-0.2-0.3c-1.5-2.7-5.1-3.5-8-1.9c-2.9,1.7-4,5.2-2.5,7.9C389.2,176.4,389.2,176.5,389.3,176.6z"/>
			</g>
			
				<ellipse transform="matrix(0.8689 -0.4949 0.4949 0.8689 -33.787 219.8284)" class="st8" cx="398.1" cy="173.7" rx="1" ry="0.9"/>
			
				<ellipse transform="matrix(0.8689 -0.495 0.495 0.8689 -35.7501 217.5744)" class="st8" cx="392.8" cy="176.3" rx="1.4" ry="1.3"/>
			<ellipse transform="matrix(0.8689 -0.495 0.495 0.8689 -33.4162 218.1654)" class="st8" cx="395.1" cy="172.2" rx="1" ry="0.9"/>
			
				<ellipse transform="matrix(0.8689 -0.4949 0.4949 0.8689 -33.3584 216.5706)" class="st8" cx="392.2" cy="171.3" rx="0.9" ry="0.8"/>
			
				<ellipse transform="matrix(0.8689 -0.495 0.495 0.8689 -34.5587 218.7549)" class="st8" cx="395.7" cy="174.6" rx="0.5" ry="0.4"/>
			
				<ellipse transform="matrix(0.8689 -0.495 0.495 0.8689 -35.356 219.2877)" class="st8" cx="396.3" cy="176.4" rx="0.5" ry="0.4"/>
			
				<ellipse transform="matrix(0.8689 -0.495 0.495 0.8689 -32.406 219.3297)" class="st8" cx="397.8" cy="170.8" rx="0.5" ry="0.4"/>
			<ellipse transform="matrix(0.8689 -0.495 0.495 0.8689 -32.3944 217.758)" class="st8" cx="394.9" cy="170" rx="0.5" ry="0.4"/>
			
				<ellipse transform="matrix(0.8689 -0.495 0.495 0.8689 -34.586 216.0951)" class="st8" cx="390.6" cy="173.3" rx="0.5" ry="0.4"/>
			
				<ellipse transform="matrix(0.8689 -0.495 0.495 0.8689 -34.5478 217.2809)" class="st8" cx="392.9" cy="173.9" rx="0.5" ry="0.4"/>
		</g>
	</g>
</g>
</svg>
